0
SECTION
2
HEADER
9
$INSUNITS
70
4
9
$ACADVER
1
AC1014
9
$HANDSEED
5
FFFF
0
ENDSEC
0
SECTION
2
TABLES
0
TABLE
2
VPORT
5
8
100
AcDbSymbolTable
0
ENDTAB
0
TABLE
2
LTYPE
5
5
100
AcDbSymbolTable
0
LTYPE
5
14
100
AcDbSymbolTableRecord
100
AcDbLinetypeTableRecord
2
BYBLOCK
70
0
0
LTYPE
5
15
100
AcDbSymbolTableRecord
100
AcDbLinetypeTableRecord
2
BYLAYER
70
0
0
ENDTAB
0
TABLE
2
LAYER
5
2
100
AcDbSymbolTable
70
2
0
LAYER
5
50
100
AcDbSymbolTableRecord
100
AcDbLayerTableRecord
2
0
70
0
6
CONTINUOUS
0
ENDTAB
0
TABLE
2
STYLE
5
3
100
AcDbSymbolTable
70
1
0
STYLE
5
11
100
AcDbSymbolTableRecord
100
AcDbTextStyleTableRecord
2
STANDARD
70
0
0
ENDTAB
0
TABLE
2
VIEW
5
6
100
AcDbSymbolTable
70
0
0
ENDTAB
0
TABLE
2
UCS
5
7
100
AcDbSymbolTable
70
0
0
ENDTAB
0
TABLE
2
APPID
5
9
100
AcDbSymbolTable
70
2
0
APPID
5
12
100
AcDbSymbolTableRecord
100
AcDbRegAppTableRecord
2
ACAD
70
0
0
ENDTAB
0
TABLE
2
DIMSTYLE
5
A
100
AcDbSymbolTable
70
1
0
ENDTAB
0
TABLE
2
BLOCK_RECORD
5
1
100
AcDbSymbolTable
70
1
0
BLOCK_RECORD
5
1F
100
AcDbSymbolTableRecord
100
AcDbBlockTableRecord
2
*MODEL_SPACE
0
BLOCK_RECORD
5
1B
100
AcDbSymbolTableRecord
100
AcDbBlockTableRecord
2
*PAPER_SPACE
0
ENDTAB
0
ENDSEC
0
SECTION
2
BLOCKS
0
BLOCK
5
20
100
AcDbEntity
100
AcDbBlockBegin
2
*MODEL_SPACE
0
ENDBLK
5
21
100
AcDbEntity
100
AcDbBlockEnd
0
BLOCK
5
1C
100
AcDbEntity
100
AcDbBlockBegin
2
*PAPER_SPACE
0
ENDBLK
5
1D
100
AcDbEntity
100
AcDbBlockEnd
0
ENDSEC
0
SECTION
2
ENTITIES
0
LWPOLYLINE
5
100
100
AcDbEntity
8
0
100
AcDbPolyline
90
40
70
1
43
0.0
10
124.89999999999996
20
6.6230912185421401e-14
10
102.49999999999991
20
6.6230912185421414e-14
42
0.014218544016579553
10
102.33429007388784
20
5.8260685778118404
10
119.30680647638661
20
6.7923433663270751
42
0.022169312342490938
10
118.23673451713178
20
17.329876246683114
10
101.41644592473619
20
14.864538203221917
42
0.022169312342491254
10
99.701881212912099
20
23.786233047844117
10
116.23780297505385
20
27.731266821632982
42
0.015628816561048864
10
114.27841833758291
20
34.938418714367202
10
98.021237486211021
20
29.968099734080607
42
0.028805896209039273
10
93.92717978012945
20
41.035775837081793
10
109.50534618268777
20
47.841709390549127
42
0.015628816561048864
10
106.30282208624196
20
54.589010034079351
10
91.180244885688509
20
46.823209443457117
42
0.022355175724114221
10
86.635375354031567
20
54.777383446693086
10
101.00416931518822
20
63.862412896388605
42
0.022194257885480118
10
94.94539180974823
20
72.564609653008063
10
81.438515987440766
20
62.241610790236962
42
0.022194257885480431
10
75.600442111212587
20
69.215772426443209
10
88.139052022340749
20
80.69546151180468
42
0.02219425788548075
10
80.638740367480153
20
88.190949376600798
10
69.16712039888445
20
75.644956578255787
42
0.022194257885480118
10
62.189204268892382
20
81.478542404745809
10
72.503511318367387
20
94.992056754801325
42
0.022194257885480118
10
63.797418435437081
20
101.04523442980265
10
54.721635059684495
20
86.670598569495866
42
0.022194257885480118
10
46.82320944345696
20
91.180244885688666
10
54.589010034079166
20
106.30282208624203
42
0.015628816561048864
10
47.841709390548914
20
109.50534618268777
10
41.03577583708163
20
93.927179780129563
42
0.034920769491747647
10
27.564281613064626
20
98.724163096759966
10
32.135918563524143
20
115.09792673232027
42
0.01578969428952217
10
24.807845489803118
20
116.89662442583219
10
21.278695922216055
20
100.26697911002337
42
0.022169312342491566
10
12.316813094718865
20
101.75729023116602
10
14.35960160798931
20
118.63410909877419
42
0.022169312342491566
10
3.7985496922461448
20
119.43961244175046
10
3.2581702381190758
20
102.44820314041351
42
0.0079482629114886235
10
-4.2687432174364464e-14
20
102.5
10
-6.2815655992589444e-14
20
124.90000000000012
42
-0.41421356237309509
0
ENDSEC
0
SECTION
2
OBJECTS
0
DICTIONARY
5
C
100
AcDbDictionary
3
ACAD_GROUP
350
D
3
ACAD_MLINESTYLE
350
17
0
DICTIONARY
5
D
100
AcDbDictionary
0
DICTIONARY
5
1A
330
C
100
AcDbDictionary
0
DICTIONARY
5
17
100
AcDbDictionary
0
ENDSEC
0
EOF
