0
SECTION
2
HEADER
9
$INSUNITS
70
4
9
$ACADVER
1
AC1014
9
$HANDSEED
5
FFFF
0
ENDSEC
0
SECTION
2
TABLES
0
TABLE
2
VPORT
5
8
100
AcDbSymbolTable
0
ENDTAB
0
TABLE
2
LTYPE
5
5
100
AcDbSymbolTable
0
LTYPE
5
14
100
AcDbSymbolTableRecord
100
AcDbLinetypeTableRecord
2
BYBLOCK
70
0
0
LTYPE
5
15
100
AcDbSymbolTableRecord
100
AcDbLinetypeTableRecord
2
BYLAYER
70
0
0
ENDTAB
0
TABLE
2
LAYER
5
2
100
AcDbSymbolTable
70
2
0
LAYER
5
50
100
AcDbSymbolTableRecord
100
AcDbLayerTableRecord
2
0
70
0
6
CONTINUOUS
0
ENDTAB
0
TABLE
2
STYLE
5
3
100
AcDbSymbolTable
70
1
0
STYLE
5
11
100
AcDbSymbolTableRecord
100
AcDbTextStyleTableRecord
2
STANDARD
70
0
0
ENDTAB
0
TABLE
2
VIEW
5
6
100
AcDbSymbolTable
70
0
0
ENDTAB
0
TABLE
2
UCS
5
7
100
AcDbSymbolTable
70
0
0
ENDTAB
0
TABLE
2
APPID
5
9
100
AcDbSymbolTable
70
2
0
APPID
5
12
100
AcDbSymbolTableRecord
100
AcDbRegAppTableRecord
2
ACAD
70
0
0
ENDTAB
0
TABLE
2
DIMSTYLE
5
A
100
AcDbSymbolTable
70
1
0
ENDTAB
0
TABLE
2
BLOCK_RECORD
5
1
100
AcDbSymbolTable
70
1
0
BLOCK_RECORD
5
1F
100
AcDbSymbolTableRecord
100
AcDbBlockTableRecord
2
*MODEL_SPACE
0
BLOCK_RECORD
5
1B
100
AcDbSymbolTableRecord
100
AcDbBlockTableRecord
2
*PAPER_SPACE
0
ENDTAB
0
ENDSEC
0
SECTION
2
BLOCKS
0
BLOCK
5
20
100
AcDbEntity
100
AcDbBlockBegin
2
*MODEL_SPACE
0
ENDBLK
5
21
100
AcDbEntity
100
AcDbBlockEnd
0
BLOCK
5
1C
100
AcDbEntity
100
AcDbBlockBegin
2
*PAPER_SPACE
0
ENDBLK
5
1D
100
AcDbEntity
100
AcDbBlockEnd
0
ENDSEC
0
SECTION
2
ENTITIES
0
ARC
5
100
100
AcDbEntity
8
0
100
AcDbCircle
10
0
20
4.4408920985006262e-15
30
0
40
70.000000000000114
210
-6.1117678390585861e-33
220
7.9282082748142709e-34
230
1
100
AcDbArc
50
82.608843400068295
51
262.60884340006834
0
ARC
5
101
100
AcDbEntity
8
0
100
AcDbCircle
10
4.999245480040706
20
72.410714285836065
30
0
40
4.9999999999999911
210
1.4753386132872853e-32
220
1.9749783121416231e-32
230
1
100
AcDbArc
50
-36.760286393608922
51
143.11545836732361
0
LINE
5
102
100
AcDbEntity
8
0
100
AcDbLine
10
1.0000123680380768
20
75.411736530982168
30
-1.2352653473745712e-31
11
-0.99999649635930499
21
76.909713172062879
31
0
0
ARC
5
103
100
AcDbEntity
8
0
100
AcDbCircle
10
-4.999288217837039
20
79.910657311249679
30
1.0947644252537633e-46
40
4.9999999999999956
210
3.9436061095597864e-32
220
-2.9591593876957404e-32
230
1
100
AcDbArc
50
36.883378281066655
51
323.11657735911666
0
LINE
5
104
100
AcDbEntity
8
0
100
AcDbLine
10
-0.9999941729549594
20
82.911598354084518
30
-6.8913775704968491e-32
11
0.99999410470781147
21
84.409716378989401
31
0
0
ARC
5
105
100
AcDbEntity
8
0
100
AcDbCircle
10
4.999245480040706
20
87.410714285836065
30
0
40
5.0000000000000053
210
0
220
0
230
1
100
AcDbArc
50
-143.11580705383818
51
143.11544949937655
0
LINE
5
106
100
AcDbEntity
8
0
100
AcDbLine
10
1.0000128325209665
20
90.411737149962931
30
-3.4452875515183765e-32
11
-0.99999581303062079
21
91.909714082720072
31
0
0
ARC
5
107
100
AcDbEntity
8
0
100
AcDbCircle
10
-4.9992882178370408
20
94.910657311249679
30
6.8422776578360209e-47
40
4.9999999999999982
210
-9.844482936554773e-33
220
6.9027652730923016e-32
230
1
100
AcDbArc
50
36.883378281066641
51
323.11659040562915
0
LINE
5
108
100
AcDbEntity
8
0
100
AcDbLine
10
-0.99999417295495885
20
97.911598354084518
30
-1.6777693418767083e-31
11
0.99999410470781147
21
99.409716378989401
31
0
0
ARC
5
109
100
AcDbEntity
8
0
100
AcDbCircle
10
4.999245480040706
20
102.41071428583606
30
0
40
5.0000000000000053
210
0
220
0
230
1
100
AcDbArc
50
-143.11580705383818
51
143.11581227408578
0
LINE
5
110
100
AcDbEntity
8
0
100
AcDbLine
10
0.99999383128539043
20
105.41171182830888
30
-3.4453624839111744e-32
11
-1.0000214146239816
21
106.90967996433118
31
0
0
ARC
5
111
100
AcDbEntity
8
0
100
AcDbCircle
10
-4.9992882178370399
20
109.91065731124968
30
1.7105694144590052e-47
40
4.9999999999999982
210
3.4513868356505454e-32
220
4.9219470260320163e-33
230
1
100
AcDbArc
50
36.883378281066641
51
323.11610160767532
0
LINE
5
112
100
AcDbEntity
8
0
100
AcDbLine
10
-0.99999417295495774
20
112.91159835408452
30
-1.5280158102509479e-31
11
0.99999410470781147
21
114.4097163789894
31
0
0
ARC
5
113
100
AcDbEntity
8
0
100
AcDbCircle
10
4.999245480040706
20
117.41071428583606
30
0
40
5.0000000000000053
210
0
220
0
230
1
100
AcDbArc
50
-143.11580705383818
51
143.11581227408576
0
LINE
5
114
100
AcDbEntity
8
0
100
AcDbLine
10
0.99999383128539532
20
120.41171182830888
30
-3.4453624839111536e-32
11
-0.99999444637323853
21
121.90971590403579
31
0
0
ARC
5
115
100
AcDbEntity
8
0
100
AcDbCircle
10
-4.999288217837039
20
124.91065731124968
30
-3.7632527118098115e-47
40
4.9999999999999991
210
3.4513824123822807e-32
220
4.922257186198312e-33
230
1
100
AcDbArc
50
184.70596529136947
51
323.11661649866647
0
ARC
5
116
100
AcDbEntity
8
0
100
AcDbCircle
10
0
20
4.4408920985006262e-15
30
0
40
124.90000000000006
210
-2.7533325690819111e-32
220
-3.6052569216619365e-33
230
1
100
AcDbArc
50
94.584162693185363
51
274.58416269318531
0
ARC
5
117
100
AcDbEntity
8
0
100
AcDbCircle
10
4.9992882178370248
20
-124.91065731124968
30
0
40
4.9999999999999742
210
6.4605672794029472e-46
220
1.6886561160503052e-46
230
1
100
AcDbArc
50
4.7059652913696164
51
143.11661649866656
0
LINE
5
118
100
AcDbEntity
8
0
100
AcDbLine
10
0.99999444637322132
20
-121.90971590403579
30
-1.1523555311748052e-31
11
-0.99999383128540786
21
-120.41171182830888
31
0
0
ARC
5
119
100
AcDbEntity
8
0
100
AcDbCircle
10
-4.9992454800407184
20
-117.41071428583606
30
-2.1895288505075267e-46
40
5.0000000000000036
210
-2.463960571103961e-32
220
4.9309953448037675e-32
230
1
100
AcDbArc
50
36.884192946161868
51
323.11581227408573
0
LINE
5
120
100
AcDbEntity
8
0
100
AcDbLine
10
-0.99999410470782812
20
-114.4097163789894
30
-4.943909005673203e-32
11
0.99999417295494319
21
-112.91159835408452
31
0
0
ARC
5
121
100
AcDbEntity
8
0
100
AcDbCircle
10
4.9992882178370266
20
-109.91065731124968
30
0
40
4.9999999999999991
210
0
220
0
230
1
100
AcDbArc
50
-143.11662171893337
51
143.11610160767526
0
LINE
5
122
100
AcDbEntity
8
0
100
AcDbLine
10
1.000021414623971
20
-106.90967996433118
30
0
11
-0.99999383128540631
21
-105.41171182830888
31
0
0
ARC
5
123
100
AcDbEntity
8
0
100
AcDbCircle
10
-4.9992454800407176
20
-102.41071428583606
30
-2.1895288505075267e-46
40
5.0000000000000036
210
-2.4639605711039604e-32
220
4.9309953448037675e-32
230
1
100
AcDbArc
50
36.884192946161868
51
323.11581227408573
0
LINE
5
124
100
AcDbEntity
8
0
100
AcDbLine
10
-0.99999410470782646
20
-99.409716378989401
30
-4.943909005673203e-32
11
0.99999417295494608
21
-97.911598354084518
31
0
0
ARC
5
125
100
AcDbEntity
8
0
100
AcDbCircle
10
4.9992882178370284
20
-94.910657311249679
30
0
40
4.9999999999999982
210
0
220
0
230
1
100
AcDbArc
50
-143.11662171893337
51
143.11659040562918
0
LINE
5
126
100
AcDbEntity
8
0
100
AcDbLine
10
0.99999581303060969
20
-91.909714082720072
30
3.4456914800273096e-32
11
-1.0000128325209765
21
-90.411737149962931
31
0
0
ARC
5
127
100
AcDbEntity
8
0
100
AcDbCircle
10
-4.9992454800407167
20
-87.410714285836065
30
0
40
5.0000000000000053
210
-1.4796185082400514e-32
220
-1.9717739290699013e-32
230
1
100
AcDbArc
50
36.884192946161846
51
323.11544949937655
0
LINE
5
128
100
AcDbEntity
8
0
100
AcDbLine
10
-0.99999410470782313
20
-84.409716378989401
30
1.1834655787960613e-31
11
0.99999417295494752
21
-82.911598354084518
31
-4.0059342843254506e-30
0
ARC
5
129
100
AcDbEntity
8
0
100
AcDbCircle
10
4.9992882178370301
20
-79.910657311249679
30
0
40
4.9999999999999982
210
-6.4083636509967018e-31
220
-4.8086290434925955e-31
230
1
100
AcDbArc
50
-143.11662171893337
51
143.11657735911666
0
LINE
5
130
100
AcDbEntity
8
0
100
AcDbLine
10
0.99999649635929555
20
-76.909713172062879
30
3.4456887852484245e-32
11
-1.0000123680380866
21
-75.411736530982168
31
0
0
ARC
5
131
100
AcDbEntity
8
0
100
AcDbCircle
10
-4.9992454800407158
20
-72.410714285836065
30
1.9721522630525295e-30
40
4.9999999999999902
210
-3.0117918830697206e-31
220
2.558895759868521e-31
230
1
100
AcDbArc
50
143.23971360639109
51
323.11545836732358
0
ENDSEC
0
SECTION
2
OBJECTS
0
DICTIONARY
5
C
100
AcDbDictionary
3
ACAD_GROUP
350
D
3
ACAD_MLINESTYLE
350
17
0
DICTIONARY
5
D
100
AcDbDictionary
0
DICTIONARY
5
1A
330
C
100
AcDbDictionary
0
DICTIONARY
5
17
100
AcDbDictionary
0
ENDSEC
0
EOF
