0
SECTION
2
HEADER
9
$INSUNITS
70
4
9
$ACADVER
1
AC1014
9
$HANDSEED
5
FFFF
0
ENDSEC
0
SECTION
2
TABLES
0
TABLE
2
VPORT
5
8
100
AcDbSymbolTable
0
ENDTAB
0
TABLE
2
LTYPE
5
5
100
AcDbSymbolTable
0
LTYPE
5
14
100
AcDbSymbolTableRecord
100
AcDbLinetypeTableRecord
2
BYBLOCK
70
0
0
LTYPE
5
15
100
AcDbSymbolTableRecord
100
AcDbLinetypeTableRecord
2
BYLAYER
70
0
0
ENDTAB
0
TABLE
2
LAYER
5
2
100
AcDbSymbolTable
70
2
0
LAYER
5
50
100
AcDbSymbolTableRecord
100
AcDbLayerTableRecord
2
0
70
0
6
CONTINUOUS
0
ENDTAB
0
TABLE
2
STYLE
5
3
100
AcDbSymbolTable
70
1
0
STYLE
5
11
100
AcDbSymbolTableRecord
100
AcDbTextStyleTableRecord
2
STANDARD
70
0
0
ENDTAB
0
TABLE
2
VIEW
5
6
100
AcDbSymbolTable
70
0
0
ENDTAB
0
TABLE
2
UCS
5
7
100
AcDbSymbolTable
70
0
0
ENDTAB
0
TABLE
2
APPID
5
9
100
AcDbSymbolTable
70
2
0
APPID
5
12
100
AcDbSymbolTableRecord
100
AcDbRegAppTableRecord
2
ACAD
70
0
0
ENDTAB
0
TABLE
2
DIMSTYLE
5
A
100
AcDbSymbolTable
70
1
0
ENDTAB
0
TABLE
2
BLOCK_RECORD
5
1
100
AcDbSymbolTable
70
1
0
BLOCK_RECORD
5
1F
100
AcDbSymbolTableRecord
100
AcDbBlockTableRecord
2
*MODEL_SPACE
0
BLOCK_RECORD
5
1B
100
AcDbSymbolTableRecord
100
AcDbBlockTableRecord
2
*PAPER_SPACE
0
ENDTAB
0
ENDSEC
0
SECTION
2
BLOCKS
0
BLOCK
5
20
100
AcDbEntity
100
AcDbBlockBegin
2
*MODEL_SPACE
0
ENDBLK
5
21
100
AcDbEntity
100
AcDbBlockEnd
0
BLOCK
5
1C
100
AcDbEntity
100
AcDbBlockBegin
2
*PAPER_SPACE
0
ENDBLK
5
1D
100
AcDbEntity
100
AcDbBlockEnd
0
ENDSEC
0
SECTION
2
ENTITIES
0
LWPOLYLINE
5
100
100
AcDbEntity
8
0
100
AcDbPolyline
90
32
70
1
43
0.0
10
8.216585138717841
20
-128.73805858664409
42
-0.99999999999999989
10
-8.2165851387178428
20
128.73805858664409
42
1.1210585094516405
10
-0.99999444637323853
20
121.90971590403579
10
0.99999383128539232
20
120.41171182830888
42
-2.9987531940113179
10
0.99999410470781147
20
114.4097163789894
10
-0.99999417295495774
20
112.91159835408452
42
2.9988013297081513
10
-1.0000214146239816
20
106.90967996433118
10
0.99999383128538955
20
105.41171182830888
42
-2.9987531940113201
10
0.99999410470781147
20
99.409716378989401
10
-0.99999417295495774
20
97.911598354084518
42
2.9988226423426831
10
-0.99999581303062079
20
91.909714082720072
10
1.0000128325209667
20
90.411737149962931
42
-2.9987373768925787
10
0.99999410470781147
20
84.409716378989401
10
-0.9999941729549594
20
82.911598354084518
42
2.9988220734833337
10
-0.99999649635930499
20
76.909713172062879
10
1.0000123680381032
20
75.411736530982182
42
-0.9989162559454372
10
9.0049773885592224
20
69.418372079958445
42
0.99999999999999989
10
-9.0049773885592561
20
-69.418372079958445
42
0.99891625594546263
10
-1.0000123680380866
20
-75.411736530982168
10
0.99999649635929444
20
-76.909713172062879
42
-2.9988220734833337
10
0.99999417295494752
20
-82.911598354084518
10
-0.99999410470782202
20
-84.409716378989401
42
2.9987373768925787
10
-1.0000128325209765
20
-90.411737149962931
10
0.99999581303060858
20
-91.909714082720072
42
-2.9988226423426831
10
0.99999417295494608
20
-97.911598354084518
10
-0.99999410470782646
20
-99.409716378989401
42
2.9987531940113179
10
-0.9999938312854062
20
-105.41171182830888
10
1.0000214146239672
20
-106.90967996433118
42
-2.9988013297081513
10
0.99999417295494331
20
-112.91159835408452
10
-0.99999410470782701
20
-114.4097163789894
42
2.9987531940113179
10
-0.99999383128540786
20
-120.41171182830888
10
0.99999444637322632
20
-121.90971590403581
42
-1.1210585094516428
0
ENDSEC
0
SECTION
2
OBJECTS
0
DICTIONARY
5
C
100
AcDbDictionary
3
ACAD_GROUP
350
D
3
ACAD_MLINESTYLE
350
17
0
DICTIONARY
5
D
100
AcDbDictionary
0
DICTIONARY
5
1A
330
C
100
AcDbDictionary
0
DICTIONARY
5
17
100
AcDbDictionary
0
ENDSEC
0
EOF
