0
SECTION
2
HEADER
9
$INSUNITS
70
4
9
$ACADVER
1
AC1014
9
$HANDSEED
5
FFFF
0
ENDSEC
0
SECTION
2
TABLES
0
TABLE
2
VPORT
5
8
100
AcDbSymbolTable
0
ENDTAB
0
TABLE
2
LTYPE
5
5
100
AcDbSymbolTable
0
LTYPE
5
14
100
AcDbSymbolTableRecord
100
AcDbLinetypeTableRecord
2
BYBLOCK
70
0
0
LTYPE
5
15
100
AcDbSymbolTableRecord
100
AcDbLinetypeTableRecord
2
BYLAYER
70
0
0
ENDTAB
0
TABLE
2
LAYER
5
2
100
AcDbSymbolTable
70
2
0
LAYER
5
50
100
AcDbSymbolTableRecord
100
AcDbLayerTableRecord
2
0
70
0
6
CONTINUOUS
0
ENDTAB
0
TABLE
2
STYLE
5
3
100
AcDbSymbolTable
70
1
0
STYLE
5
11
100
AcDbSymbolTableRecord
100
AcDbTextStyleTableRecord
2
STANDARD
70
0
0
ENDTAB
0
TABLE
2
VIEW
5
6
100
AcDbSymbolTable
70
0
0
ENDTAB
0
TABLE
2
UCS
5
7
100
AcDbSymbolTable
70
0
0
ENDTAB
0
TABLE
2
APPID
5
9
100
AcDbSymbolTable
70
2
0
APPID
5
12
100
AcDbSymbolTableRecord
100
AcDbRegAppTableRecord
2
ACAD
70
0
0
ENDTAB
0
TABLE
2
DIMSTYLE
5
A
100
AcDbSymbolTable
70
1
0
ENDTAB
0
TABLE
2
BLOCK_RECORD
5
1
100
AcDbSymbolTable
70
1
0
BLOCK_RECORD
5
1F
100
AcDbSymbolTableRecord
100
AcDbBlockTableRecord
2
*MODEL_SPACE
0
BLOCK_RECORD
5
1B
100
AcDbSymbolTableRecord
100
AcDbBlockTableRecord
2
*PAPER_SPACE
0
ENDTAB
0
ENDSEC
0
SECTION
2
BLOCKS
0
BLOCK
5
20
100
AcDbEntity
100
AcDbBlockBegin
2
*MODEL_SPACE
0
ENDBLK
5
21
100
AcDbEntity
100
AcDbBlockEnd
0
BLOCK
5
1C
100
AcDbEntity
100
AcDbBlockBegin
2
*PAPER_SPACE
0
ENDBLK
5
1D
100
AcDbEntity
100
AcDbBlockEnd
0
ENDSEC
0
SECTION
2
ENTITIES
0
ARC
5
100
100
AcDbEntity
8
0
100
AcDbCircle
10
-4.999245480040722
20
-132.41071428583606
30
-7.3955709864469857e-31
40
5.0000000000000053
210
-2.31316627527116e-32
220
-8.5230577859968742e-33
230
1
100
AcDbArc
50
36.884192946161846
51
200.22674861775496
0
LINE
5
101
100
AcDbEntity
8
0
100
AcDbLine
10
-0.99999410470782812
20
-129.4097163789894
30
-6.2147008599147032e-31
11
0.9999941729549422
21
-127.91159835408452
31
-8.0118685686509011e-31
0
ARC
5
102
100
AcDbEntity
8
0
100
AcDbCircle
10
4.9992882178370248
20
-124.91065731124968
30
-7.3955709864469857e-31
40
4.9999999999999982
210
-9.8590210015333874e-33
220
-7.3978908361424547e-33
230
1
100
AcDbArc
50
-143.11662171893337
51
143.11661649866656
0
LINE
5
103
100
AcDbEntity
8
0
100
AcDbLine
10
0.99999444637322266
20
-121.90971590403579
30
-7.05100129948828e-31
11
-0.99999383128540786
21
-120.41171182830888
31
-7.3955709864469857e-31
0
ARC
5
104
100
AcDbEntity
8
0
100
AcDbCircle
10
-4.9992454800407184
20
-117.41071428583606
30
-7.3955709864469857e-31
40
5.0000000000000036
210
-3.4513893211030526e-32
220
-4.9217727370162262e-33
230
1
100
AcDbArc
50
36.884192946161868
51
323.11581227408573
0
LINE
5
105
100
AcDbEntity
8
0
100
AcDbLine
10
-0.99999410470782812
20
-114.4097163789894
30
-5.8675713407063159e-31
11
0.99999417295494319
21
-112.91159835408452
31
-8.0118685686509011e-31
0
ARC
5
106
100
AcDbEntity
8
0
100
AcDbCircle
10
4.9992882178370266
20
-109.91065731124968
30
-7.3955709864469857e-31
40
4.9999999999999991
210
-9.8590210015333874e-33
220
-7.397890836142452e-33
230
1
100
AcDbArc
50
-143.11662171893337
51
143.11610160767526
0
LINE
5
107
100
AcDbEntity
8
0
100
AcDbLine
10
1.000021414623971
20
-106.90967996433118
30
-7.3955709864469857e-31
11
-0.99999383128540631
21
-105.41171182830888
31
-7.3955709864469857e-31
0
ARC
5
108
100
AcDbEntity
8
0
100
AcDbCircle
10
-4.9992454800407176
20
-102.41071428583606
30
-7.3955709864469857e-31
40
5.0000000000000036
210
-3.451389321103052e-32
220
-4.9217727370162275e-33
230
1
100
AcDbArc
50
36.884192946161868
51
323.11581227408573
0
LINE
5
109
100
AcDbEntity
8
0
100
AcDbLine
10
-0.99999410470782646
20
-99.409716378989401
30
-5.8675713407063159e-31
11
0.99999417295494608
21
-97.911598354084518
31
-7.3955709864469857e-31
0
ARC
5
110
100
AcDbEntity
8
0
100
AcDbCircle
10
4.9992882178370284
20
-94.910657311249679
30
-7.3955709864469857e-31
40
4.9999999999999982
210
0
220
0
230
1
100
AcDbArc
50
-143.11662171893337
51
143.11659040562918
0
LINE
5
111
100
AcDbEntity
8
0
100
AcDbLine
10
0.99999581303060969
20
-91.909714082720072
30
-7.0510018384442547e-31
11
-1.0000128325209765
21
-90.411737149962931
31
-7.3955709864469857e-31
0
ARC
5
112
100
AcDbEntity
8
0
100
AcDbCircle
10
-4.9992454800407167
20
-87.410714285836065
30
-7.3955709864469857e-31
40
5.0000000000000053
210
-1.9717739290699002e-32
220
1.4796185082400509e-32
230
1
100
AcDbArc
50
36.884192946161846
51
323.11544949937655
0
LINE
5
113
100
AcDbEntity
8
0
100
AcDbLine
10
-0.99999410470782313
20
-84.409716378989401
30
-7.0510422312951476e-31
11
0.99999417295494752
21
-82.911598354084518
31
-7.3955709864469857e-31
0
ARC
5
114
100
AcDbEntity
8
0
100
AcDbCircle
10
4.9992882178370301
20
-79.910657311249679
30
1.2325951644078309e-30
40
4.9999999999999982
210
-3.154886720490684e-31
220
-2.3673250675655855e-31
230
1
100
AcDbArc
50
-143.11662171893337
51
143.11657735911666
0
LINE
5
115
100
AcDbEntity
8
0
100
AcDbLine
10
0.99999649635929555
20
-76.909713172062879
30
1.2670520522603153e-30
11
-1.0000123680380866
21
-75.411736530982168
31
-7.3955709864469857e-31
0
ARC
5
116
100
AcDbEntity
8
0
100
AcDbCircle
10
-4.9992454800407158
20
-72.410714285836065
30
-7.3955709864469857e-31
40
5.000000000000008
210
-1.4796182030589709e-32
220
-1.9717741580776472e-32
230
1
100
AcDbArc
50
143.23971360638964
51
323.11545836732358
0
ARC
5
117
100
AcDbEntity
8
0
100
AcDbCircle
10
4.4408920985006262e-15
20
0
30
-2.1895288505075267e-46
40
70.000000000000014
210
-9.2830511489842767e-33
220
-2.3654250528752925e-32
230
1
100
AcDbArc
50
82.608843400068309
51
262.60884340006834
0
ARC
5
118
100
AcDbEntity
8
0
100
AcDbCircle
10
4.999245480040706
20
72.410714285836065
30
1.2325951644078309e-30
40
5.0000000000000311
210
-7.8999132485663872e-32
220
5.9013544531492472e-32
230
1
100
AcDbArc
50
-36.760286393609988
51
143.11545836732361
0
LINE
5
119
100
AcDbEntity
8
0
100
AcDbLine
10
1.0000123680380768
20
75.411736530982168
30
1.3558543909978514e-30
11
-0.99999649635930499
21
76.909713172062879
31
-7.3955709864469857e-31
0
ARC
5
120
100
AcDbEntity
8
0
100
AcDbCircle
10
-4.999288217837039
20
79.910657311249679
30
1.2325951644078309e-30
40
4.9999999999999956
210
0
220
-0
230
1
100
AcDbArc
50
36.883378281066655
51
323.11657735911666
0
LINE
5
121
100
AcDbEntity
8
0
100
AcDbLine
10
-0.9999941729549594
20
82.911598354084518
30
1.2325951644078309e-30
11
0.99999410470781147
21
84.409716378989401
31
-6.7792734042430702e-31
0
ARC
5
122
100
AcDbEntity
8
0
100
AcDbCircle
10
4.999245480040706
20
87.410714285836065
30
-7.3955709864469857e-31
40
5.0000000000000053
210
-4.9371462205354614e-33
220
2.7115862642701148e-32
230
1
100
AcDbArc
50
-143.11580705383818
51
143.11544949937655
0
LINE
5
123
100
AcDbEntity
8
0
100
AcDbLine
10
1.0000128325209665
20
90.411737149962931
30
-8.5790365652430474e-31
11
-0.99999581303062079
21
91.909714082720072
31
-7.3955709864469857e-31
0
ARC
5
124
100
AcDbEntity
8
0
100
AcDbCircle
10
-4.9992882178370408
20
94.910657311249679
30
-7.3955709864469857e-31
40
4.9999999999999982
210
-5.4231860282330913e-32
220
9.8735509803146373e-33
230
1
100
AcDbArc
50
36.883378281066641
51
323.11659040562915
0
LINE
5
125
100
AcDbEntity
8
0
100
AcDbLine
10
-0.99999417295495885
20
97.911598354084518
30
-5.5229788715004389e-31
11
0.99999410470781147
21
99.409716378989401
31
-6.7792734042430702e-31
0
ARC
5
126
100
AcDbEntity
8
0
100
AcDbCircle
10
4.999245480040706
20
102.41071428583606
30
-7.3955709864469857e-31
40
5.0000000000000053
210
-4.9371462205354614e-33
220
2.7115862642701148e-32
230
1
100
AcDbArc
50
-143.11580705383818
51
143.11581227408578
0
LINE
5
127
100
AcDbEntity
8
0
100
AcDbLine
10
0.99999383128539043
20
105.41171182830888
30
-8.5790343837965379e-31
11
-1.0000214146239816
21
106.90967996433118
31
3.2047474274603605e-30
0
ARC
5
128
100
AcDbEntity
8
0
100
AcDbCircle
10
-4.9992882178370399
20
109.91065731124968
30
-7.3955709864469866e-31
40
4.9999999999999982
210
-6.9027736713010918e-32
220
-9.843894052064038e-33
230
1
100
AcDbArc
50
36.883378281066641
51
323.11610160767532
0
LINE
5
129
100
AcDbEntity
8
0
100
AcDbLine
10
-0.99999417295495774
20
112.91159835408452
30
-4.33953936594509e-31
11
0.99999410470781147
21
114.4097163789894
31
-6.7792734042430702e-31
0
ARC
5
130
100
AcDbEntity
8
0
100
AcDbCircle
10
4.999245480040706
20
117.41071428583606
30
-7.3955709864469857e-31
40
5.0000000000000053
210
-4.9371462205354614e-33
220
2.7115862642701148e-32
230
1
100
AcDbArc
50
-143.11580705383818
51
143.11581227408576
0
LINE
5
131
100
AcDbEntity
8
0
100
AcDbLine
10
0.99999383128539532
20
120.41171182830888
30
-8.5790343837965379e-31
11
-0.99999444637323853
21
121.90971590403579
31
-7.3955709864469857e-31
0
ARC
5
132
100
AcDbEntity
8
0
100
AcDbCircle
10
-4.999288217837039
20
124.91065731124968
30
-7.3955709864469866e-31
40
4.9999999999999982
210
4.9222571861983147e-33
220
-3.4513824123822823e-32
230
1
100
AcDbArc
50
36.883378281066641
51
323.11661649866647
0
LINE
5
133
100
AcDbEntity
8
0
100
AcDbLine
10
-0.99999417295495663
20
127.91159835408452
30
-6.556687011384763e-31
11
0.99999410470781258
21
129.4097163789894
31
-6.7792734042430702e-31
0
ARC
5
134
100
AcDbEntity
8
0
100
AcDbCircle
10
4.999245480040706
20
132.41071428583606
30
-7.3955709864469857e-31
40
5.0000000000000053
210
-4.9371462205354642e-33
220
2.7115862642701153e-32
230
1
100
AcDbArc
50
-143.11580705383815
51
20.226748617754971
0
ARC
5
135
100
AcDbEntity
8
0
100
AcDbCircle
10
4.4408920985006262e-15
20
0
30
-2.1895288505075267e-46
40
134.489
210
4.4058259415178109e-34
220
6.0984488708710358e-33
230
1
100
AcDbArc
50
85.867844017173127
51
265.86784401717307
0
ENDSEC
0
SECTION
2
OBJECTS
0
DICTIONARY
5
C
100
AcDbDictionary
3
ACAD_GROUP
350
D
3
ACAD_MLINESTYLE
350
17
0
DICTIONARY
5
D
100
AcDbDictionary
0
DICTIONARY
5
1A
330
C
100
AcDbDictionary
0
DICTIONARY
5
17
100
AcDbDictionary
0
ENDSEC
0
EOF
