solid ASCII
  facet normal 0.000000e+00 -8.320503e-01 -5.547002e-01
    outer loop
      vertex   1.580278e+01 4.000000e+00 1.819722e+01
      vertex   2.769722e+01 4.000000e+00 1.819722e+01
      vertex   1.050000e+01 4.648162e-01 2.350000e+01
    endloop
  endfacet
  facet normal 1.642242e-17 -8.320503e-01 -5.547002e-01
    outer loop
      vertex   1.050000e+01 4.648162e-01 2.350000e+01
      vertex   2.769722e+01 4.000000e+00 1.819722e+01
      vertex   3.300000e+01 4.648162e-01 2.350000e+01
    endloop
  endfacet
  facet normal 5.547002e-01 -8.320503e-01 3.284485e-17
    outer loop
      vertex   1.050000e+01 4.648162e-01 2.350000e+01
      vertex   1.050000e+01 4.648162e-01 1.000000e+00
      vertex   1.580278e+01 4.000000e+00 1.819722e+01
    endloop
  endfacet
  facet normal 5.547002e-01 -8.320503e-01 0.000000e+00
    outer loop
      vertex   1.580278e+01 4.000000e+00 1.819722e+01
      vertex   1.050000e+01 4.648162e-01 1.000000e+00
      vertex   1.580278e+01 4.000000e+00 6.302776e+00
    endloop
  endfacet
  facet normal -5.547002e-01 -8.320503e-01 -0.000000e+00
    outer loop
      vertex   2.769722e+01 4.000000e+00 1.819722e+01
      vertex   2.769722e+01 4.000000e+00 6.302776e+00
      vertex   3.300000e+01 4.648162e-01 2.350000e+01
    endloop
  endfacet
  facet normal -5.547002e-01 -8.320503e-01 3.079205e-17
    outer loop
      vertex   3.300000e+01 4.648162e-01 2.350000e+01
      vertex   2.769722e+01 4.000000e+00 6.302776e+00
      vertex   3.300000e+01 4.648162e-01 1.000000e+00
    endloop
  endfacet
  facet normal 0.000000e+00 -8.320503e-01 5.547002e-01
    outer loop
      vertex   2.769722e+01 4.000000e+00 6.302776e+00
      vertex   1.580278e+01 4.000000e+00 6.302776e+00
      vertex   3.300000e+01 4.648162e-01 1.000000e+00
    endloop
  endfacet
  facet normal 7.526945e-18 -8.320503e-01 5.547002e-01
    outer loop
      vertex   3.300000e+01 4.648162e-01 1.000000e+00
      vertex   1.580278e+01 4.000000e+00 6.302776e+00
      vertex   1.050000e+01 4.648162e-01 1.000000e+00
    endloop
  endfacet
  facet normal -1.000000e+00 -0.000000e+00 0.000000e+00
    outer loop
      vertex   3.300000e+01 4.648162e-01 2.350000e+01
      vertex   3.300000e+01 4.648162e-01 1.000000e+00
      vertex   3.300000e+01 0.000000e+00 2.350000e+01
    endloop
  endfacet
  facet normal -1.000000e+00 0.000000e+00 0.000000e+00
    outer loop
      vertex   3.300000e+01 0.000000e+00 2.350000e+01
      vertex   3.300000e+01 4.648162e-01 1.000000e+00
      vertex   3.300000e+01 0.000000e+00 1.000000e+00
    endloop
  endfacet
  facet normal 0.000000e+00 0.000000e+00 -1.000000e+00
    outer loop
      vertex   1.050000e+01 4.648162e-01 2.350000e+01
      vertex   3.300000e+01 4.648162e-01 2.350000e+01
      vertex   1.050000e+01 0.000000e+00 2.350000e+01
    endloop
  endfacet
  facet normal 0.000000e+00 0.000000e+00 -1.000000e+00
    outer loop
      vertex   1.050000e+01 0.000000e+00 2.350000e+01
      vertex   3.300000e+01 4.648162e-01 2.350000e+01
      vertex   3.300000e+01 0.000000e+00 2.350000e+01
    endloop
  endfacet
  facet normal 0.000000e+00 -1.000000e+00 0.000000e+00
    outer loop
      vertex   1.580278e+01 4.000000e+00 1.819722e+01
      vertex   1.580278e+01 4.000000e+00 6.302776e+00
      vertex   2.769722e+01 4.000000e+00 1.819722e+01
    endloop
  endfacet
  facet normal 0.000000e+00 -1.000000e+00 -0.000000e+00
    outer loop
      vertex   2.769722e+01 4.000000e+00 1.819722e+01
      vertex   1.580278e+01 4.000000e+00 6.302776e+00
      vertex   2.769722e+01 4.000000e+00 6.302776e+00
    endloop
  endfacet
  facet normal 1.000000e+00 0.000000e+00 -0.000000e+00
    outer loop
      vertex   1.050000e+01 4.648162e-01 1.000000e+00
      vertex   1.050000e+01 4.648162e-01 2.350000e+01
      vertex   1.050000e+01 0.000000e+00 1.000000e+00
    endloop
  endfacet
  facet normal 1.000000e+00 0.000000e+00 0.000000e+00
    outer loop
      vertex   1.050000e+01 0.000000e+00 1.000000e+00
      vertex   1.050000e+01 4.648162e-01 2.350000e+01
      vertex   1.050000e+01 0.000000e+00 2.350000e+01
    endloop
  endfacet
  facet normal -1.973730e-17 -1.433112e-15 1.000000e+00
    outer loop
      vertex   3.300000e+01 4.648162e-01 1.000000e+00
      vertex   1.050000e+01 4.648162e-01 1.000000e+00
      vertex   3.300000e+01 0.000000e+00 1.000000e+00
    endloop
  endfacet
  facet normal 0.000000e+00 -4.777041e-16 1.000000e+00
    outer loop
      vertex   3.300000e+01 0.000000e+00 1.000000e+00
      vertex   1.050000e+01 4.648162e-01 1.000000e+00
      vertex   1.050000e+01 0.000000e+00 1.000000e+00
    endloop
  endfacet
  facet normal 0.000000e+00 8.320503e-01 5.547002e-01
    outer loop
      vertex   2.800000e+01 5.000000e+00 1.850000e+01
      vertex   1.550000e+01 5.000000e+00 1.850000e+01
      vertex   3.400000e+01 1.000000e+00 2.450000e+01
    endloop
  endfacet
  facet normal 0.000000e+00 8.320503e-01 5.547002e-01
    outer loop
      vertex   3.400000e+01 1.000000e+00 2.450000e+01
      vertex   1.550000e+01 5.000000e+00 1.850000e+01
      vertex   9.500000e+00 1.000000e+00 2.450000e+01
    endloop
  endfacet
  facet normal -5.547002e-01 8.320503e-01 0.000000e+00
    outer loop
      vertex   9.500000e+00 1.000000e+00 0.000000e+00
      vertex   9.500000e+00 1.000000e+00 2.450000e+01
      vertex   1.550000e+01 5.000000e+00 6.000000e+00
    endloop
  endfacet
  facet normal -5.547002e-01 8.320503e-01 0.000000e+00
    outer loop
      vertex   1.550000e+01 5.000000e+00 6.000000e+00
      vertex   9.500000e+00 1.000000e+00 2.450000e+01
      vertex   1.550000e+01 5.000000e+00 1.850000e+01
    endloop
  endfacet
  facet normal 5.547002e-01 8.320503e-01 -0.000000e+00
    outer loop
      vertex   2.800000e+01 5.000000e+00 6.000000e+00
      vertex   2.800000e+01 5.000000e+00 1.850000e+01
      vertex   3.400000e+01 1.000000e+00 0.000000e+00
    endloop
  endfacet
  facet normal 5.547002e-01 8.320503e-01 -0.000000e+00
    outer loop
      vertex   3.400000e+01 1.000000e+00 0.000000e+00
      vertex   2.800000e+01 5.000000e+00 1.850000e+01
      vertex   3.400000e+01 1.000000e+00 2.450000e+01
    endloop
  endfacet
  facet normal 0.000000e+00 8.320503e-01 -5.547002e-01
    outer loop
      vertex   1.550000e+01 5.000000e+00 6.000000e+00
      vertex   2.800000e+01 5.000000e+00 6.000000e+00
      vertex   9.500000e+00 1.000000e+00 0.000000e+00
    endloop
  endfacet
  facet normal 0.000000e+00 8.320503e-01 -5.547002e-01
    outer loop
      vertex   9.500000e+00 1.000000e+00 0.000000e+00
      vertex   2.800000e+01 5.000000e+00 6.000000e+00
      vertex   3.400000e+01 1.000000e+00 0.000000e+00
    endloop
  endfacet
  facet normal 1.000000e+00 0.000000e+00 -0.000000e+00
    outer loop
      vertex   3.400000e+01 1.000000e+00 0.000000e+00
      vertex   3.400000e+01 1.000000e+00 2.450000e+01
      vertex   3.400000e+01 0.000000e+00 0.000000e+00
    endloop
  endfacet
  facet normal 1.000000e+00 0.000000e+00 0.000000e+00
    outer loop
      vertex   3.400000e+01 0.000000e+00 0.000000e+00
      vertex   3.400000e+01 1.000000e+00 2.450000e+01
      vertex   3.400000e+01 0.000000e+00 2.450000e+01
    endloop
  endfacet
  facet normal 0.000000e+00 0.000000e+00 1.000000e+00
    outer loop
      vertex   3.400000e+01 1.000000e+00 2.450000e+01
      vertex   9.500000e+00 1.000000e+00 2.450000e+01
      vertex   3.400000e+01 0.000000e+00 2.450000e+01
    endloop
  endfacet
  facet normal 0.000000e+00 0.000000e+00 1.000000e+00
    outer loop
      vertex   3.400000e+01 0.000000e+00 2.450000e+01
      vertex   9.500000e+00 1.000000e+00 2.450000e+01
      vertex   9.500000e+00 0.000000e+00 2.450000e+01
    endloop
  endfacet
  facet normal 0.000000e+00 1.000000e+00 0.000000e+00
    outer loop
      vertex   2.800000e+01 5.000000e+00 1.850000e+01
      vertex   2.800000e+01 5.000000e+00 6.000000e+00
      vertex   1.550000e+01 5.000000e+00 1.850000e+01
    endloop
  endfacet
  facet normal 0.000000e+00 1.000000e+00 0.000000e+00
    outer loop
      vertex   1.550000e+01 5.000000e+00 1.850000e+01
      vertex   2.800000e+01 5.000000e+00 6.000000e+00
      vertex   1.550000e+01 5.000000e+00 6.000000e+00
    endloop
  endfacet
  facet normal 0.000000e+00 -1.000000e+00 0.000000e+00
    outer loop
      vertex   3.300000e+01 0.000000e+00 1.000000e+00
      vertex   3.400000e+01 0.000000e+00 2.450000e+01
      vertex   3.300000e+01 0.000000e+00 2.350000e+01
    endloop
  endfacet
  facet normal 0.000000e+00 -1.000000e+00 0.000000e+00
    outer loop
      vertex   3.300000e+01 0.000000e+00 2.350000e+01
      vertex   3.400000e+01 0.000000e+00 2.450000e+01
      vertex   9.500000e+00 0.000000e+00 2.450000e+01
    endloop
  endfacet
  facet normal 0.000000e+00 -1.000000e+00 0.000000e+00
    outer loop
      vertex   3.300000e+01 0.000000e+00 2.350000e+01
      vertex   9.500000e+00 0.000000e+00 2.450000e+01
      vertex   1.050000e+01 0.000000e+00 2.350000e+01
    endloop
  endfacet
  facet normal -0.000000e+00 -1.000000e+00 0.000000e+00
    outer loop
      vertex   1.050000e+01 0.000000e+00 2.350000e+01
      vertex   9.500000e+00 0.000000e+00 2.450000e+01
      vertex   9.500000e+00 0.000000e+00 0.000000e+00
    endloop
  endfacet
  facet normal 0.000000e+00 -1.000000e+00 -0.000000e+00
    outer loop
      vertex   1.050000e+01 0.000000e+00 2.350000e+01
      vertex   9.500000e+00 0.000000e+00 0.000000e+00
      vertex   1.050000e+01 0.000000e+00 1.000000e+00
    endloop
  endfacet
  facet normal 0.000000e+00 -1.000000e+00 -0.000000e+00
    outer loop
      vertex   1.050000e+01 0.000000e+00 1.000000e+00
      vertex   9.500000e+00 0.000000e+00 0.000000e+00
      vertex   3.300000e+01 0.000000e+00 1.000000e+00
    endloop
  endfacet
  facet normal 0.000000e+00 -1.000000e+00 -0.000000e+00
    outer loop
      vertex   3.300000e+01 0.000000e+00 1.000000e+00
      vertex   9.500000e+00 0.000000e+00 0.000000e+00
      vertex   3.400000e+01 0.000000e+00 0.000000e+00
    endloop
  endfacet
  facet normal 0.000000e+00 -1.000000e+00 0.000000e+00
    outer loop
      vertex   3.300000e+01 0.000000e+00 1.000000e+00
      vertex   3.400000e+01 0.000000e+00 0.000000e+00
      vertex   3.400000e+01 0.000000e+00 2.450000e+01
    endloop
  endfacet
  facet normal -1.000000e+00 -0.000000e+00 -0.000000e+00
    outer loop
      vertex   9.500000e+00 1.000000e+00 2.450000e+01
      vertex   9.500000e+00 1.000000e+00 0.000000e+00
      vertex   9.500000e+00 0.000000e+00 2.450000e+01
    endloop
  endfacet
  facet normal -1.000000e+00 0.000000e+00 0.000000e+00
    outer loop
      vertex   9.500000e+00 0.000000e+00 2.450000e+01
      vertex   9.500000e+00 1.000000e+00 0.000000e+00
      vertex   9.500000e+00 0.000000e+00 0.000000e+00
    endloop
  endfacet
  facet normal 0.000000e+00 0.000000e+00 -1.000000e+00
    outer loop
      vertex   9.500000e+00 1.000000e+00 0.000000e+00
      vertex   3.400000e+01 1.000000e+00 0.000000e+00
      vertex   9.500000e+00 0.000000e+00 0.000000e+00
    endloop
  endfacet
  facet normal 0.000000e+00 0.000000e+00 -1.000000e+00
    outer loop
      vertex   9.500000e+00 0.000000e+00 0.000000e+00
      vertex   3.400000e+01 1.000000e+00 0.000000e+00
      vertex   3.400000e+01 0.000000e+00 0.000000e+00
    endloop
  endfacet
endsolid
