solid ASCII
  facet normal -4.694872e-16 -1.000000e+00 -8.180384e-16
    outer loop
      vertex   6.055165e+01 1.908779e+02 1.036026e+02
      vertex   5.890845e+01 1.908779e+02 1.045457e+02
      vertex   4.904179e+01 1.908779e+02 7.546458e+01
    endloop
  endfacet
  facet normal 7.214803e-16 -1.000000e+00 -1.222111e-15
    outer loop
      vertex   4.904179e+01 1.908779e+02 7.546458e+01
      vertex   5.890845e+01 1.908779e+02 1.045457e+02
      vertex   3.927230e+01 1.908779e+02 6.969710e+01
    endloop
  endfacet
  facet normal -9.841716e-15 -1.000000e+00 1.667082e-14
    outer loop
      vertex   4.904179e+01 1.908779e+02 7.546458e+01
      vertex   3.927230e+01 1.908779e+02 6.969710e+01
      vertex   4.073222e+01 1.908779e+02 6.885410e+01
    endloop
  endfacet
  facet normal 1.478757e-15 -1.000000e+00 2.440649e-15
    outer loop
      vertex   4.073222e+01 1.908779e+02 6.885410e+01
      vertex   4.217404e+01 1.908779e+02 6.798051e+01
      vertex   4.904179e+01 1.908779e+02 7.546458e+01
    endloop
  endfacet
  facet normal 1.523762e-15 -1.000000e+00 2.399350e-15
    outer loop
      vertex   4.904179e+01 1.908779e+02 7.546458e+01
      vertex   4.217404e+01 1.908779e+02 6.798051e+01
      vertex   4.359714e+01 1.908779e+02 6.707674e+01
    endloop
  endfacet
  facet normal 1.569861e-15 -1.000000e+00 2.369426e-15
    outer loop
      vertex   4.904179e+01 1.908779e+02 7.546458e+01
      vertex   4.359714e+01 1.908779e+02 6.707674e+01
      vertex   5.037219e+01 1.908779e+02 7.458312e+01
    endloop
  endfacet
  facet normal 1.573566e-15 -1.000000e+00 2.366083e-15
    outer loop
      vertex   5.037219e+01 1.908779e+02 7.458312e+01
      vertex   4.359714e+01 1.908779e+02 6.707674e+01
      vertex   4.500088e+01 1.908779e+02 6.614318e+01
    endloop
  endfacet
  facet normal 1.611936e-15 -1.000000e+00 2.341664e-15
    outer loop
      vertex   5.037219e+01 1.908779e+02 7.458312e+01
      vertex   4.500088e+01 1.908779e+02 6.614318e+01
      vertex   5.168675e+01 1.908779e+02 7.367822e+01
    endloop
  endfacet
  facet normal 1.622807e-15 -1.000000e+00 2.332017e-15
    outer loop
      vertex   5.168675e+01 1.908779e+02 7.367822e+01
      vertex   4.500088e+01 1.908779e+02 6.614318e+01
      vertex   4.638464e+01 1.908779e+02 6.518025e+01
    endloop
  endfacet
  facet normal 1.653371e-15 -1.000000e+00 2.312948e-15
    outer loop
      vertex   5.168675e+01 1.908779e+02 7.367822e+01
      vertex   4.638464e+01 1.908779e+02 6.518025e+01
      vertex   5.298506e+01 1.908779e+02 7.275015e+01
    endloop
  endfacet
  facet normal 1.671480e-15 -1.000000e+00 2.297158e-15
    outer loop
      vertex   5.298506e+01 1.908779e+02 7.275015e+01
      vertex   4.638464e+01 1.908779e+02 6.518025e+01
      vertex   4.774780e+01 1.908779e+02 6.418838e+01
    endloop
  endfacet
  facet normal 1.694144e-15 -1.000000e+00 2.283295e-15
    outer loop
      vertex   5.298506e+01 1.908779e+02 7.275015e+01
      vertex   4.774780e+01 1.908779e+02 6.418838e+01
      vertex   5.426670e+01 1.908779e+02 7.179920e+01
    endloop
  endfacet
  facet normal 1.719577e-15 -1.000000e+00 2.261510e-15
    outer loop
      vertex   5.426670e+01 1.908779e+02 7.179920e+01
      vertex   4.774780e+01 1.908779e+02 6.418838e+01
      vertex   4.908975e+01 1.908779e+02 6.316800e+01
    endloop
  endfacet
  facet normal 1.734230e-15 -1.000000e+00 2.252722e-15
    outer loop
      vertex   5.426670e+01 1.908779e+02 7.179920e+01
      vertex   4.908975e+01 1.908779e+02 6.316800e+01
      vertex   5.553129e+01 1.908779e+02 7.082567e+01
    endloop
  endfacet
  facet normal 1.767091e-15 -1.000000e+00 2.225079e-15
    outer loop
      vertex   5.553129e+01 1.908779e+02 7.082567e+01
      vertex   4.908975e+01 1.908779e+02 6.316800e+01
      vertex   5.040991e+01 1.908779e+02 6.211957e+01
    endloop
  endfacet
  facet normal 1.819370e-15 -1.000000e+00 2.194326e-15
    outer loop
      vertex   5.553129e+01 1.908779e+02 7.082567e+01
      vertex   5.040991e+01 1.908779e+02 6.211957e+01
      vertex   5.170768e+01 1.908779e+02 6.104356e+01
    endloop
  endfacet
  facet normal 1.867255e-15 -1.000000e+00 2.175609e-15
    outer loop
      vertex   5.553129e+01 1.908779e+02 7.082567e+01
      vertex   5.170768e+01 1.908779e+02 6.104356e+01
      vertex   6.158454e+01 1.908779e+02 6.563036e+01
    endloop
  endfacet
  facet normal 1.872615e-15 -1.000000e+00 2.164066e-15
    outer loop
      vertex   6.158454e+01 1.908779e+02 6.563036e+01
      vertex   5.170768e+01 1.908779e+02 6.104356e+01
      vertex   5.298249e+01 1.908779e+02 5.994044e+01
    endloop
  endfacet
  facet normal 1.906969e-15 -1.000000e+00 2.112130e-15
    outer loop
      vertex   6.158454e+01 1.908779e+02 6.563036e+01
      vertex   5.298249e+01 1.908779e+02 5.994044e+01
      vertex   5.423377e+01 1.908779e+02 5.881070e+01
    endloop
  endfacet
  facet normal 1.947844e-15 -1.000000e+00 2.068072e-15
    outer loop
      vertex   5.423377e+01 1.908779e+02 5.881070e+01
      vertex   5.546097e+01 1.908779e+02 5.765485e+01
      vertex   6.158454e+01 1.908779e+02 6.563036e+01
    endloop
  endfacet
  facet normal 1.963716e-15 -1.000000e+00 2.055886e-15
    outer loop
      vertex   6.158454e+01 1.908779e+02 6.563036e+01
      vertex   5.546097e+01 1.908779e+02 5.765485e+01
      vertex   6.273859e+01 1.908779e+02 6.452805e+01
    endloop
  endfacet
  facet normal 1.991200e-15 -1.000000e+00 2.026784e-15
    outer loop
      vertex   6.273859e+01 1.908779e+02 6.452805e+01
      vertex   5.546097e+01 1.908779e+02 5.765485e+01
      vertex   5.666354e+01 1.908779e+02 5.647339e+01
    endloop
  endfacet
  facet normal 1.999583e-15 -1.000000e+00 2.020462e-15
    outer loop
      vertex   6.273859e+01 1.908779e+02 6.452805e+01
      vertex   5.666354e+01 1.908779e+02 5.647339e+01
      vertex   6.387291e+01 1.908779e+02 6.340545e+01
    endloop
  endfacet
  facet normal 2.033886e-15 -1.000000e+00 1.984786e-15
    outer loop
      vertex   6.387291e+01 1.908779e+02 6.340545e+01
      vertex   5.666354e+01 1.908779e+02 5.647339e+01
      vertex   5.784094e+01 1.908779e+02 5.526685e+01
    endloop
  endfacet
  facet normal 2.034630e-15 -1.000000e+00 1.984235e-15
    outer loop
      vertex   6.387291e+01 1.908779e+02 6.340545e+01
      vertex   5.784094e+01 1.908779e+02 5.526685e+01
      vertex   6.498715e+01 1.908779e+02 6.226291e+01
    endloop
  endfacet
  facet normal 2.069890e-15 -1.000000e+00 1.948218e-15
    outer loop
      vertex   6.498715e+01 1.908779e+02 6.226291e+01
      vertex   5.784094e+01 1.908779e+02 5.526685e+01
      vertex   6.608095e+01 1.908779e+02 6.110080e+01
    endloop
  endfacet
  facet normal 2.074895e-15 -1.000000e+00 1.941149e-15
    outer loop
      vertex   6.608095e+01 1.908779e+02 6.110080e+01
      vertex   5.784094e+01 1.908779e+02 5.526685e+01
      vertex   5.899267e+01 1.908779e+02 5.403578e+01
    endloop
  endfacet
  facet normal 2.104438e-15 -1.000000e+00 1.911508e-15
    outer loop
      vertex   6.608095e+01 1.908779e+02 6.110080e+01
      vertex   5.899267e+01 1.908779e+02 5.403578e+01
      vertex   6.715398e+01 1.908779e+02 5.991947e+01
    endloop
  endfacet
  facet normal 2.115072e-15 -1.000000e+00 1.896759e-15
    outer loop
      vertex   6.715398e+01 1.908779e+02 5.991947e+01
      vertex   5.899267e+01 1.908779e+02 5.403578e+01
      vertex   6.011819e+01 1.908779e+02 5.278071e+01
    endloop
  endfacet
  facet normal 2.157855e-15 -1.000000e+00 1.854593e-15
    outer loop
      vertex   6.715398e+01 1.908779e+02 5.991947e+01
      vertex   6.011819e+01 1.908779e+02 5.278071e+01
      vertex   6.121702e+01 1.908779e+02 5.150220e+01
    endloop
  endfacet
  facet normal 2.208658e-15 -1.000000e+00 1.818760e-15
    outer loop
      vertex   6.121702e+01 1.908779e+02 5.150220e+01
      vertex   6.228867e+01 1.908779e+02 5.020082e+01
      vertex   6.715398e+01 1.908779e+02 5.991947e+01
    endloop
  endfacet
  facet normal 2.221818e-15 -1.000000e+00 1.812172e-15
    outer loop
      vertex   6.715398e+01 1.908779e+02 5.991947e+01
      vertex   6.228867e+01 1.908779e+02 5.020082e+01
      vertex   7.219587e+01 1.908779e+02 5.373785e+01
    endloop
  endfacet
  facet normal 0.000000e+00 -1.000000e+00 0.000000e+00
    outer loop
      vertex   6.715398e+01 1.908779e+02 5.991947e+01
      vertex   7.219587e+01 1.908779e+02 5.373785e+01
      vertex   9.231514e+01 1.908779e+02 7.666756e+01
    endloop
  endfacet
  facet normal 0.000000e+00 -1.000000e+00 -0.000000e+00
    outer loop
      vertex   9.231514e+01 1.908779e+02 7.666756e+01
      vertex   7.219587e+01 1.908779e+02 5.373785e+01
      vertex   9.366007e+01 1.908779e+02 7.501861e+01
    endloop
  endfacet
  facet normal 0.000000e+00 -1.000000e+00 -0.000000e+00
    outer loop
      vertex   9.366007e+01 1.908779e+02 7.501861e+01
      vertex   7.219587e+01 1.908779e+02 5.373785e+01
      vertex   9.497555e+01 1.908779e+02 7.334607e+01
    endloop
  endfacet
  facet normal 0.000000e+00 -1.000000e+00 -0.000000e+00
    outer loop
      vertex   9.497555e+01 1.908779e+02 7.334607e+01
      vertex   7.219587e+01 1.908779e+02 5.373785e+01
      vertex   9.626116e+01 1.908779e+02 7.165047e+01
    endloop
  endfacet
  facet normal 2.238481e-15 -1.000000e+00 1.765498e-15
    outer loop
      vertex   6.228867e+01 1.908779e+02 5.020082e+01
      vertex   6.333265e+01 1.908779e+02 4.887714e+01
      vertex   7.219587e+01 1.908779e+02 5.373785e+01
    endloop
  endfacet
  facet normal 2.267675e-15 -1.000000e+00 1.712265e-15
    outer loop
      vertex   7.219587e+01 1.908779e+02 5.373785e+01
      vertex   6.333265e+01 1.908779e+02 4.887714e+01
      vertex   6.434851e+01 1.908779e+02 4.753176e+01
    endloop
  endfacet
  facet normal 2.295442e-15 -1.000000e+00 1.677155e-15
    outer loop
      vertex   7.219587e+01 1.908779e+02 5.373785e+01
      vertex   6.434851e+01 1.908779e+02 4.753176e+01
      vertex   7.313738e+01 1.908779e+02 5.244925e+01
    endloop
  endfacet
  facet normal 2.302891e-15 -1.000000e+00 1.663841e-15
    outer loop
      vertex   7.313738e+01 1.908779e+02 5.244925e+01
      vertex   6.434851e+01 1.908779e+02 4.753176e+01
      vertex   6.533580e+01 1.908779e+02 4.616528e+01
    endloop
  endfacet
  facet normal 2.325039e-15 -1.000000e+00 1.636344e-15
    outer loop
      vertex   7.313738e+01 1.908779e+02 5.244925e+01
      vertex   6.533580e+01 1.908779e+02 4.616528e+01
      vertex   7.405589e+01 1.908779e+02 5.114416e+01
    endloop
  endfacet
  facet normal 2.337309e-15 -1.000000e+00 1.614855e-15
    outer loop
      vertex   7.405589e+01 1.908779e+02 5.114416e+01
      vertex   6.533580e+01 1.908779e+02 4.616528e+01
      vertex   6.629407e+01 1.908779e+02 4.477830e+01
    endloop
  endfacet
  facet normal 2.353701e-15 -1.000000e+00 1.594868e-15
    outer loop
      vertex   7.405589e+01 1.908779e+02 5.114416e+01
      vertex   6.629407e+01 1.908779e+02 4.477830e+01
      vertex   7.495111e+01 1.908779e+02 4.982299e+01
    endloop
  endfacet
  facet normal 2.370922e-15 -1.000000e+00 1.565315e-15
    outer loop
      vertex   7.495111e+01 1.908779e+02 4.982299e+01
      vertex   6.629407e+01 1.908779e+02 4.477830e+01
      vertex   6.722291e+01 1.908779e+02 4.337143e+01
    endloop
  endfacet
  facet normal 2.381410e-15 -1.000000e+00 1.552752e-15
    outer loop
      vertex   7.495111e+01 1.908779e+02 4.982299e+01
      vertex   6.722291e+01 1.908779e+02 4.337143e+01
      vertex   7.582277e+01 1.908779e+02 4.848615e+01
    endloop
  endfacet
  facet normal 2.403728e-15 -1.000000e+00 1.515228e-15
    outer loop
      vertex   7.582277e+01 1.908779e+02 4.848615e+01
      vertex   6.722291e+01 1.908779e+02 4.337143e+01
      vertex   6.812189e+01 1.908779e+02 4.194530e+01
    endloop
  endfacet
  facet normal 2.408151e-15 -1.000000e+00 1.510020e-15
    outer loop
      vertex   7.582277e+01 1.908779e+02 4.848615e+01
      vertex   6.812189e+01 1.908779e+02 4.194530e+01
      vertex   7.667059e+01 1.908779e+02 4.713407e+01
    endloop
  endfacet
  facet normal 2.435720e-15 -1.000000e+00 1.464600e-15
    outer loop
      vertex   7.667059e+01 1.908779e+02 4.713407e+01
      vertex   6.812189e+01 1.908779e+02 4.194530e+01
      vertex   6.899062e+01 1.908779e+02 4.050054e+01
    endloop
  endfacet
  facet normal 2.475601e-15 -1.000000e+00 1.418427e-15
    outer loop
      vertex   7.667059e+01 1.908779e+02 4.713407e+01
      vertex   6.899062e+01 1.908779e+02 4.050054e+01
      vertex   6.982872e+01 1.908779e+02 3.903780e+01
    endloop
  endfacet
  facet normal 1.633623e-14 -1.000000e+00 -1.029470e-14
    outer loop
      vertex   6.982872e+01 1.908779e+02 3.903780e+01
      vertex   7.063581e+01 1.908779e+02 3.755773e+01
      vertex   7.667059e+01 1.908779e+02 4.713407e+01
    endloop
  endfacet
  facet normal 0.000000e+00 -1.000000e+00 -0.000000e+00
    outer loop
      vertex   7.667059e+01 1.908779e+02 4.713407e+01
      vertex   7.063581e+01 1.908779e+02 3.755773e+01
      vertex   1.059537e+02 1.908779e+02 5.633659e+01
    endloop
  endfacet
  facet normal 0.000000e+00 -1.000000e+00 0.000000e+00
    outer loop
      vertex   7.667059e+01 1.908779e+02 4.713407e+01
      vertex   1.059537e+02 1.908779e+02 5.633659e+01
      vertex   1.050604e+02 1.908779e+02 5.798544e+01
    endloop
  endfacet
  facet normal -0.000000e+00 -1.000000e+00 0.000000e+00
    outer loop
      vertex   1.050604e+02 1.908779e+02 5.798544e+01
      vertex   1.041414e+02 1.908779e+02 5.962013e+01
      vertex   7.667059e+01 1.908779e+02 4.713407e+01
    endloop
  endfacet
  facet normal 0.000000e+00 -1.000000e+00 0.000000e+00
    outer loop
      vertex   7.667059e+01 1.908779e+02 4.713407e+01
      vertex   1.041414e+02 1.908779e+02 5.962013e+01
      vertex   1.031971e+02 1.908779e+02 6.124025e+01
    endloop
  endfacet
  facet normal 0.000000e+00 -1.000000e+00 0.000000e+00
    outer loop
      vertex   7.667059e+01 1.908779e+02 4.713407e+01
      vertex   1.031971e+02 1.908779e+02 6.124025e+01
      vertex   1.022275e+02 1.908779e+02 6.284543e+01
    endloop
  endfacet
  facet normal -0.000000e+00 -1.000000e+00 0.000000e+00
    outer loop
      vertex   9.231514e+01 1.908779e+02 7.666756e+01
      vertex   9.094119e+01 1.908779e+02 7.829240e+01
      vertex   6.715398e+01 1.908779e+02 5.991947e+01
    endloop
  endfacet
  facet normal 0.000000e+00 -1.000000e+00 0.000000e+00
    outer loop
      vertex   6.715398e+01 1.908779e+02 5.991947e+01
      vertex   9.094119e+01 1.908779e+02 7.829240e+01
      vertex   8.953864e+01 1.908779e+02 7.989263e+01
    endloop
  endfacet
  facet normal -6.421477e-16 -1.000000e+00 -6.966098e-16
    outer loop
      vertex   8.211272e+01 1.908779e+02 8.750715e+01
      vertex   8.054816e+01 1.908779e+02 8.894939e+01
      vertex   6.158454e+01 1.908779e+02 6.563036e+01
    endloop
  endfacet
  facet normal -6.291013e-16 -1.000000e+00 -7.072195e-16
    outer loop
      vertex   6.158454e+01 1.908779e+02 6.563036e+01
      vertex   8.054816e+01 1.908779e+02 8.894939e+01
      vertex   7.895828e+01 1.908779e+02 9.036365e+01
    endloop
  endfacet
  facet normal -6.153027e-16 -1.000000e+00 -7.169123e-16
    outer loop
      vertex   6.158454e+01 1.908779e+02 6.563036e+01
      vertex   7.895828e+01 1.908779e+02 9.036365e+01
      vertex   7.734358e+01 1.908779e+02 9.174950e+01
    endloop
  endfacet
  facet normal -6.153027e-16 -1.000000e+00 -7.169123e-16
    outer loop
      vertex   6.158454e+01 1.908779e+02 6.563036e+01
      vertex   7.734358e+01 1.908779e+02 9.174950e+01
      vertex   5.553129e+01 1.908779e+02 7.082567e+01
    endloop
  endfacet
  facet normal -6.036294e-16 -1.000000e+00 -7.290812e-16
    outer loop
      vertex   5.553129e+01 1.908779e+02 7.082567e+01
      vertex   7.734358e+01 1.908779e+02 9.174950e+01
      vertex   7.570455e+01 1.908779e+02 9.310650e+01
    endloop
  endfacet
  facet normal -5.911638e-16 -1.000000e+00 -7.403677e-16
    outer loop
      vertex   5.553129e+01 1.908779e+02 7.082567e+01
      vertex   7.570455e+01 1.908779e+02 9.310650e+01
      vertex   7.404172e+01 1.908779e+02 9.443423e+01
    endloop
  endfacet
  facet normal -5.099702e-16 -1.000000e+00 -7.984577e-16
    outer loop
      vertex   6.538905e+01 1.908779e+02 1.006194e+02
      vertex   6.379235e+01 1.908779e+02 1.016392e+02
      vertex   4.904179e+01 1.908779e+02 7.546458e+01
    endloop
  endfacet
  facet normal -4.969292e-16 -1.000000e+00 -8.058069e-16
    outer loop
      vertex   4.904179e+01 1.908779e+02 7.546458e+01
      vertex   6.379235e+01 1.908779e+02 1.016392e+02
      vertex   6.217975e+01 1.908779e+02 1.026337e+02
    endloop
  endfacet
  facet normal -4.834230e-16 -1.000000e+00 -8.123380e-16
    outer loop
      vertex   4.904179e+01 1.908779e+02 7.546458e+01
      vertex   6.217975e+01 1.908779e+02 1.026337e+02
      vertex   6.055165e+01 1.908779e+02 1.036026e+02
    endloop
  endfacet
  facet normal -8.779520e-01 -0.000000e+00 -4.787486e-01
    outer loop
      vertex   7.063581e+01 2.008779e+02 3.755773e+01
      vertex   7.063581e+01 1.908779e+02 3.755773e+01
      vertex   6.982872e+01 2.008779e+02 3.903780e+01
    endloop
  endfacet
  facet normal -8.779520e-01 -0.000000e+00 -4.787486e-01
    outer loop
      vertex   6.982872e+01 2.008779e+02 3.903780e+01
      vertex   7.063581e+01 1.908779e+02 3.755773e+01
      vertex   6.982872e+01 1.908779e+02 3.903780e+01
    endloop
  endfacet
  facet normal -8.676691e-01 -0.000000e+00 -4.971422e-01
    outer loop
      vertex   6.982872e+01 2.008779e+02 3.903780e+01
      vertex   6.982872e+01 1.908779e+02 3.903780e+01
      vertex   6.899062e+01 1.908779e+02 4.050054e+01
    endloop
  endfacet
  facet normal -8.676691e-01 0.000000e+00 -4.971422e-01
    outer loop
      vertex   6.982872e+01 2.008779e+02 3.903780e+01
      vertex   6.899062e+01 1.908779e+02 4.050054e+01
      vertex   6.899062e+01 2.008779e+02 4.050054e+01
    endloop
  endfacet
  facet normal -8.570008e-01 -0.000000e+00 -5.153151e-01
    outer loop
      vertex   6.899062e+01 2.008779e+02 4.050054e+01
      vertex   6.899062e+01 1.908779e+02 4.050054e+01
      vertex   6.812189e+01 1.908779e+02 4.194530e+01
    endloop
  endfacet
  facet normal -8.570008e-01 0.000000e+00 -5.153151e-01
    outer loop
      vertex   6.899062e+01 2.008779e+02 4.050054e+01
      vertex   6.812189e+01 1.908779e+02 4.194530e+01
      vertex   6.812189e+01 2.008779e+02 4.194530e+01
    endloop
  endfacet
  facet normal -8.459520e-01 -0.000000e+00 -5.332591e-01
    outer loop
      vertex   6.812189e+01 2.008779e+02 4.194530e+01
      vertex   6.812189e+01 1.908779e+02 4.194530e+01
      vertex   6.722291e+01 1.908779e+02 4.337143e+01
    endloop
  endfacet
  facet normal -8.459520e-01 0.000000e+00 -5.332591e-01
    outer loop
      vertex   6.812189e+01 2.008779e+02 4.194530e+01
      vertex   6.722291e+01 1.908779e+02 4.337143e+01
      vertex   6.722291e+01 2.008779e+02 4.337143e+01
    endloop
  endfacet
  facet normal -8.345275e-01 -0.000000e+00 -5.509663e-01
    outer loop
      vertex   6.722291e+01 2.008779e+02 4.337143e+01
      vertex   6.722291e+01 1.908779e+02 4.337143e+01
      vertex   6.629407e+01 1.908779e+02 4.477830e+01
    endloop
  endfacet
  facet normal -8.345275e-01 0.000000e+00 -5.509663e-01
    outer loop
      vertex   6.722291e+01 2.008779e+02 4.337143e+01
      vertex   6.629407e+01 1.908779e+02 4.477830e+01
      vertex   6.629407e+01 2.008779e+02 4.477830e+01
    endloop
  endfacet
  facet normal -8.227324e-01 -0.000000e+00 -5.684289e-01
    outer loop
      vertex   6.629407e+01 2.008779e+02 4.477830e+01
      vertex   6.629407e+01 1.908779e+02 4.477830e+01
      vertex   6.533580e+01 1.908779e+02 4.616528e+01
    endloop
  endfacet
  facet normal -8.227324e-01 0.000000e+00 -5.684289e-01
    outer loop
      vertex   6.629407e+01 2.008779e+02 4.477830e+01
      vertex   6.533580e+01 1.908779e+02 4.616528e+01
      vertex   6.533580e+01 2.008779e+02 4.616528e+01
    endloop
  endfacet
  facet normal -8.105720e-01 -0.000000e+00 -5.856390e-01
    outer loop
      vertex   6.533580e+01 2.008779e+02 4.616528e+01
      vertex   6.533580e+01 1.908779e+02 4.616528e+01
      vertex   6.434851e+01 1.908779e+02 4.753176e+01
    endloop
  endfacet
  facet normal -8.105720e-01 0.000000e+00 -5.856390e-01
    outer loop
      vertex   6.533580e+01 2.008779e+02 4.616528e+01
      vertex   6.434851e+01 1.908779e+02 4.753176e+01
      vertex   6.434851e+01 2.008779e+02 4.753176e+01
    endloop
  endfacet
  facet normal -7.980516e-01 -0.000000e+00 -6.025891e-01
    outer loop
      vertex   6.434851e+01 2.008779e+02 4.753176e+01
      vertex   6.434851e+01 1.908779e+02 4.753176e+01
      vertex   6.333265e+01 1.908779e+02 4.887714e+01
    endloop
  endfacet
  facet normal -7.980516e-01 0.000000e+00 -6.025891e-01
    outer loop
      vertex   6.434851e+01 2.008779e+02 4.753176e+01
      vertex   6.333265e+01 1.908779e+02 4.887714e+01
      vertex   6.333265e+01 2.008779e+02 4.887714e+01
    endloop
  endfacet
  facet normal -7.851768e-01 -0.000000e+00 -6.192716e-01
    outer loop
      vertex   6.333265e+01 2.008779e+02 4.887714e+01
      vertex   6.333265e+01 1.908779e+02 4.887714e+01
      vertex   6.228867e+01 1.908779e+02 5.020082e+01
    endloop
  endfacet
  facet normal -7.851768e-01 0.000000e+00 -6.192716e-01
    outer loop
      vertex   6.333265e+01 2.008779e+02 4.887714e+01
      vertex   6.228867e+01 1.908779e+02 5.020082e+01
      vertex   6.228867e+01 2.008779e+02 5.020082e+01
    endloop
  endfacet
  facet normal -7.719534e-01 -0.000000e+00 -6.356791e-01
    outer loop
      vertex   6.228867e+01 2.008779e+02 5.020082e+01
      vertex   6.228867e+01 1.908779e+02 5.020082e+01
      vertex   6.121702e+01 1.908779e+02 5.150220e+01
    endloop
  endfacet
  facet normal -7.719534e-01 0.000000e+00 -6.356791e-01
    outer loop
      vertex   6.228867e+01 2.008779e+02 5.020082e+01
      vertex   6.121702e+01 1.908779e+02 5.150220e+01
      vertex   6.121702e+01 2.008779e+02 5.150220e+01
    endloop
  endfacet
  facet normal -7.583872e-01 -0.000000e+00 -6.518043e-01
    outer loop
      vertex   6.121702e+01 2.008779e+02 5.150220e+01
      vertex   6.121702e+01 1.908779e+02 5.150220e+01
      vertex   6.011819e+01 1.908779e+02 5.278071e+01
    endloop
  endfacet
  facet normal -7.583872e-01 0.000000e+00 -6.518043e-01
    outer loop
      vertex   6.121702e+01 2.008779e+02 5.150220e+01
      vertex   6.011819e+01 1.908779e+02 5.278071e+01
      vertex   6.011819e+01 2.008779e+02 5.278071e+01
    endloop
  endfacet
  facet normal -7.444842e-01 -0.000000e+00 -6.676401e-01
    outer loop
      vertex   6.011819e+01 2.008779e+02 5.278071e+01
      vertex   6.011819e+01 1.908779e+02 5.278071e+01
      vertex   5.899267e+01 1.908779e+02 5.403578e+01
    endloop
  endfacet
  facet normal -7.444842e-01 0.000000e+00 -6.676401e-01
    outer loop
      vertex   6.011819e+01 2.008779e+02 5.278071e+01
      vertex   5.899267e+01 1.908779e+02 5.403578e+01
      vertex   5.899267e+01 2.008779e+02 5.403578e+01
    endloop
  endfacet
  facet normal -7.302506e-01 -0.000000e+00 -6.831794e-01
    outer loop
      vertex   5.899267e+01 2.008779e+02 5.403578e+01
      vertex   5.899267e+01 1.908779e+02 5.403578e+01
      vertex   5.784094e+01 1.908779e+02 5.526685e+01
    endloop
  endfacet
  facet normal -7.302506e-01 0.000000e+00 -6.831794e-01
    outer loop
      vertex   5.899267e+01 2.008779e+02 5.403578e+01
      vertex   5.784094e+01 1.908779e+02 5.526685e+01
      vertex   5.784094e+01 2.008779e+02 5.526685e+01
    endloop
  endfacet
  facet normal -7.156927e-01 -0.000000e+00 -6.984153e-01
    outer loop
      vertex   5.784094e+01 2.008779e+02 5.526685e+01
      vertex   5.784094e+01 1.908779e+02 5.526685e+01
      vertex   5.666354e+01 1.908779e+02 5.647339e+01
    endloop
  endfacet
  facet normal -7.156927e-01 0.000000e+00 -6.984153e-01
    outer loop
      vertex   5.784094e+01 2.008779e+02 5.526685e+01
      vertex   5.666354e+01 1.908779e+02 5.647339e+01
      vertex   5.666354e+01 2.008779e+02 5.647339e+01
    endloop
  endfacet
  facet normal -7.008170e-01 -0.000000e+00 -7.133411e-01
    outer loop
      vertex   5.666354e+01 2.008779e+02 5.647339e+01
      vertex   5.666354e+01 1.908779e+02 5.647339e+01
      vertex   5.546097e+01 1.908779e+02 5.765485e+01
    endloop
  endfacet
  facet normal -7.008170e-01 0.000000e+00 -7.133411e-01
    outer loop
      vertex   5.666354e+01 2.008779e+02 5.647339e+01
      vertex   5.546097e+01 1.908779e+02 5.765485e+01
      vertex   5.546097e+01 2.008779e+02 5.765485e+01
    endloop
  endfacet
  facet normal -6.856302e-01 -0.000000e+00 -7.279501e-01
    outer loop
      vertex   5.546097e+01 2.008779e+02 5.765485e+01
      vertex   5.546097e+01 1.908779e+02 5.765485e+01
      vertex   5.423377e+01 1.908779e+02 5.881070e+01
    endloop
  endfacet
  facet normal -6.856302e-01 0.000000e+00 -7.279501e-01
    outer loop
      vertex   5.546097e+01 2.008779e+02 5.765485e+01
      vertex   5.423377e+01 1.908779e+02 5.881070e+01
      vertex   5.423377e+01 2.008779e+02 5.881070e+01
    endloop
  endfacet
  facet normal -6.701388e-01 -0.000000e+00 -7.422358e-01
    outer loop
      vertex   5.423377e+01 2.008779e+02 5.881070e+01
      vertex   5.423377e+01 1.908779e+02 5.881070e+01
      vertex   5.298249e+01 1.908779e+02 5.994044e+01
    endloop
  endfacet
  facet normal -6.701388e-01 0.000000e+00 -7.422358e-01
    outer loop
      vertex   5.423377e+01 2.008779e+02 5.881070e+01
      vertex   5.298249e+01 1.908779e+02 5.994044e+01
      vertex   5.298249e+01 2.008779e+02 5.994044e+01
    endloop
  endfacet
  facet normal -6.543498e-01 -0.000000e+00 -7.561920e-01
    outer loop
      vertex   5.298249e+01 2.008779e+02 5.994044e+01
      vertex   5.298249e+01 1.908779e+02 5.994044e+01
      vertex   5.170768e+01 1.908779e+02 6.104356e+01
    endloop
  endfacet
  facet normal -6.543498e-01 0.000000e+00 -7.561920e-01
    outer loop
      vertex   5.298249e+01 2.008779e+02 5.994044e+01
      vertex   5.170768e+01 1.908779e+02 6.104356e+01
      vertex   5.170768e+01 2.008779e+02 6.104356e+01
    endloop
  endfacet
  facet normal -6.382703e-01 -0.000000e+00 -7.698123e-01
    outer loop
      vertex   5.170768e+01 2.008779e+02 6.104356e+01
      vertex   5.170768e+01 1.908779e+02 6.104356e+01
      vertex   5.040991e+01 1.908779e+02 6.211957e+01
    endloop
  endfacet
  facet normal -6.382703e-01 0.000000e+00 -7.698123e-01
    outer loop
      vertex   5.170768e+01 2.008779e+02 6.104356e+01
      vertex   5.040991e+01 1.908779e+02 6.211957e+01
      vertex   5.040991e+01 2.008779e+02 6.211957e+01
    endloop
  endfacet
  facet normal -6.219074e-01 -0.000000e+00 -7.830908e-01
    outer loop
      vertex   5.040991e+01 2.008779e+02 6.211957e+01
      vertex   5.040991e+01 1.908779e+02 6.211957e+01
      vertex   4.908975e+01 1.908779e+02 6.316800e+01
    endloop
  endfacet
  facet normal -6.219074e-01 0.000000e+00 -7.830908e-01
    outer loop
      vertex   5.040991e+01 2.008779e+02 6.211957e+01
      vertex   4.908975e+01 1.908779e+02 6.316800e+01
      vertex   4.908975e+01 2.008779e+02 6.316800e+01
    endloop
  endfacet
  facet normal -6.052683e-01 -0.000000e+00 -7.960216e-01
    outer loop
      vertex   4.908975e+01 2.008779e+02 6.316800e+01
      vertex   4.908975e+01 1.908779e+02 6.316800e+01
      vertex   4.774780e+01 1.908779e+02 6.418838e+01
    endloop
  endfacet
  facet normal -6.052683e-01 0.000000e+00 -7.960216e-01
    outer loop
      vertex   4.908975e+01 2.008779e+02 6.316800e+01
      vertex   4.774780e+01 1.908779e+02 6.418838e+01
      vertex   4.774780e+01 2.008779e+02 6.418838e+01
    endloop
  endfacet
  facet normal -5.883604e-01 -0.000000e+00 -8.085988e-01
    outer loop
      vertex   4.774780e+01 2.008779e+02 6.418838e+01
      vertex   4.774780e+01 1.908779e+02 6.418838e+01
      vertex   4.638464e+01 1.908779e+02 6.518025e+01
    endloop
  endfacet
  facet normal -5.883604e-01 0.000000e+00 -8.085988e-01
    outer loop
      vertex   4.774780e+01 2.008779e+02 6.418838e+01
      vertex   4.638464e+01 1.908779e+02 6.518025e+01
      vertex   4.638464e+01 2.008779e+02 6.518025e+01
    endloop
  endfacet
  facet normal -5.711912e-01 -0.000000e+00 -8.208170e-01
    outer loop
      vertex   4.638464e+01 2.008779e+02 6.518025e+01
      vertex   4.638464e+01 1.908779e+02 6.518025e+01
      vertex   4.500088e+01 1.908779e+02 6.614318e+01
    endloop
  endfacet
  facet normal -5.711912e-01 0.000000e+00 -8.208170e-01
    outer loop
      vertex   4.638464e+01 2.008779e+02 6.518025e+01
      vertex   4.500088e+01 1.908779e+02 6.614318e+01
      vertex   4.500088e+01 2.008779e+02 6.614318e+01
    endloop
  endfacet
  facet normal -5.537684e-01 -0.000000e+00 -8.326707e-01
    outer loop
      vertex   4.500088e+01 2.008779e+02 6.614318e+01
      vertex   4.500088e+01 1.908779e+02 6.614318e+01
      vertex   4.359714e+01 1.908779e+02 6.707674e+01
    endloop
  endfacet
  facet normal -5.537684e-01 0.000000e+00 -8.326707e-01
    outer loop
      vertex   4.500088e+01 2.008779e+02 6.614318e+01
      vertex   4.359714e+01 1.908779e+02 6.707674e+01
      vertex   4.359714e+01 2.008779e+02 6.707674e+01
    endloop
  endfacet
  facet normal -5.360997e-01 -0.000000e+00 -8.441547e-01
    outer loop
      vertex   4.359714e+01 2.008779e+02 6.707674e+01
      vertex   4.359714e+01 1.908779e+02 6.707674e+01
      vertex   4.217404e+01 1.908779e+02 6.798051e+01
    endloop
  endfacet
  facet normal -5.360997e-01 0.000000e+00 -8.441547e-01
    outer loop
      vertex   4.359714e+01 2.008779e+02 6.707674e+01
      vertex   4.217404e+01 1.908779e+02 6.798051e+01
      vertex   4.217404e+01 2.008779e+02 6.798051e+01
    endloop
  endfacet
  facet normal -5.181929e-01 -0.000000e+00 -8.552638e-01
    outer loop
      vertex   4.217404e+01 2.008779e+02 6.798051e+01
      vertex   4.217404e+01 1.908779e+02 6.798051e+01
      vertex   4.073222e+01 1.908779e+02 6.885410e+01
    endloop
  endfacet
  facet normal -5.181929e-01 0.000000e+00 -8.552638e-01
    outer loop
      vertex   4.217404e+01 2.008779e+02 6.798051e+01
      vertex   4.073222e+01 1.908779e+02 6.885410e+01
      vertex   4.073222e+01 2.008779e+02 6.885410e+01
    endloop
  endfacet
  facet normal -5.000560e-01 -0.000000e+00 -8.659931e-01
    outer loop
      vertex   4.073222e+01 2.008779e+02 6.885410e+01
      vertex   4.073222e+01 1.908779e+02 6.885410e+01
      vertex   3.927230e+01 2.008779e+02 6.969710e+01
    endloop
  endfacet
  facet normal -5.000560e-01 -0.000000e+00 -8.659931e-01
    outer loop
      vertex   3.927230e+01 2.008779e+02 6.969710e+01
      vertex   4.073222e+01 1.908779e+02 6.885410e+01
      vertex   3.927230e+01 1.908779e+02 6.969710e+01
    endloop
  endfacet
  facet normal -8.712138e-01 0.000000e+00 4.909038e-01
    outer loop
      vertex   3.927230e+01 2.008779e+02 6.969710e+01
      vertex   3.927230e+01 1.908779e+02 6.969710e+01
      vertex   5.399941e+01 2.008779e+02 9.583352e+01
    endloop
  endfacet
  facet normal -8.712138e-01 -3.623768e-15 4.909038e-01
    outer loop
      vertex   5.399941e+01 2.008779e+02 9.583352e+01
      vertex   3.927230e+01 1.908779e+02 6.969710e+01
      vertex   5.890845e+01 1.908779e+02 1.045457e+02
    endloop
  endfacet
  facet normal 4.694716e-01 0.000000e+00 -8.829476e-01
    outer loop
      vertex   7.063581e+01 2.008779e+02 3.755773e+01
      vertex   9.712424e+01 2.008779e+02 5.164187e+01
      vertex   7.063581e+01 1.908779e+02 3.755773e+01
    endloop
  endfacet
  facet normal 4.694716e-01 7.105427e-16 -8.829476e-01
    outer loop
      vertex   7.063581e+01 1.908779e+02 3.755773e+01
      vertex   9.712424e+01 2.008779e+02 5.164187e+01
      vertex   1.059537e+02 1.908779e+02 5.633659e+01
    endloop
  endfacet
  facet normal 3.519791e-01 7.070958e-01 6.132913e-01
    outer loop
      vertex   5.399941e+01 2.008779e+02 9.583352e+01
      vertex   5.890845e+01 1.908779e+02 1.045457e+02
      vertex   5.550568e+01 2.008779e+02 9.496905e+01
    endloop
  endfacet
  facet normal 3.519791e-01 7.070958e-01 6.132913e-01
    outer loop
      vertex   5.550568e+01 2.008779e+02 9.496905e+01
      vertex   5.890845e+01 1.908779e+02 1.045457e+02
      vertex   6.055165e+01 1.908779e+02 1.036026e+02
    endloop
  endfacet
  facet normal 3.616177e-01 7.070958e-01 6.076580e-01
    outer loop
      vertex   5.550568e+01 2.008779e+02 9.496905e+01
      vertex   6.055165e+01 1.908779e+02 1.036026e+02
      vertex   5.699810e+01 2.008779e+02 9.408090e+01
    endloop
  endfacet
  facet normal 3.616177e-01 7.070958e-01 6.076580e-01
    outer loop
      vertex   5.699810e+01 2.008779e+02 9.408090e+01
      vertex   6.055165e+01 1.908779e+02 1.036026e+02
      vertex   6.217975e+01 1.908779e+02 1.026337e+02
    endloop
  endfacet
  facet normal 3.711662e-01 7.070958e-01 6.018731e-01
    outer loop
      vertex   5.699810e+01 2.008779e+02 9.408090e+01
      vertex   6.217975e+01 1.908779e+02 1.026337e+02
      vertex   5.847632e+01 2.008779e+02 9.316931e+01
    endloop
  endfacet
  facet normal 3.711662e-01 7.070958e-01 6.018731e-01
    outer loop
      vertex   5.847632e+01 2.008779e+02 9.316931e+01
      vertex   6.217975e+01 1.908779e+02 1.026337e+02
      vertex   6.379235e+01 1.908779e+02 1.016392e+02
    endloop
  endfacet
  facet normal 3.806222e-01 7.070958e-01 5.959382e-01
    outer loop
      vertex   5.847632e+01 2.008779e+02 9.316931e+01
      vertex   6.379235e+01 1.908779e+02 1.016392e+02
      vertex   5.993997e+01 2.008779e+02 9.223449e+01
    endloop
  endfacet
  facet normal 3.806222e-01 7.070958e-01 5.959382e-01
    outer loop
      vertex   5.993997e+01 2.008779e+02 9.223449e+01
      vertex   6.379235e+01 1.908779e+02 1.016392e+02
      vertex   6.538905e+01 1.908779e+02 1.006194e+02
    endloop
  endfacet
  facet normal 8.384953e-01 1.421085e-15 -5.449088e-01
    outer loop
      vertex   6.538905e+01 1.908779e+02 1.006194e+02
      vertex   4.904179e+01 1.908779e+02 7.546458e+01
      vertex   5.993997e+01 2.008779e+02 9.223449e+01
    endloop
  endfacet
  facet normal 8.384953e-01 0.000000e+00 -5.449088e-01
    outer loop
      vertex   5.993997e+01 2.008779e+02 9.223449e+01
      vertex   4.904179e+01 1.908779e+02 7.546458e+01
      vertex   4.904179e+01 2.008779e+02 7.546458e+01
    endloop
  endfacet
  facet normal 5.523216e-01 0.000000e+00 8.336311e-01
    outer loop
      vertex   4.904179e+01 2.008779e+02 7.546458e+01
      vertex   4.904179e+01 1.908779e+02 7.546458e+01
      vertex   5.037219e+01 2.008779e+02 7.458312e+01
    endloop
  endfacet
  facet normal 5.523216e-01 0.000000e+00 8.336311e-01
    outer loop
      vertex   5.037219e+01 2.008779e+02 7.458312e+01
      vertex   4.904179e+01 1.908779e+02 7.546458e+01
      vertex   5.037219e+01 1.908779e+02 7.458312e+01
    endloop
  endfacet
  facet normal 5.670164e-01 0.000000e+00 8.237065e-01
    outer loop
      vertex   5.037219e+01 2.008779e+02 7.458312e+01
      vertex   5.037219e+01 1.908779e+02 7.458312e+01
      vertex   5.168675e+01 2.008779e+02 7.367822e+01
    endloop
  endfacet
  facet normal 5.670164e-01 0.000000e+00 8.237065e-01
    outer loop
      vertex   5.168675e+01 2.008779e+02 7.367822e+01
      vertex   5.037219e+01 1.908779e+02 7.458312e+01
      vertex   5.168675e+01 1.908779e+02 7.367822e+01
    endloop
  endfacet
  facet normal 5.815329e-01 0.000000e+00 8.135229e-01
    outer loop
      vertex   5.168675e+01 2.008779e+02 7.367822e+01
      vertex   5.168675e+01 1.908779e+02 7.367822e+01
      vertex   5.298506e+01 2.008779e+02 7.275015e+01
    endloop
  endfacet
  facet normal 5.815329e-01 0.000000e+00 8.135229e-01
    outer loop
      vertex   5.298506e+01 2.008779e+02 7.275015e+01
      vertex   5.168675e+01 1.908779e+02 7.367822e+01
      vertex   5.298506e+01 1.908779e+02 7.275015e+01
    endloop
  endfacet
  facet normal 5.958665e-01 0.000000e+00 8.030835e-01
    outer loop
      vertex   5.298506e+01 2.008779e+02 7.275015e+01
      vertex   5.298506e+01 1.908779e+02 7.275015e+01
      vertex   5.426670e+01 2.008779e+02 7.179920e+01
    endloop
  endfacet
  facet normal 5.958665e-01 0.000000e+00 8.030835e-01
    outer loop
      vertex   5.426670e+01 2.008779e+02 7.179920e+01
      vertex   5.298506e+01 1.908779e+02 7.275015e+01
      vertex   5.426670e+01 1.908779e+02 7.179920e+01
    endloop
  endfacet
  facet normal 6.100128e-01 0.000000e+00 7.923915e-01
    outer loop
      vertex   5.426670e+01 2.008779e+02 7.179920e+01
      vertex   5.426670e+01 1.908779e+02 7.179920e+01
      vertex   5.553129e+01 2.008779e+02 7.082567e+01
    endloop
  endfacet
  facet normal 6.100128e-01 0.000000e+00 7.923915e-01
    outer loop
      vertex   5.553129e+01 2.008779e+02 7.082567e+01
      vertex   5.426670e+01 1.908779e+02 7.179920e+01
      vertex   5.553129e+01 1.908779e+02 7.082567e+01
    endloop
  endfacet
  facet normal -7.869519e-01 -7.579123e-16 6.170143e-01
    outer loop
      vertex   7.404172e+01 1.908779e+02 9.443423e+01
      vertex   6.787158e+01 2.008779e+02 8.656471e+01
      vertex   5.553129e+01 1.908779e+02 7.082567e+01
    endloop
  endfacet
  facet normal -7.869519e-01 0.000000e+00 6.170143e-01
    outer loop
      vertex   5.553129e+01 1.908779e+02 7.082567e+01
      vertex   6.787158e+01 2.008779e+02 8.656471e+01
      vertex   5.553129e+01 2.008779e+02 7.082567e+01
    endloop
  endfacet
  facet normal 4.792725e-01 7.070929e-01 5.199207e-01
    outer loop
      vertex   8.211272e+01 1.908779e+02 8.750715e+01
      vertex   7.526999e+01 2.008779e+02 8.021489e+01
      vertex   8.054816e+01 1.908779e+02 8.894939e+01
    endloop
  endfacet
  facet normal 4.792725e-01 7.070929e-01 5.199207e-01
    outer loop
      vertex   8.054816e+01 1.908779e+02 8.894939e+01
      vertex   7.526999e+01 2.008779e+02 8.021489e+01
      vertex   7.383582e+01 2.008779e+02 8.153694e+01
    endloop
  endfacet
  facet normal 4.699781e-01 7.070929e-01 5.283373e-01
    outer loop
      vertex   8.054816e+01 1.908779e+02 8.894939e+01
      vertex   7.383582e+01 2.008779e+02 8.153694e+01
      vertex   7.895828e+01 1.908779e+02 9.036365e+01
    endloop
  endfacet
  facet normal 4.699781e-01 7.070929e-01 5.283373e-01
    outer loop
      vertex   7.895828e+01 1.908779e+02 9.036365e+01
      vertex   7.383582e+01 2.008779e+02 8.153694e+01
      vertex   7.237843e+01 2.008779e+02 8.283335e+01
    endloop
  endfacet
  facet normal 4.605359e-01 7.070929e-01 5.365877e-01
    outer loop
      vertex   7.895828e+01 1.908779e+02 9.036365e+01
      vertex   7.237843e+01 2.008779e+02 8.283335e+01
      vertex   7.734358e+01 1.908779e+02 9.174950e+01
    endloop
  endfacet
  facet normal 4.605359e-01 7.070929e-01 5.365877e-01
    outer loop
      vertex   7.734358e+01 1.908779e+02 9.174950e+01
      vertex   7.237843e+01 2.008779e+02 8.283335e+01
      vertex   7.089828e+01 2.008779e+02 8.410371e+01
    endloop
  endfacet
  facet normal 4.509490e-01 7.070929e-01 5.446693e-01
    outer loop
      vertex   7.734358e+01 1.908779e+02 9.174950e+01
      vertex   7.089828e+01 2.008779e+02 8.410371e+01
      vertex   7.570455e+01 1.908779e+02 9.310650e+01
    endloop
  endfacet
  facet normal 4.509490e-01 7.070929e-01 5.446693e-01
    outer loop
      vertex   7.570455e+01 1.908779e+02 9.310650e+01
      vertex   7.089828e+01 2.008779e+02 8.410371e+01
      vertex   6.939584e+01 2.008779e+02 8.534763e+01
    endloop
  endfacet
  facet normal 4.412202e-01 7.070929e-01 5.525798e-01
    outer loop
      vertex   7.570455e+01 1.908779e+02 9.310650e+01
      vertex   6.939584e+01 2.008779e+02 8.534763e+01
      vertex   7.404172e+01 1.908779e+02 9.443423e+01
    endloop
  endfacet
  facet normal 4.412202e-01 7.070929e-01 5.525798e-01
    outer loop
      vertex   7.404172e+01 1.908779e+02 9.443423e+01
      vertex   6.939584e+01 2.008779e+02 8.534763e+01
      vertex   6.787158e+01 2.008779e+02 8.656471e+01
    endloop
  endfacet
  facet normal 7.292263e-01 3.126388e-15 -6.842726e-01
    outer loop
      vertex   8.211272e+01 1.908779e+02 8.750715e+01
      vertex   6.158454e+01 1.908779e+02 6.563036e+01
      vertex   7.526999e+01 2.008779e+02 8.021489e+01
    endloop
  endfacet
  facet normal 7.292263e-01 0.000000e+00 -6.842726e-01
    outer loop
      vertex   7.526999e+01 2.008779e+02 8.021489e+01
      vertex   6.158454e+01 1.908779e+02 6.563036e+01
      vertex   6.158454e+01 2.008779e+02 6.563036e+01
    endloop
  endfacet
  facet normal 6.907112e-01 0.000000e+00 7.231307e-01
    outer loop
      vertex   6.158454e+01 2.008779e+02 6.563036e+01
      vertex   6.158454e+01 1.908779e+02 6.563036e+01
      vertex   6.273859e+01 2.008779e+02 6.452805e+01
    endloop
  endfacet
  facet normal 6.907112e-01 0.000000e+00 7.231307e-01
    outer loop
      vertex   6.273859e+01 2.008779e+02 6.452805e+01
      vertex   6.158454e+01 1.908779e+02 6.563036e+01
      vertex   6.273859e+01 1.908779e+02 6.452805e+01
    endloop
  endfacet
  facet normal 7.034249e-01 0.000000e+00 7.107696e-01
    outer loop
      vertex   6.273859e+01 2.008779e+02 6.452805e+01
      vertex   6.273859e+01 1.908779e+02 6.452805e+01
      vertex   6.387291e+01 2.008779e+02 6.340545e+01
    endloop
  endfacet
  facet normal 7.034249e-01 0.000000e+00 7.107696e-01
    outer loop
      vertex   6.387291e+01 2.008779e+02 6.340545e+01
      vertex   6.273859e+01 1.908779e+02 6.452805e+01
      vertex   6.387291e+01 1.908779e+02 6.340545e+01
    endloop
  endfacet
  facet normal 7.159174e-01 0.000000e+00 6.981850e-01
    outer loop
      vertex   6.387291e+01 2.008779e+02 6.340545e+01
      vertex   6.387291e+01 1.908779e+02 6.340545e+01
      vertex   6.498715e+01 2.008779e+02 6.226291e+01
    endloop
  endfacet
  facet normal 7.159174e-01 0.000000e+00 6.981850e-01
    outer loop
      vertex   6.498715e+01 2.008779e+02 6.226291e+01
      vertex   6.387291e+01 1.908779e+02 6.340545e+01
      vertex   6.498715e+01 1.908779e+02 6.226291e+01
    endloop
  endfacet
  facet normal 7.281848e-01 0.000000e+00 6.853809e-01
    outer loop
      vertex   6.498715e+01 2.008779e+02 6.226291e+01
      vertex   6.498715e+01 1.908779e+02 6.226291e+01
      vertex   6.608095e+01 2.008779e+02 6.110080e+01
    endloop
  endfacet
  facet normal 7.281848e-01 0.000000e+00 6.853809e-01
    outer loop
      vertex   6.608095e+01 2.008779e+02 6.110080e+01
      vertex   6.498715e+01 1.908779e+02 6.226291e+01
      vertex   6.608095e+01 1.908779e+02 6.110080e+01
    endloop
  endfacet
  facet normal 7.402232e-01 0.000000e+00 6.723612e-01
    outer loop
      vertex   6.608095e+01 2.008779e+02 6.110080e+01
      vertex   6.608095e+01 1.908779e+02 6.110080e+01
      vertex   6.715398e+01 2.008779e+02 5.991947e+01
    endloop
  endfacet
  facet normal 7.402232e-01 0.000000e+00 6.723612e-01
    outer loop
      vertex   6.715398e+01 2.008779e+02 5.991947e+01
      vertex   6.608095e+01 1.908779e+02 6.110080e+01
      vertex   6.715398e+01 1.908779e+02 5.991947e+01
    endloop
  endfacet
  facet normal -6.657719e-01 1.326346e-15 7.461553e-01
    outer loop
      vertex   8.953864e+01 1.908779e+02 7.989263e+01
      vertex   8.207709e+01 2.008779e+02 7.323491e+01
      vertex   6.715398e+01 1.908779e+02 5.991947e+01
    endloop
  endfacet
  facet normal -6.657719e-01 0.000000e+00 7.461553e-01
    outer loop
      vertex   6.715398e+01 1.908779e+02 5.991947e+01
      vertex   8.207709e+01 2.008779e+02 7.323491e+01
      vertex   6.715398e+01 2.008779e+02 5.991947e+01
    endloop
  endfacet
  facet normal 5.634698e-01 7.070929e-01 4.272253e-01
    outer loop
      vertex   9.626116e+01 1.908779e+02 7.165047e+01
      vertex   8.823939e+01 2.008779e+02 6.567960e+01
      vertex   9.497555e+01 1.908779e+02 7.334607e+01
    endloop
  endfacet
  facet normal 5.634698e-01 7.070929e-01 4.272253e-01
    outer loop
      vertex   9.497555e+01 1.908779e+02 7.334607e+01
      vertex   8.823939e+01 2.008779e+02 6.567960e+01
      vertex   8.706092e+01 2.008779e+02 6.723390e+01
    endloop
  endfacet
  facet normal 5.558058e-01 7.070929e-01 4.371494e-01
    outer loop
      vertex   9.497555e+01 1.908779e+02 7.334607e+01
      vertex   8.706092e+01 2.008779e+02 6.723390e+01
      vertex   9.366007e+01 1.908779e+02 7.501861e+01
    endloop
  endfacet
  facet normal 5.558058e-01 7.070929e-01 4.371494e-01
    outer loop
      vertex   9.366007e+01 1.908779e+02 7.501861e+01
      vertex   8.706092e+01 2.008779e+02 6.723390e+01
      vertex   8.585506e+01 2.008779e+02 6.876706e+01
    endloop
  endfacet
  facet normal 5.479670e-01 7.070929e-01 4.469360e-01
    outer loop
      vertex   9.366007e+01 1.908779e+02 7.501861e+01
      vertex   8.585506e+01 2.008779e+02 6.876706e+01
      vertex   9.231514e+01 1.908779e+02 7.666756e+01
    endloop
  endfacet
  facet normal 5.479670e-01 7.070929e-01 4.469360e-01
    outer loop
      vertex   9.231514e+01 1.908779e+02 7.666756e+01
      vertex   8.585506e+01 2.008779e+02 6.876706e+01
      vertex   8.462221e+01 2.008779e+02 7.027859e+01
    endloop
  endfacet
  facet normal 5.399560e-01 7.070929e-01 4.565821e-01
    outer loop
      vertex   9.231514e+01 1.908779e+02 7.666756e+01
      vertex   8.462221e+01 2.008779e+02 7.027859e+01
      vertex   9.094119e+01 1.908779e+02 7.829240e+01
    endloop
  endfacet
  facet normal 5.399560e-01 7.070929e-01 4.565821e-01
    outer loop
      vertex   9.094119e+01 1.908779e+02 7.829240e+01
      vertex   8.462221e+01 2.008779e+02 7.027859e+01
      vertex   8.336276e+01 2.008779e+02 7.176803e+01
    endloop
  endfacet
  facet normal 5.317752e-01 7.070929e-01 4.660846e-01
    outer loop
      vertex   9.094119e+01 1.908779e+02 7.829240e+01
      vertex   8.336276e+01 2.008779e+02 7.176803e+01
      vertex   8.953864e+01 1.908779e+02 7.989263e+01
    endloop
  endfacet
  facet normal 5.317752e-01 7.070929e-01 4.660846e-01
    outer loop
      vertex   8.953864e+01 1.908779e+02 7.989263e+01
      vertex   8.336276e+01 2.008779e+02 7.176803e+01
      vertex   8.207709e+01 2.008779e+02 7.323491e+01
    endloop
  endfacet
  facet normal 5.970872e-01 -6.631732e-16 -8.021763e-01
    outer loop
      vertex   9.626116e+01 1.908779e+02 7.165047e+01
      vertex   7.219587e+01 1.908779e+02 5.373785e+01
      vertex   8.823939e+01 2.008779e+02 6.567960e+01
    endloop
  endfacet
  facet normal 5.970872e-01 0.000000e+00 -8.021763e-01
    outer loop
      vertex   8.823939e+01 2.008779e+02 6.567960e+01
      vertex   7.219587e+01 1.908779e+02 5.373785e+01
      vertex   7.219587e+01 2.008779e+02 5.373785e+01
    endloop
  endfacet
  facet normal 8.074387e-01 0.000000e+00 5.899515e-01
    outer loop
      vertex   7.219587e+01 2.008779e+02 5.373785e+01
      vertex   7.219587e+01 1.908779e+02 5.373785e+01
      vertex   7.313738e+01 2.008779e+02 5.244925e+01
    endloop
  endfacet
  facet normal 8.074387e-01 0.000000e+00 5.899515e-01
    outer loop
      vertex   7.313738e+01 2.008779e+02 5.244925e+01
      vertex   7.219587e+01 1.908779e+02 5.373785e+01
      vertex   7.313738e+01 1.908779e+02 5.244925e+01
    endloop
  endfacet
  facet normal 8.177725e-01 0.000000e+00 5.755416e-01
    outer loop
      vertex   7.313738e+01 2.008779e+02 5.244925e+01
      vertex   7.313738e+01 1.908779e+02 5.244925e+01
      vertex   7.405589e+01 2.008779e+02 5.114416e+01
    endloop
  endfacet
  facet normal 8.177725e-01 0.000000e+00 5.755416e-01
    outer loop
      vertex   7.405589e+01 2.008779e+02 5.114416e+01
      vertex   7.313738e+01 1.908779e+02 5.244925e+01
      vertex   7.405589e+01 1.908779e+02 5.114416e+01
    endloop
  endfacet
  facet normal 8.278492e-01 0.000000e+00 5.609507e-01
    outer loop
      vertex   7.405589e+01 2.008779e+02 5.114416e+01
      vertex   7.405589e+01 1.908779e+02 5.114416e+01
      vertex   7.495111e+01 2.008779e+02 4.982299e+01
    endloop
  endfacet
  facet normal 8.278492e-01 0.000000e+00 5.609507e-01
    outer loop
      vertex   7.495111e+01 2.008779e+02 4.982299e+01
      vertex   7.405589e+01 1.908779e+02 5.114416e+01
      vertex   7.495111e+01 1.908779e+02 4.982299e+01
    endloop
  endfacet
  facet normal 8.376656e-01 0.000000e+00 5.461834e-01
    outer loop
      vertex   7.495111e+01 2.008779e+02 4.982299e+01
      vertex   7.495111e+01 1.908779e+02 4.982299e+01
      vertex   7.582277e+01 2.008779e+02 4.848615e+01
    endloop
  endfacet
  facet normal 8.376656e-01 0.000000e+00 5.461834e-01
    outer loop
      vertex   7.582277e+01 2.008779e+02 4.848615e+01
      vertex   7.495111e+01 1.908779e+02 4.982299e+01
      vertex   7.582277e+01 1.908779e+02 4.848615e+01
    endloop
  endfacet
  facet normal 8.472186e-01 0.000000e+00 5.312444e-01
    outer loop
      vertex   7.582277e+01 2.008779e+02 4.848615e+01
      vertex   7.582277e+01 1.908779e+02 4.848615e+01
      vertex   7.667059e+01 2.008779e+02 4.713407e+01
    endloop
  endfacet
  facet normal 8.472186e-01 0.000000e+00 5.312444e-01
    outer loop
      vertex   7.667059e+01 2.008779e+02 4.713407e+01
      vertex   7.582277e+01 1.908779e+02 4.848615e+01
      vertex   7.667059e+01 1.908779e+02 4.713407e+01
    endloop
  endfacet
  facet normal -5.237119e-01 7.579123e-16 8.518954e-01
    outer loop
      vertex   1.022275e+02 1.908779e+02 6.284543e+01
      vertex   9.370850e+01 2.008779e+02 5.760831e+01
      vertex   7.667059e+01 1.908779e+02 4.713407e+01
    endloop
  endfacet
  facet normal -5.237119e-01 0.000000e+00 8.518954e-01
    outer loop
      vertex   7.667059e+01 1.908779e+02 4.713407e+01
      vertex   9.370850e+01 2.008779e+02 5.760831e+01
      vertex   7.667059e+01 2.008779e+02 4.713407e+01
    endloop
  endfacet
  facet normal -9.619737e-16 1.000000e+00 1.629482e-15
    outer loop
      vertex   3.927230e+01 2.008779e+02 6.969710e+01
      vertex   5.399941e+01 2.008779e+02 9.583352e+01
      vertex   4.904179e+01 2.008779e+02 7.546458e+01
    endloop
  endfacet
  facet normal 7.026619e-16 1.000000e+00 1.224324e-15
    outer loop
      vertex   4.904179e+01 2.008779e+02 7.546458e+01
      vertex   5.399941e+01 2.008779e+02 9.583352e+01
      vertex   5.550568e+01 2.008779e+02 9.496905e+01
    endloop
  endfacet
  facet normal 7.243239e-16 1.000000e+00 1.217145e-15
    outer loop
      vertex   4.904179e+01 2.008779e+02 7.546458e+01
      vertex   5.550568e+01 2.008779e+02 9.496905e+01
      vertex   5.699810e+01 2.008779e+02 9.408090e+01
    endloop
  endfacet
  facet normal 7.451154e-16 1.000000e+00 1.208259e-15
    outer loop
      vertex   5.699810e+01 2.008779e+02 9.408090e+01
      vertex   5.847632e+01 2.008779e+02 9.316931e+01
      vertex   4.904179e+01 2.008779e+02 7.546458e+01
    endloop
  endfacet
  facet normal 7.649553e-16 1.000000e+00 1.197687e-15
    outer loop
      vertex   4.904179e+01 2.008779e+02 7.546458e+01
      vertex   5.847632e+01 2.008779e+02 9.316931e+01
      vertex   5.993997e+01 2.008779e+02 9.223449e+01
    endloop
  endfacet
  facet normal 0.000000e+00 1.000000e+00 0.000000e+00
    outer loop
      vertex   5.037219e+01 2.008779e+02 7.458312e+01
      vertex   4.359714e+01 2.008779e+02 6.707674e+01
      vertex   4.904179e+01 2.008779e+02 7.546458e+01
    endloop
  endfacet
  facet normal 0.000000e+00 1.000000e+00 0.000000e+00
    outer loop
      vertex   4.904179e+01 2.008779e+02 7.546458e+01
      vertex   4.359714e+01 2.008779e+02 6.707674e+01
      vertex   4.217404e+01 2.008779e+02 6.798051e+01
    endloop
  endfacet
  facet normal 0.000000e+00 1.000000e+00 0.000000e+00
    outer loop
      vertex   4.904179e+01 2.008779e+02 7.546458e+01
      vertex   4.217404e+01 2.008779e+02 6.798051e+01
      vertex   4.073222e+01 2.008779e+02 6.885410e+01
    endloop
  endfacet
  facet normal -0.000000e+00 1.000000e+00 0.000000e+00
    outer loop
      vertex   4.359714e+01 2.008779e+02 6.707674e+01
      vertex   5.037219e+01 2.008779e+02 7.458312e+01
      vertex   4.500088e+01 2.008779e+02 6.614318e+01
    endloop
  endfacet
  facet normal 0.000000e+00 1.000000e+00 0.000000e+00
    outer loop
      vertex   4.500088e+01 2.008779e+02 6.614318e+01
      vertex   5.037219e+01 2.008779e+02 7.458312e+01
      vertex   5.168675e+01 2.008779e+02 7.367822e+01
    endloop
  endfacet
  facet normal -0.000000e+00 1.000000e+00 0.000000e+00
    outer loop
      vertex   4.500088e+01 2.008779e+02 6.614318e+01
      vertex   5.168675e+01 2.008779e+02 7.367822e+01
      vertex   4.638464e+01 2.008779e+02 6.518025e+01
    endloop
  endfacet
  facet normal 0.000000e+00 1.000000e+00 0.000000e+00
    outer loop
      vertex   4.638464e+01 2.008779e+02 6.518025e+01
      vertex   5.168675e+01 2.008779e+02 7.367822e+01
      vertex   5.298506e+01 2.008779e+02 7.275015e+01
    endloop
  endfacet
  facet normal -0.000000e+00 1.000000e+00 0.000000e+00
    outer loop
      vertex   4.638464e+01 2.008779e+02 6.518025e+01
      vertex   5.298506e+01 2.008779e+02 7.275015e+01
      vertex   4.774780e+01 2.008779e+02 6.418838e+01
    endloop
  endfacet
  facet normal 0.000000e+00 1.000000e+00 0.000000e+00
    outer loop
      vertex   4.774780e+01 2.008779e+02 6.418838e+01
      vertex   5.298506e+01 2.008779e+02 7.275015e+01
      vertex   5.426670e+01 2.008779e+02 7.179920e+01
    endloop
  endfacet
  facet normal -0.000000e+00 1.000000e+00 0.000000e+00
    outer loop
      vertex   4.774780e+01 2.008779e+02 6.418838e+01
      vertex   5.426670e+01 2.008779e+02 7.179920e+01
      vertex   4.908975e+01 2.008779e+02 6.316800e+01
    endloop
  endfacet
  facet normal 0.000000e+00 1.000000e+00 0.000000e+00
    outer loop
      vertex   4.908975e+01 2.008779e+02 6.316800e+01
      vertex   5.426670e+01 2.008779e+02 7.179920e+01
      vertex   5.553129e+01 2.008779e+02 7.082567e+01
    endloop
  endfacet
  facet normal -0.000000e+00 1.000000e+00 0.000000e+00
    outer loop
      vertex   4.908975e+01 2.008779e+02 6.316800e+01
      vertex   5.553129e+01 2.008779e+02 7.082567e+01
      vertex   5.040991e+01 2.008779e+02 6.211957e+01
    endloop
  endfacet
  facet normal -0.000000e+00 1.000000e+00 0.000000e+00
    outer loop
      vertex   5.040991e+01 2.008779e+02 6.211957e+01
      vertex   5.553129e+01 2.008779e+02 7.082567e+01
      vertex   5.170768e+01 2.008779e+02 6.104356e+01
    endloop
  endfacet
  facet normal 0.000000e+00 1.000000e+00 0.000000e+00
    outer loop
      vertex   5.170768e+01 2.008779e+02 6.104356e+01
      vertex   5.553129e+01 2.008779e+02 7.082567e+01
      vertex   6.158454e+01 2.008779e+02 6.563036e+01
    endloop
  endfacet
  facet normal -0.000000e+00 1.000000e+00 0.000000e+00
    outer loop
      vertex   5.170768e+01 2.008779e+02 6.104356e+01
      vertex   6.158454e+01 2.008779e+02 6.563036e+01
      vertex   5.298249e+01 2.008779e+02 5.994044e+01
    endloop
  endfacet
  facet normal -0.000000e+00 1.000000e+00 0.000000e+00
    outer loop
      vertex   5.298249e+01 2.008779e+02 5.994044e+01
      vertex   6.158454e+01 2.008779e+02 6.563036e+01
      vertex   5.423377e+01 2.008779e+02 5.881070e+01
    endloop
  endfacet
  facet normal -0.000000e+00 1.000000e+00 0.000000e+00
    outer loop
      vertex   5.423377e+01 2.008779e+02 5.881070e+01
      vertex   6.158454e+01 2.008779e+02 6.563036e+01
      vertex   5.546097e+01 2.008779e+02 5.765485e+01
    endloop
  endfacet
  facet normal 0.000000e+00 1.000000e+00 0.000000e+00
    outer loop
      vertex   5.546097e+01 2.008779e+02 5.765485e+01
      vertex   6.158454e+01 2.008779e+02 6.563036e+01
      vertex   6.273859e+01 2.008779e+02 6.452805e+01
    endloop
  endfacet
  facet normal -0.000000e+00 1.000000e+00 0.000000e+00
    outer loop
      vertex   5.546097e+01 2.008779e+02 5.765485e+01
      vertex   6.273859e+01 2.008779e+02 6.452805e+01
      vertex   5.666354e+01 2.008779e+02 5.647339e+01
    endloop
  endfacet
  facet normal 0.000000e+00 1.000000e+00 0.000000e+00
    outer loop
      vertex   5.666354e+01 2.008779e+02 5.647339e+01
      vertex   6.273859e+01 2.008779e+02 6.452805e+01
      vertex   6.387291e+01 2.008779e+02 6.340545e+01
    endloop
  endfacet
  facet normal -0.000000e+00 1.000000e+00 0.000000e+00
    outer loop
      vertex   5.666354e+01 2.008779e+02 5.647339e+01
      vertex   6.387291e+01 2.008779e+02 6.340545e+01
      vertex   5.784094e+01 2.008779e+02 5.526685e+01
    endloop
  endfacet
  facet normal 0.000000e+00 1.000000e+00 0.000000e+00
    outer loop
      vertex   5.784094e+01 2.008779e+02 5.526685e+01
      vertex   6.387291e+01 2.008779e+02 6.340545e+01
      vertex   6.498715e+01 2.008779e+02 6.226291e+01
    endloop
  endfacet
  facet normal 0.000000e+00 1.000000e+00 0.000000e+00
    outer loop
      vertex   5.784094e+01 2.008779e+02 5.526685e+01
      vertex   6.498715e+01 2.008779e+02 6.226291e+01
      vertex   6.608095e+01 2.008779e+02 6.110080e+01
    endloop
  endfacet
  facet normal 8.867457e-16 1.000000e+00 1.110552e-15
    outer loop
      vertex   6.787158e+01 2.008779e+02 8.656471e+01
      vertex   6.939584e+01 2.008779e+02 8.534763e+01
      vertex   5.553129e+01 2.008779e+02 7.082567e+01
    endloop
  endfacet
  facet normal 9.050176e-16 1.000000e+00 1.093107e-15
    outer loop
      vertex   5.553129e+01 2.008779e+02 7.082567e+01
      vertex   6.939584e+01 2.008779e+02 8.534763e+01
      vertex   7.089828e+01 2.008779e+02 8.410371e+01
    endloop
  endfacet
  facet normal 9.216538e-16 1.000000e+00 1.073853e-15
    outer loop
      vertex   5.553129e+01 2.008779e+02 7.082567e+01
      vertex   7.089828e+01 2.008779e+02 8.410371e+01
      vertex   6.158454e+01 2.008779e+02 6.563036e+01
    endloop
  endfacet
  facet normal 9.216538e-16 1.000000e+00 1.073853e-15
    outer loop
      vertex   6.158454e+01 2.008779e+02 6.563036e+01
      vertex   7.089828e+01 2.008779e+02 8.410371e+01
      vertex   7.237843e+01 2.008779e+02 8.283335e+01
    endloop
  endfacet
  facet normal 9.432075e-16 1.000000e+00 1.060330e-15
    outer loop
      vertex   6.158454e+01 2.008779e+02 6.563036e+01
      vertex   7.237843e+01 2.008779e+02 8.283335e+01
      vertex   7.383582e+01 2.008779e+02 8.153694e+01
    endloop
  endfacet
  facet normal 9.632216e-16 1.000000e+00 1.044915e-15
    outer loop
      vertex   7.383582e+01 2.008779e+02 8.153694e+01
      vertex   7.526999e+01 2.008779e+02 8.021489e+01
      vertex   6.158454e+01 2.008779e+02 6.563036e+01
    endloop
  endfacet
  facet normal -0.000000e+00 1.000000e+00 0.000000e+00
    outer loop
      vertex   5.784094e+01 2.008779e+02 5.526685e+01
      vertex   6.608095e+01 2.008779e+02 6.110080e+01
      vertex   5.899267e+01 2.008779e+02 5.403578e+01
    endloop
  endfacet
  facet normal 0.000000e+00 1.000000e+00 0.000000e+00
    outer loop
      vertex   5.899267e+01 2.008779e+02 5.403578e+01
      vertex   6.608095e+01 2.008779e+02 6.110080e+01
      vertex   6.715398e+01 2.008779e+02 5.991947e+01
    endloop
  endfacet
  facet normal -0.000000e+00 1.000000e+00 0.000000e+00
    outer loop
      vertex   5.899267e+01 2.008779e+02 5.403578e+01
      vertex   6.715398e+01 2.008779e+02 5.991947e+01
      vertex   6.011819e+01 2.008779e+02 5.278071e+01
    endloop
  endfacet
  facet normal -0.000000e+00 1.000000e+00 0.000000e+00
    outer loop
      vertex   6.011819e+01 2.008779e+02 5.278071e+01
      vertex   6.715398e+01 2.008779e+02 5.991947e+01
      vertex   6.121702e+01 2.008779e+02 5.150220e+01
    endloop
  endfacet
  facet normal -0.000000e+00 1.000000e+00 0.000000e+00
    outer loop
      vertex   6.121702e+01 2.008779e+02 5.150220e+01
      vertex   6.715398e+01 2.008779e+02 5.991947e+01
      vertex   6.228867e+01 2.008779e+02 5.020082e+01
    endloop
  endfacet
  facet normal 0.000000e+00 1.000000e+00 0.000000e+00
    outer loop
      vertex   6.228867e+01 2.008779e+02 5.020082e+01
      vertex   6.715398e+01 2.008779e+02 5.991947e+01
      vertex   7.219587e+01 2.008779e+02 5.373785e+01
    endloop
  endfacet
  facet normal -0.000000e+00 1.000000e+00 0.000000e+00
    outer loop
      vertex   6.228867e+01 2.008779e+02 5.020082e+01
      vertex   7.219587e+01 2.008779e+02 5.373785e+01
      vertex   6.333265e+01 2.008779e+02 4.887714e+01
    endloop
  endfacet
  facet normal -0.000000e+00 1.000000e+00 0.000000e+00
    outer loop
      vertex   6.333265e+01 2.008779e+02 4.887714e+01
      vertex   7.219587e+01 2.008779e+02 5.373785e+01
      vertex   6.434851e+01 2.008779e+02 4.753176e+01
    endloop
  endfacet
  facet normal 0.000000e+00 1.000000e+00 0.000000e+00
    outer loop
      vertex   6.434851e+01 2.008779e+02 4.753176e+01
      vertex   7.219587e+01 2.008779e+02 5.373785e+01
      vertex   7.313738e+01 2.008779e+02 5.244925e+01
    endloop
  endfacet
  facet normal -0.000000e+00 1.000000e+00 0.000000e+00
    outer loop
      vertex   6.434851e+01 2.008779e+02 4.753176e+01
      vertex   7.313738e+01 2.008779e+02 5.244925e+01
      vertex   6.533580e+01 2.008779e+02 4.616528e+01
    endloop
  endfacet
  facet normal 0.000000e+00 1.000000e+00 0.000000e+00
    outer loop
      vertex   6.533580e+01 2.008779e+02 4.616528e+01
      vertex   7.313738e+01 2.008779e+02 5.244925e+01
      vertex   7.405589e+01 2.008779e+02 5.114416e+01
    endloop
  endfacet
  facet normal -0.000000e+00 1.000000e+00 0.000000e+00
    outer loop
      vertex   6.533580e+01 2.008779e+02 4.616528e+01
      vertex   7.405589e+01 2.008779e+02 5.114416e+01
      vertex   6.629407e+01 2.008779e+02 4.477830e+01
    endloop
  endfacet
  facet normal 0.000000e+00 1.000000e+00 0.000000e+00
    outer loop
      vertex   6.629407e+01 2.008779e+02 4.477830e+01
      vertex   7.405589e+01 2.008779e+02 5.114416e+01
      vertex   7.495111e+01 2.008779e+02 4.982299e+01
    endloop
  endfacet
  facet normal -0.000000e+00 1.000000e+00 0.000000e+00
    outer loop
      vertex   6.629407e+01 2.008779e+02 4.477830e+01
      vertex   7.495111e+01 2.008779e+02 4.982299e+01
      vertex   6.722291e+01 2.008779e+02 4.337143e+01
    endloop
  endfacet
  facet normal 0.000000e+00 1.000000e+00 0.000000e+00
    outer loop
      vertex   6.722291e+01 2.008779e+02 4.337143e+01
      vertex   7.495111e+01 2.008779e+02 4.982299e+01
      vertex   7.582277e+01 2.008779e+02 4.848615e+01
    endloop
  endfacet
  facet normal -0.000000e+00 1.000000e+00 0.000000e+00
    outer loop
      vertex   6.722291e+01 2.008779e+02 4.337143e+01
      vertex   7.582277e+01 2.008779e+02 4.848615e+01
      vertex   6.812189e+01 2.008779e+02 4.194530e+01
    endloop
  endfacet
  facet normal 0.000000e+00 1.000000e+00 0.000000e+00
    outer loop
      vertex   6.812189e+01 2.008779e+02 4.194530e+01
      vertex   7.582277e+01 2.008779e+02 4.848615e+01
      vertex   7.667059e+01 2.008779e+02 4.713407e+01
    endloop
  endfacet
  facet normal -0.000000e+00 1.000000e+00 0.000000e+00
    outer loop
      vertex   6.812189e+01 2.008779e+02 4.194530e+01
      vertex   7.667059e+01 2.008779e+02 4.713407e+01
      vertex   6.899062e+01 2.008779e+02 4.050054e+01
    endloop
  endfacet
  facet normal -0.000000e+00 1.000000e+00 0.000000e+00
    outer loop
      vertex   6.899062e+01 2.008779e+02 4.050054e+01
      vertex   7.667059e+01 2.008779e+02 4.713407e+01
      vertex   6.982872e+01 2.008779e+02 3.903780e+01
    endloop
  endfacet
  facet normal -0.000000e+00 1.000000e+00 0.000000e+00
    outer loop
      vertex   6.982872e+01 2.008779e+02 3.903780e+01
      vertex   7.667059e+01 2.008779e+02 4.713407e+01
      vertex   7.063581e+01 2.008779e+02 3.755773e+01
    endloop
  endfacet
  facet normal 0.000000e+00 1.000000e+00 0.000000e+00
    outer loop
      vertex   7.063581e+01 2.008779e+02 3.755773e+01
      vertex   7.667059e+01 2.008779e+02 4.713407e+01
      vertex   9.712424e+01 2.008779e+02 5.164187e+01
    endloop
  endfacet
  facet normal 0.000000e+00 1.000000e+00 0.000000e+00
    outer loop
      vertex   9.712424e+01 2.008779e+02 5.164187e+01
      vertex   7.667059e+01 2.008779e+02 4.713407e+01
      vertex   9.630537e+01 2.008779e+02 5.315332e+01
    endloop
  endfacet
  facet normal 0.000000e+00 1.000000e+00 0.000000e+00
    outer loop
      vertex   9.630537e+01 2.008779e+02 5.315332e+01
      vertex   7.667059e+01 2.008779e+02 4.713407e+01
      vertex   9.546299e+01 2.008779e+02 5.465178e+01
    endloop
  endfacet
  facet normal 0.000000e+00 1.000000e+00 0.000000e+00
    outer loop
      vertex   9.546299e+01 2.008779e+02 5.465178e+01
      vertex   7.667059e+01 2.008779e+02 4.713407e+01
      vertex   9.459730e+01 2.008779e+02 5.613690e+01
    endloop
  endfacet
  facet normal 0.000000e+00 1.000000e+00 0.000000e+00
    outer loop
      vertex   9.459730e+01 2.008779e+02 5.613690e+01
      vertex   7.667059e+01 2.008779e+02 4.713407e+01
      vertex   9.370850e+01 2.008779e+02 5.760831e+01
    endloop
  endfacet
  facet normal 0.000000e+00 1.000000e+00 0.000000e+00
    outer loop
      vertex   8.207709e+01 2.008779e+02 7.323491e+01
      vertex   8.336276e+01 2.008779e+02 7.176803e+01
      vertex   6.715398e+01 2.008779e+02 5.991947e+01
    endloop
  endfacet
  facet normal 0.000000e+00 1.000000e+00 0.000000e+00
    outer loop
      vertex   6.715398e+01 2.008779e+02 5.991947e+01
      vertex   8.336276e+01 2.008779e+02 7.176803e+01
      vertex   8.462221e+01 2.008779e+02 7.027859e+01
    endloop
  endfacet
  facet normal -0.000000e+00 1.000000e+00 0.000000e+00
    outer loop
      vertex   6.715398e+01 2.008779e+02 5.991947e+01
      vertex   8.462221e+01 2.008779e+02 7.027859e+01
      vertex   7.219587e+01 2.008779e+02 5.373785e+01
    endloop
  endfacet
  facet normal 0.000000e+00 1.000000e+00 0.000000e+00
    outer loop
      vertex   7.219587e+01 2.008779e+02 5.373785e+01
      vertex   8.462221e+01 2.008779e+02 7.027859e+01
      vertex   8.585506e+01 2.008779e+02 6.876706e+01
    endloop
  endfacet
  facet normal 0.000000e+00 1.000000e+00 0.000000e+00
    outer loop
      vertex   7.219587e+01 2.008779e+02 5.373785e+01
      vertex   8.585506e+01 2.008779e+02 6.876706e+01
      vertex   8.706092e+01 2.008779e+02 6.723390e+01
    endloop
  endfacet
  facet normal 0.000000e+00 1.000000e+00 0.000000e+00
    outer loop
      vertex   8.706092e+01 2.008779e+02 6.723390e+01
      vertex   8.823939e+01 2.008779e+02 6.567960e+01
      vertex   7.219587e+01 2.008779e+02 5.373785e+01
    endloop
  endfacet
  facet normal 0.000000e+00 1.000000e+00 -0.000000e+00
    outer loop
      vertex   4.073222e+01 2.008779e+02 6.885410e+01
      vertex   3.927230e+01 2.008779e+02 6.969710e+01
      vertex   4.904179e+01 2.008779e+02 7.546458e+01
    endloop
  endfacet
  facet normal 6.217348e-01 7.070960e-01 3.368399e-01
    outer loop
      vertex   1.059537e+02 1.908779e+02 5.633659e+01
      vertex   9.712424e+01 2.008779e+02 5.164187e+01
      vertex   1.050604e+02 1.908779e+02 5.798544e+01
    endloop
  endfacet
  facet normal 6.217348e-01 7.070960e-01 3.368399e-01
    outer loop
      vertex   1.050604e+02 1.908779e+02 5.798544e+01
      vertex   9.712424e+01 2.008779e+02 5.164187e+01
      vertex   9.630537e+01 2.008779e+02 5.315332e+01
    endloop
  endfacet
  facet normal 6.163951e-01 7.070960e-01 3.465146e-01
    outer loop
      vertex   1.050604e+02 1.908779e+02 5.798544e+01
      vertex   9.630537e+01 2.008779e+02 5.315332e+01
      vertex   1.041414e+02 1.908779e+02 5.962013e+01
    endloop
  endfacet
  facet normal 6.163951e-01 7.070960e-01 3.465146e-01
    outer loop
      vertex   1.041414e+02 1.908779e+02 5.962013e+01
      vertex   9.630537e+01 2.008779e+02 5.315332e+01
      vertex   9.546299e+01 2.008779e+02 5.465178e+01
    endloop
  endfacet
  facet normal 6.109049e-01 7.070960e-01 3.561046e-01
    outer loop
      vertex   1.041414e+02 1.908779e+02 5.962013e+01
      vertex   9.546299e+01 2.008779e+02 5.465178e+01
      vertex   1.031971e+02 1.908779e+02 6.124025e+01
    endloop
  endfacet
  facet normal 6.109049e-01 7.070960e-01 3.561046e-01
    outer loop
      vertex   1.031971e+02 1.908779e+02 6.124025e+01
      vertex   9.546299e+01 2.008779e+02 5.465178e+01
      vertex   9.459730e+01 2.008779e+02 5.613690e+01
    endloop
  endfacet
  facet normal 6.052655e-01 7.070960e-01 3.656077e-01
    outer loop
      vertex   1.031971e+02 1.908779e+02 6.124025e+01
      vertex   9.459730e+01 2.008779e+02 5.613690e+01
      vertex   1.022275e+02 1.908779e+02 6.284543e+01
    endloop
  endfacet
  facet normal 6.052655e-01 7.070960e-01 3.656077e-01
    outer loop
      vertex   1.022275e+02 1.908779e+02 6.284543e+01
      vertex   9.459730e+01 2.008779e+02 5.613690e+01
      vertex   9.370850e+01 2.008779e+02 5.760831e+01
    endloop
  endfacet
endsolid
