0
SECTION
2
HEADER
9
$INSUNITS
70
4
9
$ACADVER
1
AC1014
9
$HANDSEED
5
FFFF
0
ENDSEC
0
SECTION
2
TABLES
0
TABLE
2
VPORT
5
8
100
AcDbSymbolTable
0
ENDTAB
0
TABLE
2
LTYPE
5
5
100
AcDbSymbolTable
0
LTYPE
5
14
100
AcDbSymbolTableRecord
100
AcDbLinetypeTableRecord
2
BYBLOCK
70
0
0
LTYPE
5
15
100
AcDbSymbolTableRecord
100
AcDbLinetypeTableRecord
2
BYLAYER
70
0
0
ENDTAB
0
TABLE
2
LAYER
5
2
100
AcDbSymbolTable
70
2
0
LAYER
5
50
100
AcDbSymbolTableRecord
100
AcDbLayerTableRecord
2
0
70
0
6
CONTINUOUS
0
ENDTAB
0
TABLE
2
STYLE
5
3
100
AcDbSymbolTable
70
1
0
STYLE
5
11
100
AcDbSymbolTableRecord
100
AcDbTextStyleTableRecord
2
STANDARD
70
0
0
ENDTAB
0
TABLE
2
VIEW
5
6
100
AcDbSymbolTable
70
0
0
ENDTAB
0
TABLE
2
UCS
5
7
100
AcDbSymbolTable
70
0
0
ENDTAB
0
TABLE
2
APPID
5
9
100
AcDbSymbolTable
70
2
0
APPID
5
12
100
AcDbSymbolTableRecord
100
AcDbRegAppTableRecord
2
ACAD
70
0
0
ENDTAB
0
TABLE
2
DIMSTYLE
5
A
100
AcDbSymbolTable
70
1
0
ENDTAB
0
TABLE
2
BLOCK_RECORD
5
1
100
AcDbSymbolTable
70
1
0
BLOCK_RECORD
5
1F
100
AcDbSymbolTableRecord
100
AcDbBlockTableRecord
2
*MODEL_SPACE
0
BLOCK_RECORD
5
1B
100
AcDbSymbolTableRecord
100
AcDbBlockTableRecord
2
*PAPER_SPACE
0
ENDTAB
0
ENDSEC
0
SECTION
2
BLOCKS
0
BLOCK
5
20
100
AcDbEntity
100
AcDbBlockBegin
2
*MODEL_SPACE
0
ENDBLK
5
21
100
AcDbEntity
100
AcDbBlockEnd
0
BLOCK
5
1C
100
AcDbEntity
100
AcDbBlockBegin
2
*PAPER_SPACE
0
ENDBLK
5
1D
100
AcDbEntity
100
AcDbBlockEnd
0
ENDSEC
0
SECTION
2
ENTITIES
0
LWPOLYLINE
5
100
100
AcDbEntity
8
0
100
AcDbPolyline
90
28
70
1
43
0.0
10
-5.9242115383179925
20
99.824364348836525
42
-0.99999999999999989
10
5.9242115383180103
20
-99.824364348836525
42
1.4612337806387425
10
0.99999581303060814
20
-91.909714082720072
10
-1.0000128325209767
20
-90.411737149962931
42
-2.9987373768925787
10
-0.99999410470782257
20
-84.409716378989401
10
0.9999941729549483
20
-82.911598354084518
42
2.9988220734833315
10
0.9999964963593001
20
-76.909713172062879
10
-1.0000123680380852
20
-75.411736530982168
42
-2.9987377635367385
10
-0.99999410470782091
20
-69.409716378989401
10
0.99999417295494997
20
-67.911598354084532
42
2.9988215046243405
10
0.99999717968799162
20
-61.909712261406085
10
-1.0000119255269841
20
-60.411735941281336
42
-2.9987381318913311
10
-0.99999410470781924
20
-54.409716378989401
10
0.99999417295495052
20
-52.911598354084518
42
0.79211188590985337
10
9.91689283793011
20
-49.006685630034298
42
0.99999999999999989
10
-9.9168928379301047
20
49.006685630034319
42
-0.79211188590985215
10
-0.99999417295495774
20
52.911598354084518
10
0.99999410470781036
20
54.409716378989401
42
2.9987381318913311
10
1.0000119255269773
20
60.411735941281336
10
-0.99999717968799862
20
61.909712261406085
42
-2.9988215046243427
10
-0.99999417295495774
20
67.911598354084518
10
0.99999410470781092
20
69.409716378989401
42
2.9987377635367385
10
1.0000123680380772
20
75.411736530982168
10
-0.99999649635930443
20
76.909713172062879
42
-2.9988220734833337
10
-0.99999417295495774
20
82.911598354084518
10
0.99999410470781258
20
84.409716378989401
42
2.9987373768925787
10
1.0000128325209672
20
90.411737149962931
10
-0.99999581303061691
20
91.909714082720072
42
-1.4612337806387488
0
LWPOLYLINE
5
101
100
AcDbEntity
8
0
100
AcDbPolyline
90
8
70
1
43
0.0
10
38.952372551062496
20
51.990448330753665
10
40.278881857592559
20
44.470346033082542
42
-0.44346671212624339
10
40.27888185759253
20
-44.470346033082571
10
38.952372551062481
20
-51.990448330753694
10
49.095619192812919
20
-69.410018155462936
10
55.626542434016685
20
-70.750885343128687
42
0.48583784357295895
10
55.626542434016713
20
70.750885343128644
10
49.09561919281294
20
69.410018155462922
0
ENDSEC
0
SECTION
2
OBJECTS
0
DICTIONARY
5
C
100
AcDbDictionary
3
ACAD_GROUP
350
D
3
ACAD_MLINESTYLE
350
17
0
DICTIONARY
5
D
100
AcDbDictionary
0
DICTIONARY
5
1A
330
C
100
AcDbDictionary
0
DICTIONARY
5
17
100
AcDbDictionary
0
ENDSEC
0
EOF
