0
SECTION
2
HEADER
9
$INSUNITS
70
4
9
$ACADVER
1
AC1014
9
$HANDSEED
5
FFFF
0
ENDSEC
0
SECTION
2
TABLES
0
TABLE
2
VPORT
5
8
100
AcDbSymbolTable
0
ENDTAB
0
TABLE
2
LTYPE
5
5
100
AcDbSymbolTable
0
LTYPE
5
14
100
AcDbSymbolTableRecord
100
AcDbLinetypeTableRecord
2
BYBLOCK
70
0
0
LTYPE
5
15
100
AcDbSymbolTableRecord
100
AcDbLinetypeTableRecord
2
BYLAYER
70
0
0
ENDTAB
0
TABLE
2
LAYER
5
2
100
AcDbSymbolTable
70
2
0
LAYER
5
50
100
AcDbSymbolTableRecord
100
AcDbLayerTableRecord
2
0
70
0
6
CONTINUOUS
0
ENDTAB
0
TABLE
2
STYLE
5
3
100
AcDbSymbolTable
70
1
0
STYLE
5
11
100
AcDbSymbolTableRecord
100
AcDbTextStyleTableRecord
2
STANDARD
70
0
0
ENDTAB
0
TABLE
2
VIEW
5
6
100
AcDbSymbolTable
70
0
0
ENDTAB
0
TABLE
2
UCS
5
7
100
AcDbSymbolTable
70
0
0
ENDTAB
0
TABLE
2
APPID
5
9
100
AcDbSymbolTable
70
2
0
APPID
5
12
100
AcDbSymbolTableRecord
100
AcDbRegAppTableRecord
2
ACAD
70
0
0
ENDTAB
0
TABLE
2
DIMSTYLE
5
A
100
AcDbSymbolTable
70
1
0
ENDTAB
0
TABLE
2
BLOCK_RECORD
5
1
100
AcDbSymbolTable
70
1
0
BLOCK_RECORD
5
1F
100
AcDbSymbolTableRecord
100
AcDbBlockTableRecord
2
*MODEL_SPACE
0
BLOCK_RECORD
5
1B
100
AcDbSymbolTableRecord
100
AcDbBlockTableRecord
2
*PAPER_SPACE
0
ENDTAB
0
ENDSEC
0
SECTION
2
BLOCKS
0
BLOCK
5
20
100
AcDbEntity
100
AcDbBlockBegin
2
*MODEL_SPACE
0
ENDBLK
5
21
100
AcDbEntity
100
AcDbBlockEnd
0
BLOCK
5
1C
100
AcDbEntity
100
AcDbBlockBegin
2
*PAPER_SPACE
0
ENDBLK
5
1D
100
AcDbEntity
100
AcDbBlockEnd
0
ENDSEC
0
SECTION
2
ENTITIES
0
CIRCLE
5
100
100
AcDbEntity
8
0
100
AcDbCircle
10
8.8253813771600696e-30
20
-3.9745984281580604e-14
30
0
40
49
210
-0
220
5.3976053469340243e-79
230
1
0
LWPOLYLINE
5
101
100
AcDbEntity
8
0
100
AcDbPolyline
90
4
70
1
43
0.0
10
27.67027433338686
20
30.25485032871282
42
-0.022298535354268973
10
30.25485032871288
20
27.670274333386793
42
-0.99999999999999989
10
27.672119192095156
20
25.308177733894752
42
0.022298535354268633
10
25.308177733894787
20
27.672119192095099
42
-0.99999999999999989
0
LWPOLYLINE
5
102
100
AcDbEntity
8
0
100
AcDbPolyline
90
4
70
1
43
0.0
10
40.959248449646843
20
1.8275712127870332
42
-0.022298535354269528
10
40.959248449646836
20
-1.8275712127870762
42
-0.99999999999999989
10
37.462727225644286
20
-1.671559035421528
42
0.022298535354268633
10
37.462727225644279
20
1.6715590354214493
42
-0.99999999999999989
0
LWPOLYLINE
5
103
100
AcDbEntity
8
0
100
AcDbPolyline
90
4
70
1
43
0.0
10
30.254850328713005
20
-27.670274333386743
42
-0.022298535354270194
10
27.670274333386825
20
-30.254850328712912
42
-0.99999999999999989
10
25.308177733894794
20
-27.672119192095181
42
0.022298535354268321
10
27.672119192095078
20
-25.308177733894865
42
-0.99999999999999989
0
LWPOLYLINE
5
104
100
AcDbEntity
8
0
100
AcDbPolyline
90
4
70
1
43
0.0
10
1.8275712127870767
20
-40.959248449646864
42
-0.022298535354269528
10
-1.8275712127870332
20
-40.959248449646864
42
-0.99999999999999989
10
-1.6715590354214847
20
-37.462727225644329
42
0.022298535354268633
10
1.6715590354214931
20
-37.462727225644315
42
-0.99999999999999989
0
LWPOLYLINE
5
105
100
AcDbEntity
8
0
100
AcDbPolyline
90
4
70
1
43
0.0
10
-27.67027433338686
20
-30.254850328712891
42
-0.022298535354268973
10
-30.254850328712884
20
-27.670274333386857
42
-0.99999999999999989
10
-27.672119192095156
20
-25.30817773389483
42
0.022298535354268945
10
-25.308177733894837
20
-27.672119192095145
42
-0.99999999999999989
0
LWPOLYLINE
5
106
100
AcDbEntity
8
0
100
AcDbPolyline
90
4
70
1
43
0.0
10
-40.959248449646836
20
-1.8275712127871333
42
-0.022298535354269528
10
-40.959248449646836
20
1.8275712127869923
42
-0.99999999999999989
10
-37.462727225644301
20
1.6715590354214318
42
0.022298535354270191
10
-37.462727225644301
20
-1.6715590354215455
42
-0.99999999999999989
0
ARC
5
107
100
AcDbEntity
8
0
100
AcDbCircle
10
8.8253813771600696e-30
20
-3.9745984281580604e-14
30
0
40
41.000000610947609
210
-2.0353000733255888e-32
220
-3.1080349525971924e-33
230
1
100
AcDbArc
50
132.44519945025172
51
137.55480054974828
0
ARC
5
108
100
AcDbEntity
8
0
100
AcDbCircle
10
-26.489226033640811
20
28.963484760403976
30
-3.4211388289180104e-48
40
1.7500000335276078
210
-3.7158076440129731e-33
220
-1.508317561294436e-32
230
1
100
AcDbArc
50
-47.55480054974813
51
132.4451994502522
0
ARC
5
109
100
AcDbEntity
8
0
100
AcDbCircle
10
8.8253813771600696e-30
20
-3.9745984281580604e-14
30
0
40
37.500000543892384
210
-9.806551509090958e-33
220
-8.4235183284440052e-33
230
1
100
AcDbArc
50
132.44519945025172
51
137.55480054974828
0
ARC
5
110
100
AcDbEntity
8
0
100
AcDbCircle
10
-28.963484760404011
20
26.489226033640772
30
3.4211388289180104e-47
40
1.7500000335276202
210
-2.3420919663170553e-31
220
1.9247910427214498e-31
230
1
100
AcDbArc
50
137.55480054974799
51
317.55480054974845
0
LWPOLYLINE
5
111
100
AcDbEntity
8
0
100
AcDbPolyline
90
4
70
1
43
0.0
10
-1.8275712127870822
20
40.959248449646786
42
-0.022298535354269528
10
1.8275712127870283
20
40.959248449646793
42
-0.99999999999999989
10
1.6715590354214795
20
37.462727225644251
42
0.022298535354268633
10
-1.6715590354214771
20
37.462727225644258
42
-0.99999999999999989
0
LWPOLYLINE
5
112
100
AcDbEntity
8
0
100
AcDbPolyline
90
4
70
1
43
0.0
10
21.566757142291067
20
22.980970725737539
42
-0.99999999999999989
10
22.980970725737588
20
21.566757142291021
10
17.677669793081495
20
16.263456209634928
42
-0.99999999999999989
10
16.263456209634978
20
17.677669793081449
0
LWPOLYLINE
5
113
100
AcDbEntity
8
0
100
AcDbPolyline
90
4
70
1
43
0.0
10
31.500000461935997
20
1.0000000149011143
42
-0.99999999999999989
10
31.500000461935997
20
-1.000000014901208
10
24.000000357627869
20
-1.0000000149012063
42
-0.99999999999999989
10
24.000000357627869
20
1.0000000149011161
0
LWPOLYLINE
5
114
100
AcDbEntity
8
0
100
AcDbPolyline
90
4
70
1
43
0.0
10
22.980970725737578
20
-21.566757142291095
42
-0.99999999999999989
10
21.56675714229106
20
-22.980970725737613
10
16.26345620963497
20
-17.677669793081531
42
-0.99999999999999989
10
17.677669793081488
20
-16.263456209635009
0
LWPOLYLINE
5
115
100
AcDbEntity
8
0
100
AcDbPolyline
90
4
70
1
43
0.0
10
1.0000000149011572
20
-31.500000461936033
42
-0.99999999999999989
10
-1.0000000149011652
20
-31.500000461936033
10
-1.0000000149011641
20
-24.000000357627904
42
-0.99999999999999989
10
1.0000000149011583
20
-24.000000357627904
0
LWPOLYLINE
5
116
100
AcDbEntity
8
0
100
AcDbPolyline
90
4
70
1
43
0.0
10
-21.566757142291067
20
-22.980970725737613
42
-0.99999999999999989
10
-22.980970725737588
20
-21.566757142291095
10
-17.677669793081495
20
-16.263456209635009
42
-0.99999999999999989
10
-16.263456209634978
20
-17.677669793081531
0
LWPOLYLINE
5
117
100
AcDbEntity
8
0
100
AcDbPolyline
90
4
70
1
43
0.0
10
-31.500000461936004
20
-1.0000000149012083
42
-0.99999999999999989
10
-31.500000461936004
20
1.0000000149011148
10
-24.000000357627872
20
1.0000000149011163
42
-0.99999999999999989
10
-24.000000357627872
20
-1.0000000149012065
0
LWPOLYLINE
5
118
100
AcDbEntity
8
0
100
AcDbPolyline
90
4
70
1
43
0.0
10
-22.980970725737585
20
21.566757142291024
42
-0.99999999999999989
10
-21.566757142291063
20
22.980970725737542
10
-16.263456209634974
20
17.677669793081449
42
-0.99999999999999989
10
-17.677669793081492
20
16.263456209634931
0
LWPOLYLINE
5
119
100
AcDbEntity
8
0
100
AcDbPolyline
90
4
70
1
43
0.0
10
-1.0000000149011612
20
31.500000461935961
42
-0.99999999999999989
10
1.0000000149011612
20
31.500000461935961
10
1.0000000149011612
20
24.000000357627833
42
-0.99999999999999989
10
-1.0000000149011612
20
24.000000357627833
0
CIRCLE
5
120
100
AcDbEntity
8
0
100
AcDbCircle
10
24.748737341529168
20
24.748737341529122
30
0
40
1.4999999999999991
210
0
220
5.3976053469340249e-79
230
1
0
CIRCLE
5
121
100
AcDbEntity
8
0
100
AcDbCircle
10
35
20
-4.75175454539567e-14
30
0
40
1.4999999999999991
210
0
220
5.3976053469340249e-79
230
1
0
CIRCLE
5
122
100
AcDbEntity
8
0
100
AcDbCircle
10
24.748737341529157
20
-24.748737341529193
30
0
40
1.4999999999999991
210
0
220
5.3976053469340249e-79
230
1
0
CIRCLE
5
123
100
AcDbEntity
8
0
100
AcDbCircle
10
-4.286263797015727e-15
20
-35.000000000000036
30
0
40
1.5
210
0
220
5.3976053469340249e-79
230
1
0
CIRCLE
5
124
100
AcDbEntity
8
0
100
AcDbCircle
10
-24.748737341529168
20
-24.748737341529193
30
0
40
1.4999999999999991
210
0
220
5.3976053469340249e-79
230
1
0
CIRCLE
5
125
100
AcDbEntity
8
0
100
AcDbCircle
10
-35.000000000000007
20
-4.75175454539567e-14
30
0
40
1.4999999999999991
210
0
220
5.3976053469340249e-79
230
1
0
CIRCLE
5
126
100
AcDbEntity
8
0
100
AcDbCircle
10
8.8253813771600668e-30
20
34.999999999999964
30
0
40
1.5
210
0
220
5.3976053469340249e-79
230
1
0
CIRCLE
5
127
100
AcDbEntity
8
0
100
AcDbCircle
10
-24.748737341529164
20
24.748737341529122
30
0
40
1.4999999999999991
210
0
220
5.3976053469340249e-79
230
1
0
CIRCLE
5
128
100
AcDbEntity
8
0
100
AcDbCircle
10
8.8253813771600696e-30
20
-3.9745984281580604e-14
30
0
40
21
210
0
220
5.3976053469340243e-79
230
1
0
ARC
5
129
100
AcDbEntity
8
0
100
AcDbCircle
10
28.642962304072384
20
4.5365995537672497
30
2.7369110631344083e-47
40
1.0000000149011594
210
4.4634189770370546e-33
220
-3.2061212057403852e-32
230
1
100
AcDbArc
50
-170.99999999999997
51
9.0000000000000266
0
ARC
5
130
100
AcDbEntity
8
0
100
AcDbCircle
10
8.8253813771600696e-30
20
-3.9745984281580604e-14
30
0
40
28.000000417232513
210
1.227962110911146e-33
220
-7.6144657187821522e-33
230
1
100
AcDbArc
50
8.999999999999984
51
35.999999999999972
0
ARC
5
131
100
AcDbEntity
8
0
100
AcDbCircle
10
23.461493186476972
20
17.045772570483471
30
4.9606513019311151e-47
40
1.0000000149011599
210
-1.9563860988877229e-32
220
1.0907568471452714e-32
230
1
100
AcDbArc
50
36.000000000000064
51
215.99999999999986
0
ARC
5
132
100
AcDbEntity
8
0
100
AcDbCircle
10
8.8253813771600696e-30
20
-3.9745984281580604e-14
30
0
40
30.000000447034832
210
-3.9348304401418259e-33
220
2.4714198527084707e-32
230
1
100
AcDbArc
50
8.999999999999984
51
35.999999999999972
0
ARC
5
133
100
AcDbEntity
8
0
100
AcDbCircle
10
-28.642962304072391
20
-4.5365995537673411
30
1.4967482376516296e-47
40
1.0000000149011592
210
6.0701183646619156e-34
220
-7.7128156324208064e-33
230
1
100
AcDbArc
50
8.9999999999999023
51
189.00000085377351
0
ARC
5
134
100
AcDbEntity
8
0
100
AcDbCircle
10
8.8253813771600696e-30
20
-3.9745984281580604e-14
30
0
40
28.000000417232517
210
1.2279621109111537e-33
220
-7.6144657187821796e-33
230
1
100
AcDbArc
50
188.99999999999997
51
215.99999999999994
0
ARC
5
135
100
AcDbEntity
8
0
100
AcDbCircle
10
-23.461493186476968
20
-17.045772570483567
30
3.934309653255712e-47
40
1.0000000149011599
210
-1.95638609888773e-32
220
1.090756847145266e-32
230
1
100
AcDbArc
50
-144.00000000000011
51
36.000000000001407
0
ARC
5
136
100
AcDbEntity
8
0
100
AcDbCircle
10
8.8253813771600696e-30
20
-3.9745984281580604e-14
30
0
40
30.000000447034839
210
-3.9348304558634635e-33
220
2.4714198522397714e-32
230
1
100
AcDbArc
50
189.00000002845908
51
216
0
LWPOLYLINE
5
137
100
AcDbEntity
8
0
100
AcDbPolyline
90
4
70
1
43
0.0
10
-24.270510192907203
20
17.633557831534631
42
-0.99999999999999989
10
-22.652476180046726
20
16.457987309432326
42
0.11835779964076756
10
-27.655273948759547
20
4.380165086395972
42
-0.99999999999999989
10
-29.630650659385221
20
4.6930340211385442
42
-0.11835779964076772
0
ARC
5
138
100
AcDbEntity
8
0
100
AcDbCircle
10
8.8253813771600696e-30
20
-3.9745984281580604e-14
30
0
40
38.000000566244125
210
-2.5017644728824626e-32
220
-2.3526266877350013e-32
230
1
100
AcDbArc
50
189.00000003177414
51
216
0
ARC
5
139
100
AcDbEntity
8
0
100
AcDbCircle
10
-36.544469146575125
20
-5.7880752927376333
30
-8.5528470722950261e-49
40
1.0000000149011505
210
6.0701183646619378e-34
220
-7.7128156324208392e-33
230
1
100
AcDbArc
50
9.0000000000000657
51
189.00000120741814
0
ARC
5
140
100
AcDbEntity
8
0
100
AcDbCircle
10
8.8253813771600696e-30
20
-3.9745984281580604e-14
30
0
40
36.000000536441824
210
1.2232038700147513e-33
220
-7.6152193501034824e-33
230
1
100
AcDbArc
50
188.99999999999997
51
215.99999999999994
0
ARC
5
141
100
AcDbEntity
8
0
100
AcDbCircle
10
-29.933629237918886
20
-21.748054658892812
30
7.0133345992819214e-47
40
1.000000014901153
210
-1.0592893031733161e-30
220
-7.4449718400901571e-31
230
1
100
AcDbArc
50
-143.99999999999932
51
36.000000000001869
0
LWPOLYLINE
5
142
100
AcDbEntity
8
0
100
AcDbPolyline
90
4
70
1
43
0.0
10
-40.986300723408377
20
-20.883563299208525
42
-0.99999999999999989
10
-39.204287648477589
20
-19.975582286199455
42
0.15838444032453627
10
-19.975582286199426
20
-39.204287648477639
42
-0.99999999999999989
10
-20.883563299208497
20
-40.986300723408405
42
-0.15838444032453616
0
LWPOLYLINE
5
143
100
AcDbEntity
8
0
100
AcDbPolyline
90
4
70
1
43
0.0
10
22.335839919943901
20
-30.742646244349181
42
-0.11835779964076749
10
5.9445097601088692
20
-37.53215750188798
42
-0.99999999999999989
10
5.6316408253662962
20
-35.556780791262327
42
0.11835779964076774
10
21.160269397841631
20
-29.124612231488683
42
-0.99999999999999989
0
ARC
5
144
100
AcDbEntity
8
0
100
AcDbCircle
10
20.429572792703951
20
-40.09529418594304
30
-8.5528470722950261e-47
40
1.0000000149011687
210
-6.0271632054416619e-33
220
2.7142418486834414e-32
230
1
100
AcDbArc
50
116.99999999999994
51
297.00000000000011
0
ARC
5
145
100
AcDbEntity
8
0
100
AcDbCircle
10
8.8253813771600696e-30
20
-3.9745984281580604e-14
30
0
40
44.000000655651093
210
6.4721817070404418e-33
220
2.6110728496652244e-33
230
1
100
AcDbArc
50
297
51
332.99999999999994
0
ARC
5
146
100
AcDbEntity
8
0
100
AcDbCircle
10
40.095294185942983
20
-20.429572792703997
30
-6.1580498920524188e-47
40
1.0000000149011599
210
5.3737932494965225e-33
220
2.2383459786641867e-32
230
1
100
AcDbArc
50
-27.000000000001016
51
153.00000000000117
0
ARC
5
147
100
AcDbEntity
8
0
100
AcDbCircle
10
8.8253813771600696e-30
20
-3.9745984281580604e-14
30
0
40
46.000000685453429
210
-1.6029945896049117e-32
220
-7.5108520939631114e-33
230
1
100
AcDbArc
50
297
51
332.99999999999994
0
LWPOLYLINE
5
148
100
AcDbEntity
8
0
100
AcDbPolyline
90
4
70
1
43
0.0
10
37.532157501887966
20
-5.9445097601089136
42
-0.11835779964076772
10
30.74264624434911
20
-22.335839919943954
42
-0.99999999999999989
10
29.124612231488651
20
-21.16026939784166
42
0.11835779964076751
10
35.55678079126227
20
-5.6316408253663379
42
-0.99999999999999989
0
ARC
5
149
100
AcDbEntity
8
0
100
AcDbCircle
10
42.797543871014994
20
-13.90576495408472
30
5.5593505969917669e-48
40
1.0000000149011643
210
1.4135776684394259e-32
220
1.1426785589591874e-32
230
1
100
AcDbArc
50
162.00000000000028
51
342.00000000000045
0
ARC
5
150
100
AcDbEntity
8
0
100
AcDbCircle
10
8.8253813771600696e-30
20
-3.9745984281580604e-14
30
0
40
44.000000655651085
210
4.4938290820765422e-33
220
1.4559644275630763e-32
230
1
100
AcDbArc
50
-18
51
17.999999999999929
0
ARC
5
151
100
AcDbEntity
8
0
100
AcDbCircle
10
42.797543871015009
20
13.905764954084619
30
-6.9278061285589711e-47
40
1.0000000149011636
210
2.4131000537546628e-33
220
-1.5235714119456063e-32
230
1
100
AcDbArc
50
17.999999999999638
51
198.00000000000244
0
ARC
5
152
100
AcDbEntity
8
0
100
AcDbCircle
10
8.8253813771600696e-30
20
-3.9745984281580604e-14
30
0
40
46.000000685453415
210
-1.8034518554495684e-33
220
-6.2478162942390966e-33
230
1
100
AcDbArc
50
-18
51
17.999999999999968
0
ARC
5
153
100
AcDbEntity
8
0
100
AcDbCircle
10
8.8253813771600696e-30
20
-3.9745984281580604e-14
30
0
40
38.000000566244118
210
-5.0738360250182681e-33
220
-9.0362416836311715e-33
230
1
100
AcDbArc
50
8.999999999999984
51
35.999999999999957
0
ARC
5
154
100
AcDbEntity
8
0
100
AcDbCircle
10
36.544469146575118
20
5.7880752927375392
30
1.5395124730131047e-47
40
1.0000000149011508
210
6.070115113953586e-34
220
-7.7128135800043455e-33
230
1
100
AcDbArc
50
-170.99999999999986
51
9.0000000000010818
0
ARC
5
155
100
AcDbEntity
8
0
100
AcDbCircle
10
8.8253813771600696e-30
20
-3.9745984281580604e-14
30
0
40
36.000000536441817
210
1.2232038700147455e-33
220
-7.6152193501034633e-33
230
1
100
AcDbArc
50
8.999999999999984
51
35.999999999999972
0
ARC
5
156
100
AcDbEntity
8
0
100
AcDbCircle
10
29.93362923791889
20
21.748054658892727
30
3.4211388289180104e-48
40
1.0000000149011579
210
-3.0142457242867889e-31
220
-1.9387622664767668e-31
230
1
100
AcDbArc
50
35.99999999999887
51
216.00000000000034
0
LWPOLYLINE
5
157
100
AcDbEntity
8
0
100
AcDbPolyline
90
4
70
1
43
0.0
10
40.986300723408391
20
20.883563299208454
42
-0.99999999999999989
10
39.204287648477582
20
19.975582286199391
42
0.15838444032453616
10
19.975582286199437
20
39.204287648477546
42
-0.99999999999999989
10
20.88356329920849
20
40.986300723408363
42
-0.15838444032453627
0
LWPOLYLINE
5
158
100
AcDbEntity
8
0
100
AcDbPolyline
90
4
70
1
43
0.0
10
14.21478195306435
20
43.74860040148198
42
-0.99999999999999989
10
13.596747955105013
20
41.846487340547959
42
0.158384440324536
10
-13.596747955105029
20
41.846487340547952
42
-0.99999999999999989
10
-14.214781953064355
20
43.748600401481987
42
-0.15838444032453641
0
ARC
5
159
100
AcDbEntity
8
0
100
AcDbCircle
10
-20.429572792703958
20
40.09529418594294
30
-3.0790249460262094e-47
40
1.0000000149011536
210
-6.0271632054413416e-33
220
2.7142418486835218e-32
230
1
100
AcDbArc
50
-63.000000000000455
51
116.99999999999939
0
ARC
5
160
100
AcDbEntity
8
0
100
AcDbCircle
10
8.8253813771600696e-30
20
-3.9745984281580604e-14
30
0
40
44.000000655651093
210
-4.5103216246636851e-33
220
-2.9847920969953854e-33
230
1
100
AcDbArc
50
117.00000000000001
51
153
0
ARC
5
161
100
AcDbEntity
8
0
100
AcDbCircle
10
-40.095294185942983
20
20.429572792703933
30
-4.6185374190393141e-47
40
1.0000000149011636
210
5.3737932494968907e-33
220
2.238345978664265e-32
230
1
100
AcDbArc
50
153.00000000000063
51
332.99999999999932
0
ARC
5
162
100
AcDbEntity
8
0
100
AcDbCircle
10
8.8253813771600696e-30
20
-3.9745984281580604e-14
30
0
40
46.000000685453401
210
1.7401177762071004e-33
220
1.5434475861878619e-33
230
1
100
AcDbArc
50
117
51
153
0
LWPOLYLINE
5
163
100
AcDbEntity
8
0
100
AcDbPolyline
90
4
70
1
43
0.0
10
-37.532157501887966
20
5.9445097601088186
42
-0.11835779964076783
10
-30.742646244349121
20
22.335839919943883
42
-0.99999999999999989
10
-29.124612231488655
20
21.160269397841592
42
0.11835779964076781
10
-35.55678079126227
20
5.6316408253662731
42
-0.99999999999999989
0
LWPOLYLINE
5
164
100
AcDbEntity
8
0
100
AcDbPolyline
90
4
70
1
43
0.0
10
-43.748600401482022
20
14.214781953064294
42
-0.99999999999999989
10
-41.846487340547995
20
13.596747955104982
42
0.15838444032453594
10
-41.846487340548002
20
-13.596747955105075
42
-0.99999999999999989
10
-43.748600401482022
20
-14.214781953064374
42
-0.15838444032453616
0
ARC
5
165
100
AcDbEntity
8
0
100
AcDbCircle
10
-5.7880752927375863
20
36.544469146575082
30
-1.4539840022901544e-47
40
1.0000000149011508
210
6.0701151139536048e-34
220
-7.7128135800043305e-33
230
1
100
AcDbArc
50
-80.999999999999901
51
98.999999146226543
0
ARC
5
166
100
AcDbEntity
8
0
100
AcDbCircle
10
8.8253813771600696e-30
20
-3.9745984281580604e-14
30
0
40
36.000000536441817
210
-6.3305362695607228e-34
220
1.1664956555767702e-34
230
1
100
AcDbArc
50
99.000000000000014
51
125.99999999999996
0
ARC
5
167
100
AcDbEntity
8
0
100
AcDbCircle
10
-21.748054658892766
20
29.933629237918847
30
7.6975623650655235e-48
40
1.0000000149011561
210
-1.956386121873699e-32
220
1.0907567020175339e-32
230
1
100
AcDbArc
50
125.99999999999976
51
306.00000000000216
0
ARC
5
168
100
AcDbEntity
8
0
100
AcDbCircle
10
8.8253813771600696e-30
20
-3.9745984281580604e-14
30
0
40
38.000000566244118
210
-6.3140952274398345e-33
220
-1.2055532458784233e-33
230
1
100
AcDbArc
50
98.999999977532269
51
126
0
LWPOLYLINE
5
169
100
AcDbEntity
8
0
100
AcDbPolyline
90
4
70
1
43
0.0
10
-17.633557831534659
20
24.270510192907174
42
-0.11835779964076761
10
-4.6930340211385797
20
29.630650659385196
42
-0.99999999999999989
10
-4.3801650863960102
20
27.655273948759515
42
0.11835779964076744
10
-16.457987309432379
20
22.652476180046687
42
-0.99999999999999989
0
LWPOLYLINE
5
170
100
AcDbEntity
8
0
100
AcDbPolyline
90
4
70
1
43
0.0
10
-5.9445097601088932
20
-37.532157501888001
42
-0.11835779964076772
10
-22.335839919943933
20
-30.742646244349157
42
-0.99999999999999989
10
-21.160269397841628
20
-29.124612231488687
42
0.11835779964076763
10
-5.6316408253663024
20
-35.556780791262312
42
-0.99999999999999989
0
ARC
5
171
100
AcDbEntity
8
0
100
AcDbCircle
10
8.8253813771600696e-30
20
-3.9745984281580604e-14
30
0
40
38.000000566244125
210
6.0701167393075665e-34
220
7.7128146062126204e-33
230
1
100
AcDbArc
50
54.000000000000036
51
80.999999999999972
0
ARC
5
172
100
AcDbEntity
8
0
100
AcDbCircle
10
21.74805465889278
20
29.933629237918844
30
1.7105694144590052e-48
40
1.0000000149011476
210
1.4869972678788058e-32
220
-5.4537835100873699e-33
230
1
100
AcDbArc
50
-126.00000000000026
51
54.000000000001741
0
ARC
5
173
100
AcDbEntity
8
0
100
AcDbCircle
10
8.8253813771600696e-30
20
-3.9745984281580604e-14
30
0
40
36.000000536441817
210
1.2255284393114137e-32
220
-9.0525931941569577e-33
230
1
100
AcDbArc
50
54
51
80.999999999999929
0
ARC
5
174
100
AcDbEntity
8
0
100
AcDbCircle
10
5.7880752927375942
20
36.544469146575075
30
4.276423536147513e-48
40
1.0000000149011561
210
5.1336462031192784e-32
220
2.8860942399037587e-31
230
1
100
AcDbArc
50
80.999999999999559
51
261.00000000000188
0
ARC
5
175
100
AcDbEntity
8
0
100
AcDbCircle
10
17.045772570483525
20
23.461493186476922
30
-3.8487811825327617e-48
40
1.0000000149011599
210
-5.0738358345937179e-33
220
9.0362428295542599e-33
230
1
100
AcDbArc
50
-125.9999999999999
51
53.999999146226351
0
ARC
5
176
100
AcDbEntity
8
0
100
AcDbCircle
10
8.8253813771600696e-30
20
-3.9745984281580604e-14
30
0
40
28.000000417232517
210
1.2235093728170486e-32
220
-9.0803832603476794e-33
230
1
100
AcDbArc
50
54
51
80.999999999999929
0
ARC
5
177
100
AcDbEntity
8
0
100
AcDbCircle
10
4.5365995537673083
20
28.642962304072348
30
0
40
1.0000000149011596
210
6.6941110367285994e-33
220
6.7487127804360586e-33
230
1
100
AcDbArc
50
80.999999999999929
51
261.00000000000142
0
ARC
5
178
100
AcDbEntity
8
0
100
AcDbCircle
10
8.8253813771600696e-30
20
-3.9745984281580604e-14
30
0
40
30.000000447034839
210
1.2569496360609584e-33
220
-7.348978623097225e-34
230
1
100
AcDbArc
50
53.999999971540866
51
80.999999999999972
0
ARC
5
179
100
AcDbEntity
8
0
100
AcDbCircle
10
-17.045772570483525
20
-23.461493186477
30
1.7105694144590052e-48
40
1.0000000149011599
210
-5.0738358345937165e-33
220
9.0362428295542586e-33
230
1
100
AcDbArc
50
54.000000000000227
51
233.99999914622634
0
ARC
5
180
100
AcDbEntity
8
0
100
AcDbCircle
10
8.8253813771600696e-30
20
-3.9745984281580604e-14
30
0
40
28.000000417232513
210
1.2235093728170491e-32
220
-9.0803832603476849e-33
230
1
100
AcDbArc
50
234
51
261
0
ARC
5
181
100
AcDbEntity
8
0
100
AcDbCircle
10
-4.5365995537673056
20
-28.642962304072419
30
0
40
1.0000000149011596
210
6.6941110367285994e-33
220
6.7487127804360586e-33
230
1
100
AcDbArc
50
-99.000000000000156
51
80.999999999999673
0
ARC
5
182
100
AcDbEntity
8
0
100
AcDbCircle
10
8.8253813771600696e-30
20
-3.9745984281580604e-14
30
0
40
30.000000447034832
210
1.2569496360609476e-33
220
-7.3489786230971505e-34
230
1
100
AcDbArc
50
233.99999997154083
51
260.99999999999994
0
LWPOLYLINE
5
183
100
AcDbEntity
8
0
100
AcDbPolyline
90
4
70
1
43
0.0
10
-14.214781953064353
20
-43.748600401482065
42
-0.99999999999999989
10
-13.596747955105013
20
-41.846487340548038
42
0.15838444032453616
10
13.596747955105023
20
-41.846487340548045
42
-0.99999999999999989
10
14.214781953064348
20
-43.748600401482079
42
-0.15838444032453627
0
LWPOLYLINE
5
184
100
AcDbEntity
8
0
100
AcDbPolyline
90
4
70
1
43
0.0
10
24.270510192907206
20
-17.63355783153472
42
-0.99999999999999989
10
22.652476180046726
20
-16.457987309432408
42
0.11835779964076781
10
27.655273948759547
20
-4.3801650863960537
42
-0.99999999999999989
10
29.630650659385232
20
-4.693034021138633
42
-0.11835779964076772
0
ARC
5
185
100
AcDbEntity
8
0
100
AcDbCircle
10
4.5365995537672923
20
-28.642962304072419
30
-6.8422776578360209e-48
40
1.0000000149011594
210
4.4634189770370258e-33
220
-3.2061212057403824e-32
230
1
100
AcDbArc
50
99.000000000000014
51
278.99999914622629
0
ARC
5
186
100
AcDbEntity
8
0
100
AcDbCircle
10
8.8253813771600696e-30
20
-3.9745984281580604e-14
30
0
40
28.00000041723251
210
-7.8035825758884212e-34
220
1.0466944003340068e-33
230
1
100
AcDbArc
50
279
51
306
0
ARC
5
187
100
AcDbEntity
8
0
100
AcDbCircle
10
17.045772570483514
20
-23.461493186477004
30
-2.0526832973508063e-47
40
1.0000000149011599
210
-1.9563860988877278e-32
220
1.0907568471452684e-32
230
1
100
AcDbArc
50
-53.99999999999995
51
126.0000000000001
0
ARC
5
188
100
AcDbEntity
8
0
100
AcDbCircle
10
8.8253813771600696e-30
20
-3.9745984281580604e-14
30
0
40
30.000000447034832
210
-1.7231022433401424e-32
220
-3.8213974415802269e-33
230
1
100
AcDbArc
50
278.99999997154083
51
306
0
ENDSEC
0
SECTION
2
OBJECTS
0
DICTIONARY
5
C
100
AcDbDictionary
3
ACAD_GROUP
350
D
3
ACAD_MLINESTYLE
350
17
0
DICTIONARY
5
D
100
AcDbDictionary
0
DICTIONARY
5
1A
330
C
100
AcDbDictionary
0
DICTIONARY
5
17
100
AcDbDictionary
0
ENDSEC
0
EOF
