0
SECTION
2
HEADER
9
$INSUNITS
70
4
9
$ACADVER
1
AC1014
9
$HANDSEED
5
FFFF
0
ENDSEC
0
SECTION
2
TABLES
0
TABLE
2
VPORT
5
8
100
AcDbSymbolTable
0
ENDTAB
0
TABLE
2
LTYPE
5
5
100
AcDbSymbolTable
0
LTYPE
5
14
100
AcDbSymbolTableRecord
100
AcDbLinetypeTableRecord
2
BYBLOCK
70
0
0
LTYPE
5
15
100
AcDbSymbolTableRecord
100
AcDbLinetypeTableRecord
2
BYLAYER
70
0
0
ENDTAB
0
TABLE
2
LAYER
5
2
100
AcDbSymbolTable
70
2
0
LAYER
5
50
100
AcDbSymbolTableRecord
100
AcDbLayerTableRecord
2
0
70
0
6
CONTINUOUS
0
ENDTAB
0
TABLE
2
STYLE
5
3
100
AcDbSymbolTable
70
1
0
STYLE
5
11
100
AcDbSymbolTableRecord
100
AcDbTextStyleTableRecord
2
STANDARD
70
0
0
ENDTAB
0
TABLE
2
VIEW
5
6
100
AcDbSymbolTable
70
0
0
ENDTAB
0
TABLE
2
UCS
5
7
100
AcDbSymbolTable
70
0
0
ENDTAB
0
TABLE
2
APPID
5
9
100
AcDbSymbolTable
70
2
0
APPID
5
12
100
AcDbSymbolTableRecord
100
AcDbRegAppTableRecord
2
ACAD
70
0
0
ENDTAB
0
TABLE
2
DIMSTYLE
5
A
100
AcDbSymbolTable
70
1
0
ENDTAB
0
TABLE
2
BLOCK_RECORD
5
1
100
AcDbSymbolTable
70
1
0
BLOCK_RECORD
5
1F
100
AcDbSymbolTableRecord
100
AcDbBlockTableRecord
2
*MODEL_SPACE
0
BLOCK_RECORD
5
1B
100
AcDbSymbolTableRecord
100
AcDbBlockTableRecord
2
*PAPER_SPACE
0
ENDTAB
0
ENDSEC
0
SECTION
2
BLOCKS
0
BLOCK
5
20
100
AcDbEntity
100
AcDbBlockBegin
2
*MODEL_SPACE
0
ENDBLK
5
21
100
AcDbEntity
100
AcDbBlockEnd
0
BLOCK
5
1C
100
AcDbEntity
100
AcDbBlockBegin
2
*PAPER_SPACE
0
ENDBLK
5
1D
100
AcDbEntity
100
AcDbBlockEnd
0
ENDSEC
0
SECTION
2
ENTITIES
0
CIRCLE
5
100
100
AcDbEntity
8
0
100
AcDbCircle
10
4.4408920985006293e-15
20
-2.4369395390522189e-14
30
0
40
49
210
5.4738221262688167e-48
220
-2.4651903288156619e-32
230
1
0
ARC
5
101
100
AcDbEntity
8
0
100
AcDbCircle
10
4.4408920985006293e-15
20
-2.4369395390522189e-14
30
0
40
27.000000000000011
210
6.7068258931947893e-33
220
-3.4986839173111512e-32
230
1
100
AcDbArc
50
174.03712966269794
51
245.96287033730192
0
ARC
5
102
100
AcDbEntity
8
0
100
AcDbCircle
10
-25.859325040320513
20
2.7009828690779742
30
3.5921957703639109e-47
40
1.0000000000000011
210
-2.2941752872811809e-33
220
-1.9396647809539621e-32
230
1
100
AcDbArc
50
-5.9628691298840382
51
174.03712966269873
0
ARC
5
103
100
AcDbEntity
8
0
100
AcDbCircle
10
4.4408920985006293e-15
20
-2.4369395390522189e-14
30
0
40
25.000000000000007
210
-2.0182439120291117e-33
220
-1.9425468547975632e-32
230
1
100
AcDbArc
50
174.03712961440115
51
245.96287033730192
0
ARC
5
104
100
AcDbEntity
8
0
100
AcDbCircle
10
-10.5905427403522
20
-23.745323844175591
30
-3.4211388289180104e-48
40
0.99999999999999756
210
-3.2527310733862772e-31
220
-7.1880651833569689e-31
230
1
100
AcDbArc
50
-114.03712966269825
51
65.962870337302292
0
ARC
5
105
100
AcDbEntity
8
0
100
AcDbCircle
10
10.590542740352157
20
-23.745323844175594
30
1.6303864731562393e-48
40
1.0000000000000004
210
-5.7658814740484201e-33
220
2.4312829286186659e-33
230
1
100
AcDbArc
50
114.03712966269853
51
294.03712880892482
0
ARC
5
106
100
AcDbEntity
8
0
100
AcDbCircle
10
4.4408920985006293e-15
20
-2.4369395390522189e-14
30
0
40
24.999999999999972
210
-3.8303308331803773e-33
220
-1.9084641373271644e-33
230
1
100
AcDbArc
50
-65.962870337302064
51
5.9628703373020047
0
ARC
5
107
100
AcDbEntity
8
0
100
AcDbCircle
10
25.859325040320513
20
2.7009828690779258
30
-5.1317082433770156e-48
40
0.99999999999999989
210
-2.3711607789345742e-34
220
-2.9960513961264389e-32
230
1
100
AcDbArc
50
5.962870337301883
51
185.96287033730141
0
ARC
5
108
100
AcDbEntity
8
0
100
AcDbCircle
10
4.4408920985006293e-15
20
-2.4369395390522189e-14
30
0
40
26.999999999999975
210
-4.4271918304535209e-33
220
-1.7892589883538813e-33
230
1
100
AcDbArc
50
-65.962870368923291
51
5.9628703373020047
0
ARC
5
109
100
AcDbEntity
8
0
100
AcDbCircle
10
15.268782299968358
20
21.044340975097629
30
-1.5395124730131047e-47
40
0.99999999999999967
210
-1.9556778275058732e-32
220
-1.0952193376489427e-32
230
1
100
AcDbArc
50
-125.96287033730205
51
54.037129662697936
0
ARC
5
110
100
AcDbEntity
8
0
100
AcDbCircle
10
4.4408920985006293e-15
20
-2.4369395390522189e-14
30
0
40
25.000000000000014
210
1.2824967393419015e-32
220
-8.2995252770594392e-33
230
1
100
AcDbArc
50
54.037129662697964
51
125.96287033730198
0
ARC
5
111
100
AcDbEntity
8
0
100
AcDbCircle
10
-15.268782299968326
20
21.044340975097651
30
-4.4474804775934136e-47
40
1.0000000000000044
210
-5.079680406338073e-33
220
-9.0010011804759877e-33
230
1
100
AcDbArc
50
125.96287033730204
51
305.96287033730192
0
ARC
5
112
100
AcDbEntity
8
0
100
AcDbCircle
10
4.4408920985006293e-15
20
-2.4369395390522189e-14
30
0
40
27.000000000000014
210
6.6984541303637541e-33
220
-5.79125568986015e-33
230
1
100
AcDbArc
50
54.037129662697957
51
125.96287033730198
0
ARC
5
113
100
AcDbEntity
8
0
100
AcDbCircle
10
-1.7495651241042598
20
-39.210987837645568
30
3.4211388289180104e-48
40
1.7500000335276078
210
-2.589063048798557e-33
220
-2.2361009292580831e-32
230
1
100
AcDbArc
50
87.445199450251692
51
267.44519945025166
0
ARC
5
114
100
AcDbEntity
8
0
100
AcDbCircle
10
4.4408920985006293e-15
20
-2.4369395390522189e-14
30
0
40
37.500000543892369
210
-2.2487006292026594e-36
220
1.0490051370728017e-33
230
1
100
AcDbArc
50
267.44519945025172
51
272.55480054974822
0
ARC
5
115
100
AcDbEntity
8
0
100
AcDbCircle
10
1.749565124104252
20
-39.210987837645568
30
8.5528470722950261e-49
40
1.750000033527614
210
4.9005771912264417e-35
220
-2.197712591147991e-33
230
1
100
AcDbArc
50
-87.445199450250499
51
92.554800549750837
0
ARC
5
116
100
AcDbEntity
8
0
100
AcDbCircle
10
4.4408920985006293e-15
20
-2.4369395390522189e-14
30
0
40
41.000000610947581
210
2.2973987092408204e-33
220
-1.0618723698354608e-33
230
1
100
AcDbArc
50
267.44519945025172
51
272.55480054974834
0
LWPOLYLINE
5
117
100
AcDbEntity
8
0
100
AcDbPolyline
90
4
70
1
43
0.0
10
-27.670274333386825
20
30.254850328712863
42
-0.99999999999999989
10
-25.308177733894798
20
27.672119192095131
42
0.022298535354269258
10
-27.672119192095181
20
25.308177733894727
42
-0.99999999999999989
10
-30.254850328712855
20
27.670274333386843
42
-0.022298535354268973
0
ARC
5
118
100
AcDbEntity
8
0
100
AcDbCircle
10
-39.210987837645561
20
1.7495651241042365
30
1.1289758135429434e-46
40
1.750000033527608
210
-1.0498505236610107e-33
220
-2.2429687811054112e-32
230
1
100
AcDbArc
50
-2.5548005497483852
51
177.44519945025147
0
ARC
5
119
100
AcDbEntity
8
0
100
AcDbCircle
10
4.4408920985006293e-15
20
-2.4369395390522189e-14
30
0
40
37.500000543892391
210
1.0024749720696765e-34
220
2.1954262234617583e-33
230
1
100
AcDbArc
50
177.44519945025175
51
182.55480054974839
0
ARC
5
120
100
AcDbEntity
8
0
100
AcDbCircle
10
-39.210987837645568
20
-1.7495651241042787
30
3.4211388289180104e-48
40
1.7500000335276187
210
1.1478620674841147e-33
220
-2.6825112993344614e-32
230
1
100
AcDbArc
50
-177.44519945025036
51
2.5548005497463855
0
ARC
5
121
100
AcDbEntity
8
0
100
AcDbCircle
10
4.4408920985006293e-15
20
-2.4369395390522189e-14
30
0
40
41.000000610947616
210
-1.1943473350293454e-33
220
-2.6720605351230031e-32
230
1
100
AcDbArc
50
177.44519945025175
51
182.55480054974825
0
LWPOLYLINE
5
122
100
AcDbEntity
8
0
100
AcDbPolyline
90
4
70
1
43
0.0
10
-30.254850328712884
20
-27.670274333386832
42
-0.99999999999999989
10
-27.672119192095153
20
-25.308177733894809
42
0.022298535354268633
10
-25.308177733894905
20
-27.672119192095046
42
-0.99999999999999989
10
-27.670274333386637
20
-30.254850328713072
42
-0.02229853535427086
0
ARC
5
123
100
AcDbEntity
8
0
100
AcDbCircle
10
39.210987837645561
20
-1.7495651241042776
30
1.7105694144590052e-47
40
1.7500000335276167
210
-2.5890630487985392e-33
220
-2.2361009292580749e-32
230
1
100
AcDbArc
50
177.44519945025175
51
357.44519945025178
0
ARC
5
124
100
AcDbEntity
8
0
100
AcDbCircle
10
4.4408920985006293e-15
20
-2.4369395390522189e-14
30
0
40
37.500000543892376
210
1.7207741538107681e-34
220
2.1922212259181073e-33
230
1
100
AcDbArc
50
-2.5548005497482325
51
2.5548005497480979
0
ARC
5
125
100
AcDbEntity
8
0
100
AcDbCircle
10
39.210987837645561
20
1.7495651241042276
30
-8.7666682491024017e-48
40
1.7500000335276142
210
4.9005771912265892e-35
220
-2.1977125911479793e-33
230
1
100
AcDbArc
50
2.5548005497496677
51
182.55480054975052
0
ARC
5
126
100
AcDbEntity
8
0
100
AcDbCircle
10
4.4408920985006293e-15
20
-2.4369395390522189e-14
30
0
40
41.000000610947602
210
-1.2661620223706269e-33
220
-2.6854758070221401e-32
230
1
100
AcDbArc
50
-2.5548005497483852
51
2.554800549748383
0
ARC
5
127
100
AcDbEntity
8
0
100
AcDbCircle
10
28.963484760404022
20
26.48922603364079
30
-3.4211388289180104e-47
40
1.7500000335276109
210
-3.7158076440129587e-33
220
-1.5083175612944333e-32
230
1
100
AcDbArc
50
-137.55480054974805
51
42.445198596478157
0
ARC
5
128
100
AcDbEntity
8
0
100
AcDbCircle
10
4.4408920985006293e-15
20
-2.4369395390522189e-14
30
0
40
37.500000543892384
210
6.2641482226057329e-33
220
-5.9557757526197286e-33
230
1
100
AcDbArc
50
42.445199450251692
51
47.554800549748265
0
ARC
5
129
100
AcDbEntity
8
0
100
AcDbCircle
10
26.489226033640815
20
28.963484760403993
30
1.3684555315672042e-47
40
1.7500000335276176
210
-2.0353000733255935e-32
220
-3.1080349525978603e-33
230
1
100
AcDbArc
50
47.554800549746069
51
227.55480054974896
0
ARC
5
130
100
AcDbEntity
8
0
100
AcDbCircle
10
4.4408920985006293e-15
20
-2.4369395390522189e-14
30
0
40
41.000000610947609
210
-9.611036642082654e-33
220
9.6915573549094324e-33
230
1
100
AcDbArc
50
42.445199413810158
51
47.554800549748187
0
LWPOLYLINE
5
131
100
AcDbEntity
8
0
100
AcDbPolyline
90
4
70
1
43
0.0
10
-13.596747955105027
20
41.846487340547981
42
-0.15838444032453627
10
13.59674795510502
20
41.846487340547981
42
0.99999999999999989
10
14.214781953064335
20
43.748600401481987
42
0.15838444032453616
10
-14.214781953064325
20
43.748600401481987
42
0.99999999999999989
0
CIRCLE
5
132
100
AcDbEntity
8
0
100
AcDbCircle
10
-34.999999999999993
20
-2.7866597918091423e-14
30
0
40
1.4999999999999991
210
5.4738221262688167e-48
220
-2.4651903288156619e-32
230
1
0
CIRCLE
5
133
100
AcDbEntity
8
0
100
AcDbCircle
10
-24.748737341529157
20
24.748737341529136
30
0
40
1.4999999999999991
210
5.4738221262688167e-48
220
-2.4651903288156619e-32
230
1
0
LWPOLYLINE
5
134
100
AcDbEntity
8
0
100
AcDbPolyline
90
6
70
1
43
0.0
10
6.2065155830586249
20
22.000000327825514
10
-6.2065155830586027
20
22.000000327825525
10
-22.155816958692199
20
-5.6250000000000355
10
-15.949301375633599
20
-16.375000327825532
10
15.949301375633581
20
-16.375000327825546
10
22.155816958692203
20
-5.6250000000000622
0
CIRCLE
5
135
100
AcDbEntity
8
0
100
AcDbCircle
10
-1.7763568394002501e-14
20
-24.875000327825532
30
0
40
8
210
-6.5604258862959829e-142
220
5.3976053469340261e-79
230
1
0
CIRCLE
5
136
100
AcDbEntity
8
0
100
AcDbCircle
10
-21.542382203043118
20
12.437500163912754
30
0
40
8
210
-6.5604258862959829e-142
220
5.3976053469340261e-79
230
1
0
CIRCLE
5
137
100
AcDbEntity
8
0
100
AcDbCircle
10
8.8817841970012539e-15
20
34.999999999999979
30
0
40
1.4999999999999991
210
5.4738221262688167e-48
220
-2.4651903288156619e-32
230
1
0
CIRCLE
5
138
100
AcDbEntity
8
0
100
AcDbCircle
10
2.2204460492503162e-15
20
-35.000000000000021
30
0
40
1.4999999999999991
210
5.4738221262688167e-48
220
-2.4651903288156619e-32
230
1
0
CIRCLE
5
139
100
AcDbEntity
8
0
100
AcDbCircle
10
34.999999999999993
20
-1.8984813721090177e-14
30
0
40
1.4999999999999991
210
5.4738221262688167e-48
220
-2.4651903288156619e-32
230
1
0
CIRCLE
5
140
100
AcDbEntity
8
0
100
AcDbCircle
10
-24.748737341529154
20
-24.748737341529193
30
0
40
1.4999999999999991
210
5.4738221262688167e-48
220
-2.4651903288156619e-32
230
1
0
CIRCLE
5
141
100
AcDbEntity
8
0
100
AcDbCircle
10
24.748737341529164
20
-24.748737341529186
30
0
40
1.4999999999999991
210
5.4738221262688167e-48
220
-2.4651903288156619e-32
230
1
0
CIRCLE
5
142
100
AcDbEntity
8
0
100
AcDbCircle
10
24.748737341529168
20
24.748737341529136
30
0
40
1.4999999999999991
210
5.4738221262688167e-48
220
-2.4651903288156619e-32
230
1
0
CIRCLE
5
143
100
AcDbEntity
8
0
100
AcDbCircle
10
21.542382203043147
20
12.437500163912723
30
0
40
8.0000000000000036
210
-6.5604258862959815e-142
220
5.3976053469340249e-79
230
1
0
LWPOLYLINE
5
144
100
AcDbEntity
8
0
100
AcDbPolyline
90
4
70
1
43
0.0
10
19.975582286199423
20
39.20428764847756
42
-0.15838444032453627
10
39.204287648477589
20
19.975582286199401
42
0.99999999999999989
10
40.986300723408384
20
20.883563299208461
42
0.15838444032453608
10
20.883563299208511
20
40.986300723408363
42
0.99999999999999989
0
LWPOLYLINE
5
145
100
AcDbEntity
8
0
100
AcDbPolyline
90
4
70
1
43
0.0
10
41.846487340548002
20
13.596747955104986
42
-0.15838444032453627
10
41.846487340547995
20
-13.596747955105045
42
0.99999999999999989
10
43.74860040148203
20
-14.21478195306433
42
0.15838444032453594
10
43.748600401482008
20
14.214781953064294
42
0.99999999999999989
0
LWPOLYLINE
5
146
100
AcDbEntity
8
0
100
AcDbPolyline
90
4
70
1
43
0.0
10
39.204287648477575
20
-19.975582286199462
42
-0.15838444032453627
10
19.975582286199408
20
-39.204287648477603
42
0.99999999999999989
10
20.883563299208522
20
-40.986300723408398
42
0.15838444032453594
10
40.986300723408377
20
-20.883563299208525
42
0.99999999999999989
0
LWPOLYLINE
5
147
100
AcDbEntity
8
0
100
AcDbPolyline
90
4
70
1
43
0.0
10
27.670274333386825
20
-30.254850328712891
42
-0.99999999999999989
10
25.308177733894794
20
-27.672119192095156
42
0.022298535354268633
10
27.672119192095089
20
-25.308177733894837
42
-0.99999999999999989
10
30.254850328712912
20
-27.670274333386796
42
-0.022298535354269528
0
LWPOLYLINE
5
148
100
AcDbEntity
8
0
100
AcDbPolyline
90
4
70
1
43
0.0
10
13.596747955105013
20
-41.846487340548023
42
-0.15838444032453627
10
-13.596747955105021
20
-41.846487340548009
42
0.99999999999999989
10
-14.214781953064328
20
-43.748600401482001
42
0.15838444032453622
10
14.214781953064326
20
-43.74860040148203
42
0.99999999999999989
0
LWPOLYLINE
5
149
100
AcDbEntity
8
0
100
AcDbPolyline
90
4
70
1
43
0.0
10
-19.975582286199437
20
-39.204287648477603
42
-0.15838444032453627
10
-39.204287648477589
20
-19.975582286199426
42
0.99999999999999989
10
-40.986300723408391
20
-20.883563299208504
42
0.15838444032453622
10
-20.883563299208504
20
-40.986300723408398
42
0.99999999999999989
0
LWPOLYLINE
5
150
100
AcDbEntity
8
0
100
AcDbPolyline
90
4
70
1
43
0.0
10
-41.846487340548023
20
-13.596747955105004
42
-0.15838444032453616
10
-41.846487340547995
20
13.596747955105016
42
0.99999999999999989
10
-43.748600401482008
20
14.214781953064342
42
0.15838444032453622
10
-43.748600401482022
20
-14.214781953064332
42
0.99999999999999989
0
LWPOLYLINE
5
151
100
AcDbEntity
8
0
100
AcDbPolyline
90
4
70
1
43
0.0
10
-39.204287648477617
20
19.975582286199408
42
-0.15838444032453627
10
-19.975582286199433
20
39.204287648477575
42
0.99999999999999989
10
-20.883563299208504
20
40.986300723408398
42
0.15838444032453627
10
-40.986300723408391
20
20.883563299208475
42
0.99999999999999989
0
ARC
5
152
100
AcDbEntity
8
0
100
AcDbCircle
10
1.7495651241042549
20
39.210987837645547
30
6.8422776578360209e-48
40
1.7500000335276122
210
-2.589063048798555e-33
220
-2.2361009292580774e-32
230
1
100
AcDbArc
50
-92.554800549748279
51
87.445199450251692
0
ARC
5
153
100
AcDbEntity
8
0
100
AcDbCircle
10
4.4408920985006293e-15
20
-2.4369395390522189e-14
30
0
40
37.500000543892391
210
-2.248700629202483e-36
220
1.0490051370728012e-33
230
1
100
AcDbArc
50
87.445199450251721
51
92.554800549748194
0
ARC
5
154
100
AcDbEntity
8
0
100
AcDbCircle
10
-1.7495651241042549
20
39.210987837645547
30
4.91788706656964e-48
40
1.7500000335276098
210
1.5882182970497983e-33
220
-2.1290340726746038e-33
230
1
100
AcDbArc
50
92.554800549749601
51
272.55480054975078
0
ARC
5
155
100
AcDbEntity
8
0
100
AcDbCircle
10
4.4408920985006293e-15
20
-2.4369395390522189e-14
30
0
40
41.000000610947616
210
7.6430277558024674e-34
220
-9.9346676912617509e-34
230
1
100
AcDbArc
50
87.445199450251721
51
92.55480054974835
0
ENDSEC
0
SECTION
2
OBJECTS
0
DICTIONARY
5
C
100
AcDbDictionary
3
ACAD_GROUP
350
D
3
ACAD_MLINESTYLE
350
17
0
DICTIONARY
5
D
100
AcDbDictionary
0
DICTIONARY
5
1A
330
C
100
AcDbDictionary
0
DICTIONARY
5
17
100
AcDbDictionary
0
ENDSEC
0
EOF
