0
SECTION
2
HEADER
9
$INSUNITS
70
4
9
$ACADVER
1
AC1014
9
$HANDSEED
5
FFFF
0
ENDSEC
0
SECTION
2
TABLES
0
TABLE
2
VPORT
5
8
100
AcDbSymbolTable
0
ENDTAB
0
TABLE
2
LTYPE
5
5
100
AcDbSymbolTable
0
LTYPE
5
14
100
AcDbSymbolTableRecord
100
AcDbLinetypeTableRecord
2
BYBLOCK
70
0
0
LTYPE
5
15
100
AcDbSymbolTableRecord
100
AcDbLinetypeTableRecord
2
BYLAYER
70
0
0
ENDTAB
0
TABLE
2
LAYER
5
2
100
AcDbSymbolTable
70
2
0
LAYER
5
50
100
AcDbSymbolTableRecord
100
AcDbLayerTableRecord
2
0
70
0
6
CONTINUOUS
0
ENDTAB
0
TABLE
2
STYLE
5
3
100
AcDbSymbolTable
70
1
0
STYLE
5
11
100
AcDbSymbolTableRecord
100
AcDbTextStyleTableRecord
2
STANDARD
70
0
0
ENDTAB
0
TABLE
2
VIEW
5
6
100
AcDbSymbolTable
70
0
0
ENDTAB
0
TABLE
2
UCS
5
7
100
AcDbSymbolTable
70
0
0
ENDTAB
0
TABLE
2
APPID
5
9
100
AcDbSymbolTable
70
2
0
APPID
5
12
100
AcDbSymbolTableRecord
100
AcDbRegAppTableRecord
2
ACAD
70
0
0
ENDTAB
0
TABLE
2
DIMSTYLE
5
A
100
AcDbSymbolTable
70
1
0
ENDTAB
0
TABLE
2
BLOCK_RECORD
5
1
100
AcDbSymbolTable
70
1
0
BLOCK_RECORD
5
1F
100
AcDbSymbolTableRecord
100
AcDbBlockTableRecord
2
*MODEL_SPACE
0
BLOCK_RECORD
5
1B
100
AcDbSymbolTableRecord
100
AcDbBlockTableRecord
2
*PAPER_SPACE
0
ENDTAB
0
ENDSEC
0
SECTION
2
BLOCKS
0
BLOCK
5
20
100
AcDbEntity
100
AcDbBlockBegin
2
*MODEL_SPACE
0
ENDBLK
5
21
100
AcDbEntity
100
AcDbBlockEnd
0
BLOCK
5
1C
100
AcDbEntity
100
AcDbBlockBegin
2
*PAPER_SPACE
0
ENDBLK
5
1D
100
AcDbEntity
100
AcDbBlockEnd
0
ENDSEC
0
SECTION
2
ENTITIES
0
CIRCLE
5
100
100
AcDbEntity
8
0
100
AcDbCircle
10
4.7824692379023848e-30
20
-2.1538326677728037e-14
30
0
40
49
210
-0
220
5.3976053469340243e-79
230
1
0
LWPOLYLINE
5
101
100
AcDbEntity
8
0
100
AcDbPolyline
90
6
70
1
43
0.0
10
0.99999999999999778
20
-10.79999975860121
42
-0.24320690328901728
10
0.57817999580127089
20
-11.615909001382077
42
-4.9882234244735644
10
-0.57817999580127943
20
-11.615909001382068
42
-0.24320690328901706
10
-1.0000000000000013
20
-10.79999975860121
10
-1.0000000000000007
20
-3.6593490635109411
42
-0.99999999999999989
10
0.99999999999999956
20
-3.6593490635109416
0
LWPOLYLINE
5
102
100
AcDbEntity
8
0
100
AcDbPolyline
90
4
70
1
43
0.0
10
-1
20
10.799999758601167
10
-1
20
3.6593490635108985
42
0.99999999999999989
10
1
20
3.6593490635108972
10
1
20
10.799999758601167
42
0.99999999999999989
0
CIRCLE
5
103
100
AcDbEntity
8
0
100
AcDbCircle
10
-17.400000058114532
20
-2.4735769001552502e-14
30
0
40
1.0000000000000009
210
5.4738221262688167e-48
220
-2.4651903288156619e-32
230
1
0
CIRCLE
5
104
100
AcDbEntity
8
0
100
AcDbCircle
10
-5.3768957200824641
20
-16.548383438805896
30
0
40
0.99999999999999978
210
5.4738221262688167e-48
220
-2.4651903288156619e-32
230
1
0
CIRCLE
5
105
100
AcDbEntity
8
0
100
AcDbCircle
10
14.076895749139723
20
-10.227463424047922
30
0
40
1.0000000000000009
210
5.4738221262688167e-48
220
-2.4651903288156619e-32
230
1
0
CIRCLE
5
106
100
AcDbEntity
8
0
100
AcDbCircle
10
14.076895749139727
20
10.227463424047871
30
0
40
1.0000000000000009
210
5.4738221262688167e-48
220
-2.4651903288156619e-32
230
1
0
CIRCLE
5
107
100
AcDbEntity
8
0
100
AcDbCircle
10
-5.3768957200824632
20
16.54838343880585
30
0
40
0.99999999999999978
210
5.4738221262688167e-48
220
-2.4651903288156619e-32
230
1
0
CIRCLE
5
108
100
AcDbEntity
8
0
100
AcDbCircle
10
4.7824692379023841e-30
20
17.400000058114507
30
0
40
1
210
-0
220
0
230
1
0
CIRCLE
5
109
100
AcDbEntity
8
0
100
AcDbCircle
10
16.548383438805875
20
5.3768957200824365
30
0
40
1.0000000000000009
210
5.4738221262688167e-48
220
-2.4651903288156619e-32
230
1
0
CIRCLE
5
110
100
AcDbEntity
8
0
100
AcDbCircle
10
10.227463424047894
20
-14.076895749139753
30
0
40
1.0000000000000009
210
5.4738221262688167e-48
220
-2.4651903288156619e-32
230
1
0
CIRCLE
5
111
100
AcDbEntity
8
0
100
AcDbCircle
10
-10.227463424047896
20
-14.076895749139746
30
0
40
0.99999999999999978
210
5.4738221262688167e-48
220
-2.4651903288156619e-32
230
1
0
CIRCLE
5
112
100
AcDbEntity
8
0
100
AcDbCircle
10
-16.548383438805875
20
5.3768957200824428
30
0
40
1.0000000000000009
210
5.4738221262688167e-48
220
-2.4651903288156619e-32
230
1
0
LINE
5
113
100
AcDbEntity
8
0
100
AcDbLine
10
8.3438598473065255
20
6.9296462849334075
30
0
11
3.2946573187237602
21
1.8804437563506449
31
2.4258719523101512e-33
0
ARC
5
114
100
AcDbEntity
8
0
100
AcDbCircle
10
2.5875505375372141
20
2.5875505375371928
30
6.8422776578360209e-48
40
0.99999999999999989
210
-2.9907773763182799e-33
220
-1.743152798421044e-32
230
1
100
AcDbArc
50
135.00000000000003
51
314.99999999999994
0
LINE
5
115
100
AcDbEntity
8
0
100
AcDbLine
10
1.8804437563506666
20
3.2946573187237398
30
1.0211152680264305e-32
11
6.9296462998345927
21
8.3438598622076636
31
-2.4258726869941314e-33
0
ARC
5
116
100
AcDbEntity
8
0
100
AcDbCircle
10
7.6367530661199794
20
7.6367530661199536
30
1.5952236465358415e-48
40
0.99999999999999878
210
7.2203756712880963e-33
220
7.2203756712881045e-33
230
1
100
AcDbArc
50
-45
51
134.99999879258172
0
LINE
5
117
100
AcDbEntity
8
0
100
AcDbLine
10
-8.3438598473065255
20
-6.9296462849334484
30
0
11
-3.2946573187237616
21
-1.8804437563506848
31
-2.4258719523100964e-33
0
ARC
5
118
100
AcDbEntity
8
0
100
AcDbCircle
10
-2.5875505375372136
20
-2.5875505375372345
30
1.7105694144590113e-48
40
0.99999999999999967
210
1.4440750607892242e-32
220
1.2316099784104838e-47
230
1
100
AcDbArc
50
-45
51
134.99999999999994
0
LINE
5
119
100
AcDbEntity
8
0
100
AcDbLine
10
-1.8804437563506666
20
-3.2946573187237815
30
-1.0211152680264348e-32
11
-6.9296462998345927
21
-8.3438598622077045
31
2.4258726869941314e-33
0
ARC
5
120
100
AcDbEntity
8
0
100
AcDbCircle
10
-7.6367530661199794
20
-7.6367530661199972
30
6.4210037974662715e-48
40
1.0000000000000004
210
7.2203756712881168e-33
220
7.2203756712881141e-33
230
1
100
AcDbArc
50
134.99999999999991
51
314.99999879258178
0
LWPOLYLINE
5
121
100
AcDbEntity
8
0
100
AcDbPolyline
90
4
70
1
43
0.0
10
1.880443756350666
20
-3.2946573187237806
10
6.9296462849334279
20
-8.3438598473065433
42
0.99999998946328783
10
8.3438598622076849
20
-6.9296462998346104
10
3.2946573187237602
20
-1.8804437563506866
42
0.99999999999999989
0
LINE
5
122
100
AcDbEntity
8
0
100
AcDbLine
10
-6.9296462849334306
20
8.3438598473065024
30
0
11
-1.880443756350666
21
3.2946573187237416
31
-2.4258719523100964e-33
0
ARC
5
123
100
AcDbEntity
8
0
100
AcDbCircle
10
-2.5875505375372132
20
2.5875505375371928
30
8.5528470722950261e-49
40
1.0000000000000004
210
-2.9907773763182285e-33
220
-1.7431527984210531e-32
230
1
100
AcDbArc
50
-134.99999999999994
51
45.000000000000064
0
LINE
5
124
100
AcDbEntity
8
0
100
AcDbLine
10
-3.2946573187237602
20
1.8804437563506444
30
-1.4440750607892281e-32
11
-8.3438598622076867
21
6.9296462998345687
31
2.4258726869940767e-33
0
ARC
5
125
100
AcDbEntity
8
0
100
AcDbCircle
10
-7.6367530661199776
20
7.6367530661199545
30
-1.1973985901213036e-47
40
1.0000000000000004
210
7.220374936604138e-33
220
-7.2203749366041421e-33
230
1
100
AcDbArc
50
45.000000000000028
51
224.99999879258169
0
CIRCLE
5
126
100
AcDbEntity
8
0
100
AcDbCircle
10
-16.548383438805875
20
-5.3768957200824827
30
0
40
1.0000000000000009
210
5.4738221262688167e-48
220
-2.4651903288156619e-32
230
1
0
CIRCLE
5
127
100
AcDbEntity
8
0
100
AcDbCircle
10
-2.130885437633367e-15
20
-17.40000005811455
30
0
40
1
210
-0
220
0
230
1
0
CIRCLE
5
128
100
AcDbEntity
8
0
100
AcDbCircle
10
16.548383438805871
20
-5.3768957200824827
30
0
40
1.0000000000000009
210
5.4738221262688167e-48
220
-2.4651903288156619e-32
230
1
0
CIRCLE
5
129
100
AcDbEntity
8
0
100
AcDbCircle
10
10.227463424047897
20
14.076895749139702
30
0
40
1.0000000000000009
210
5.4738221262688167e-48
220
-2.4651903288156619e-32
230
1
0
CIRCLE
5
130
100
AcDbEntity
8
0
100
AcDbCircle
10
-10.227463424047894
20
14.076895749139704
30
0
40
0.99999999999999978
210
5.4738221262688167e-48
220
-2.4651903288156619e-32
230
1
0
CIRCLE
5
131
100
AcDbEntity
8
0
100
AcDbCircle
10
5.376895720082465
20
16.54838343880585
30
0
40
0.99999999999999978
210
5.4738221262688167e-48
220
-2.4651903288156619e-32
230
1
0
CIRCLE
5
132
100
AcDbEntity
8
0
100
AcDbCircle
10
17.400000058114529
20
-2.4735769001552502e-14
30
0
40
1.0000000000000009
210
5.4738221262688167e-48
220
-2.4651903288156619e-32
230
1
0
CIRCLE
5
133
100
AcDbEntity
8
0
100
AcDbCircle
10
5.3768957200824605
20
-16.548383438805896
30
0
40
0.99999999999999978
210
5.4738221262688167e-48
220
-2.4651903288156619e-32
230
1
0
CIRCLE
5
134
100
AcDbEntity
8
0
100
AcDbCircle
10
-14.076895749139723
20
-10.227463424047913
30
0
40
1.0000000000000009
210
5.4738221262688167e-48
220
-2.4651903288156619e-32
230
1
0
CIRCLE
5
135
100
AcDbEntity
8
0
100
AcDbCircle
10
-14.076895749139723
20
10.227463424047873
30
0
40
1.0000000000000009
210
5.4738221262688167e-48
220
-2.4651903288156619e-32
230
1
0
LWPOLYLINE
5
136
100
AcDbEntity
8
0
100
AcDbPolyline
90
4
70
1
43
0.0
10
3.6593490635109194
20
-1.0000000000000218
10
10.799999758601189
20
-1.0000000000000233
42
0.99999999999999989
10
10.799999758601189
20
0.99999999999997691
10
3.6593490635109194
20
0.99999999999997846
42
0.99999999999999989
0
LWPOLYLINE
5
137
100
AcDbEntity
8
0
100
AcDbPolyline
90
4
70
1
43
0.0
10
-3.6593490635109194
20
0.99999999999997868
10
-10.79999975860119
20
0.99999999999997702
42
0.99999999999999989
10
-10.79999975860119
20
-1.0000000000000235
10
-3.6593490635109194
20
-1.000000000000022
42
0.99999999999999989
0
CIRCLE
5
138
100
AcDbEntity
8
0
100
AcDbCircle
10
-11.258330249197702
20
6.4999999999999858
30
0
40
1.5000000000000013
210
0
220
5.3976053469340249e-79
230
1
0
CIRCLE
5
139
100
AcDbEntity
8
0
100
AcDbCircle
10
4.7824692379023848e-30
20
-2.1538326677728037e-14
30
0
40
1.5000000000000002
210
-5.4738221262688167e-48
220
2.4651903288156619e-32
230
1
0
CIRCLE
5
140
100
AcDbEntity
8
0
100
AcDbCircle
10
11.258330249197709
20
6.4999999999999698
30
0
40
1.5000000000000013
210
0
220
5.3976053469340249e-79
230
1
0
ARC
5
141
100
AcDbEntity
8
0
100
AcDbCircle
10
-17.045772570483525
20
-23.461493186476979
30
1.7105694144590052e-48
40
1.0000000149011599
210
-5.0738358345937165e-33
220
9.0362428295542586e-33
230
1
100
AcDbArc
50
54.000000000000107
51
233.99999914622646
0
ARC
5
142
100
AcDbEntity
8
0
100
AcDbCircle
10
4.7824692379023848e-30
20
-2.1538326677728037e-14
30
0
40
28.000000417232513
210
1.2235093728170491e-32
220
-9.0803832603476849e-33
230
1
100
AcDbArc
50
234
51
261
0
ARC
5
143
100
AcDbEntity
8
0
100
AcDbCircle
10
-4.5365995537673056
20
-28.642962304072405
30
0
40
1.0000000149011596
210
6.6941110367285994e-33
220
6.7487127804360586e-33
230
1
100
AcDbArc
50
-99.000000000000156
51
80.999999999999744
0
ARC
5
144
100
AcDbEntity
8
0
100
AcDbCircle
10
4.7824692379023848e-30
20
-2.1538326677728037e-14
30
0
40
30.000000447034832
210
1.2569496360609476e-33
220
-7.3489786230971505e-34
230
1
100
AcDbArc
50
233.99999997154083
51
260.99999999999994
0
LWPOLYLINE
5
145
100
AcDbEntity
8
0
100
AcDbPolyline
90
4
70
1
43
0.0
10
-24.270510192907203
20
17.633557831534649
42
-0.99999999999999989
10
-22.652476180046726
20
16.457987309432344
42
0.11835779964076756
10
-27.655273948759547
20
4.3801650863959898
42
-0.99999999999999989
10
-29.630650659385221
20
4.6930340211385619
42
-0.11835779964076772
0
ARC
5
146
100
AcDbEntity
8
0
100
AcDbCircle
10
4.5365995537672923
20
-28.642962304072405
30
-6.8422776578360209e-48
40
1.0000000149011594
210
4.4634189770370258e-33
220
-3.2061212057403824e-32
230
1
100
AcDbArc
50
98.999999999999972
51
278.99999914622634
0
ARC
5
147
100
AcDbEntity
8
0
100
AcDbCircle
10
4.7824692379023848e-30
20
-2.1538326677728037e-14
30
0
40
28.00000041723251
210
-7.8035825758884212e-34
220
1.0466944003340068e-33
230
1
100
AcDbArc
50
279
51
306
0
ARC
5
148
100
AcDbEntity
8
0
100
AcDbCircle
10
17.045772570483514
20
-23.461493186476986
30
-2.0526832973508063e-47
40
1.0000000149011599
210
-1.9563860988877278e-32
220
1.0907568471452684e-32
230
1
100
AcDbArc
50
-53.99999999999995
51
126.0000000000001
0
ARC
5
149
100
AcDbEntity
8
0
100
AcDbCircle
10
4.7824692379023848e-30
20
-2.1538326677728037e-14
30
0
40
30.000000447034832
210
-1.7231022433401424e-32
220
-3.8213974415802269e-33
230
1
100
AcDbArc
50
278.99999997154083
51
306
0
LWPOLYLINE
5
150
100
AcDbEntity
8
0
100
AcDbPolyline
90
4
70
1
43
0.0
10
24.270510192907206
20
-17.633557831534702
42
-0.99999999999999989
10
22.652476180046726
20
-16.45798730943239
42
0.11835779964076781
10
27.655273948759547
20
-4.380165086396036
42
-0.99999999999999989
10
29.630650659385232
20
-4.6930340211386152
42
-0.11835779964076772
0
ARC
5
151
100
AcDbEntity
8
0
100
AcDbCircle
10
28.642962304072384
20
4.5365995537672674
30
3.4211388289180104e-48
40
1.0000000149011594
210
4.4634189770370552e-33
220
-3.2061212057403813e-32
230
1
100
AcDbArc
50
-171.00000000000003
51
8.9999991462262763
0
ARC
5
152
100
AcDbEntity
8
0
100
AcDbCircle
10
4.7824692379023848e-30
20
-2.1538326677728037e-14
30
0
40
28.000000417232513
210
1.227962110911146e-33
220
-7.6144657187821522e-33
230
1
100
AcDbArc
50
8.999999999999984
51
35.999999999999972
0
ARC
5
153
100
AcDbEntity
8
0
100
AcDbCircle
10
23.461493186476972
20
17.045772570483489
30
4.9606513019311151e-47
40
1.0000000149011599
210
-1.9563860988877229e-32
220
1.0907568471452714e-32
230
1
100
AcDbArc
50
36.000000000000064
51
215.99999999999986
0
ARC
5
154
100
AcDbEntity
8
0
100
AcDbCircle
10
4.7824692379023848e-30
20
-2.1538326677728037e-14
30
0
40
30.000000447034832
210
-3.9348304123262102e-33
220
2.4714198533687204e-32
230
1
100
AcDbArc
50
8.999999971540861
51
35.999999999999972
0
ARC
5
155
100
AcDbEntity
8
0
100
AcDbCircle
10
17.045772570483525
20
23.46149318647694
30
-3.8487811825327617e-48
40
1.0000000149011599
210
-5.0738358345937179e-33
220
9.0362428295542599e-33
230
1
100
AcDbArc
50
-125.9999999999999
51
53.999999146226472
0
ARC
5
156
100
AcDbEntity
8
0
100
AcDbCircle
10
4.7824692379023848e-30
20
-2.1538326677728037e-14
30
0
40
28.000000417232517
210
1.2235093728170486e-32
220
-9.0803832603476794e-33
230
1
100
AcDbArc
50
54
51
80.999999999999929
0
ARC
5
157
100
AcDbEntity
8
0
100
AcDbCircle
10
4.5365995537673083
20
28.64296230407237
30
0
40
1.0000000149011596
210
6.6941110367285994e-33
220
6.7487127804360586e-33
230
1
100
AcDbArc
50
80.999999999999901
51
261.00000000000136
0
ARC
5
158
100
AcDbEntity
8
0
100
AcDbCircle
10
4.7824692379023848e-30
20
-2.1538326677728037e-14
30
0
40
30.000000447034839
210
1.2569496360609584e-33
220
-7.348978623097225e-34
230
1
100
AcDbArc
50
53.999999971540873
51
80.999999999999972
0
LWPOLYLINE
5
159
100
AcDbEntity
8
0
100
AcDbPolyline
90
4
70
1
43
0.0
10
-17.633557831534667
20
24.270510192907185
42
-0.11835779964076772
10
-4.6930340211385797
20
29.630650659385218
42
-0.99999999999999989
10
-4.3801650863960102
20
27.655273948759532
42
0.11835779964076744
10
-16.457987309432379
20
22.652476180046712
42
-0.99999999999999989
0
ARC
5
160
100
AcDbEntity
8
0
100
AcDbCircle
10
-20.429572792703958
20
40.095294185942961
30
-3.0790249460262094e-47
40
1.0000000149011536
210
-6.0271632054413416e-33
220
2.7142418486835218e-32
230
1
100
AcDbArc
50
-63.000000000000611
51
116.99999999999939
0
ARC
5
161
100
AcDbEntity
8
0
100
AcDbCircle
10
4.7824692379023848e-30
20
-2.1538326677728037e-14
30
0
40
44.000000655651093
210
-4.5103216246636851e-33
220
-2.9847920969953854e-33
230
1
100
AcDbArc
50
117.00000000000001
51
153
0
ARC
5
162
100
AcDbEntity
8
0
100
AcDbCircle
10
-40.095294185942983
20
20.429572792703951
30
-4.6185374190393141e-47
40
1.0000000149011636
210
5.3737932494968907e-33
220
2.238345978664265e-32
230
1
100
AcDbArc
50
153.00000000000063
51
332.99999999999932
0
ARC
5
163
100
AcDbEntity
8
0
100
AcDbCircle
10
4.7824692379023848e-30
20
-2.1538326677728037e-14
30
0
40
46.000000685453401
210
1.7401177762071004e-33
220
1.5434475861878619e-33
230
1
100
AcDbArc
50
117
51
153
0
LWPOLYLINE
5
164
100
AcDbEntity
8
0
100
AcDbPolyline
90
4
70
1
43
0.0
10
-37.532157501887966
20
5.9445097601088541
42
-0.11835779964076772
10
-30.742646244349121
20
22.335839919943901
42
-0.99999999999999989
10
-29.124612231488655
20
21.16026939784161
42
0.11835779964076787
10
-35.55678079126227
20
5.6316408253662935
42
-0.99999999999999989
0
LWPOLYLINE
5
165
100
AcDbEntity
8
0
100
AcDbPolyline
90
4
70
1
43
0.0
10
-43.748600401482022
20
14.214781953064312
42
-0.99999999999999989
10
-41.846487340547995
20
13.596747955105
42
0.15838444032453594
10
-41.846487340548002
20
-13.596747955105057
42
-0.99999999999999989
10
-43.748600401482022
20
-14.214781953064353
42
-0.15838444032453616
0
ARC
5
166
100
AcDbEntity
8
0
100
AcDbCircle
10
-5.7880752927375863
20
36.544469146575096
30
-1.4539840022901544e-47
40
1.0000000149011508
210
6.0701151139536048e-34
220
-7.7128135800043305e-33
230
1
100
AcDbArc
50
-80.999999999999858
51
98.999999146226486
0
ARC
5
167
100
AcDbEntity
8
0
100
AcDbCircle
10
4.7824692379023848e-30
20
-2.1538326677728037e-14
30
0
40
36.000000536441817
210
-6.3305362695607228e-34
220
1.1664956555767702e-34
230
1
100
AcDbArc
50
99.000000000000014
51
125.99999999999991
0
ARC
5
168
100
AcDbEntity
8
0
100
AcDbCircle
10
-21.748054658892766
20
29.933629237918865
30
7.6975623650655235e-48
40
1.0000000149011561
210
-1.956386121873699e-32
220
1.0907567020175339e-32
230
1
100
AcDbArc
50
125.99999999999976
51
306.00000000000227
0
ARC
5
169
100
AcDbEntity
8
0
100
AcDbCircle
10
4.7824692379023848e-30
20
-2.1538326677728037e-14
30
0
40
38.000000566244118
210
-6.3140952274398345e-33
220
-1.2055532458784233e-33
230
1
100
AcDbArc
50
98.999999977532269
51
126
0
LWPOLYLINE
5
170
100
AcDbEntity
8
0
100
AcDbPolyline
90
4
70
1
43
0.0
10
14.21478195306435
20
43.748600401481994
42
-0.99999999999999989
10
13.596747955105013
20
41.846487340547974
42
0.158384440324536
10
-13.596747955105029
20
41.846487340547966
42
-0.99999999999999989
10
-14.21478195306436
20
43.748600401482001
42
-0.15838444032453641
0
ARC
5
171
100
AcDbEntity
8
0
100
AcDbCircle
10
4.7824692379023848e-30
20
-2.1538326677728037e-14
30
0
40
38.000000566244125
210
6.0701167393075665e-34
220
7.7128146062126204e-33
230
1
100
AcDbArc
50
54.000000000000036
51
80.999999999999972
0
ARC
5
172
100
AcDbEntity
8
0
100
AcDbCircle
10
21.74805465889278
20
29.933629237918858
30
1.7105694144590052e-48
40
1.0000000149011476
210
1.4869972678788058e-32
220
-5.4537835100873699e-33
230
1
100
AcDbArc
50
-126.0000000000004
51
54.000000000001741
0
ARC
5
173
100
AcDbEntity
8
0
100
AcDbCircle
10
4.7824692379023848e-30
20
-2.1538326677728037e-14
30
0
40
36.000000536441817
210
1.2255284393114137e-32
220
-9.0525931941569577e-33
230
1
100
AcDbArc
50
54
51
80.999999999999929
0
ARC
5
174
100
AcDbEntity
8
0
100
AcDbCircle
10
5.7880752927375942
20
36.544469146575096
30
4.276423536147513e-48
40
1.0000000149011561
210
5.1336462031192784e-32
220
2.8860942399037587e-31
230
1
100
AcDbArc
50
80.999999999999559
51
261.00000000000199
0
LWPOLYLINE
5
175
100
AcDbEntity
8
0
100
AcDbPolyline
90
4
70
1
43
0.0
10
40.986300723408391
20
20.883563299208472
42
-0.99999999999999989
10
39.204287648477582
20
19.975582286199408
42
0.15838444032453616
10
19.975582286199437
20
39.20428764847756
42
-0.99999999999999989
10
20.88356329920849
20
40.986300723408384
42
-0.15838444032453627
0
ARC
5
176
100
AcDbEntity
8
0
100
AcDbCircle
10
4.7824692379023848e-30
20
-2.1538326677728037e-14
30
0
40
38.000000566244118
210
-5.0738360250182688e-33
220
-9.0362416836311715e-33
230
1
100
AcDbArc
50
8.999999999999984
51
35.999999999999957
0
ARC
5
177
100
AcDbEntity
8
0
100
AcDbCircle
10
36.544469146575118
20
5.7880752927375578
30
1.9243905912663809e-47
40
1.0000000149011508
210
6.0701151139535509e-34
220
-7.7128135800043483e-33
230
1
100
AcDbArc
50
-170.99999999999986
51
9.0000000000010409
0
ARC
5
178
100
AcDbEntity
8
0
100
AcDbCircle
10
4.7824692379023848e-30
20
-2.1538326677728037e-14
30
0
40
36.000000536441817
210
1.2232038700147455e-33
220
-7.6152193501034633e-33
230
1
100
AcDbArc
50
8.999999999999984
51
35.999999999999972
0
ARC
5
179
100
AcDbEntity
8
0
100
AcDbCircle
10
29.93362923791889
20
21.748054658892745
30
3.4211388289180104e-48
40
1.0000000149011579
210
-3.0142457242867889e-31
220
-1.9387622664767668e-31
230
1
100
AcDbArc
50
35.99999999999887
51
216.00000000000034
0
ARC
5
180
100
AcDbEntity
8
0
100
AcDbCircle
10
42.797543871014994
20
-13.905764954084702
30
5.5593505969917669e-48
40
1.0000000149011643
210
1.4135776684394259e-32
220
1.1426785589591874e-32
230
1
100
AcDbArc
50
162.00000000000028
51
342.00000000000045
0
ARC
5
181
100
AcDbEntity
8
0
100
AcDbCircle
10
4.7824692379023848e-30
20
-2.1538326677728037e-14
30
0
40
44.000000655651085
210
4.4938290820765422e-33
220
1.4559644275630763e-32
230
1
100
AcDbArc
50
-18
51
17.999999999999929
0
ARC
5
182
100
AcDbEntity
8
0
100
AcDbCircle
10
42.797543871015009
20
13.905764954084637
30
-6.9278061285589711e-47
40
1.0000000149011636
210
2.4131000537546628e-33
220
-1.5235714119456063e-32
230
1
100
AcDbArc
50
17.999999999999638
51
198.00000000000244
0
ARC
5
183
100
AcDbEntity
8
0
100
AcDbCircle
10
4.7824692379023848e-30
20
-2.1538326677728037e-14
30
0
40
46.000000685453415
210
-1.8034518554495677e-33
220
-6.2478162942390952e-33
230
1
100
AcDbArc
50
-18
51
17.999999999999968
0
LWPOLYLINE
5
184
100
AcDbEntity
8
0
100
AcDbPolyline
90
4
70
1
43
0.0
10
37.532157501887966
20
-5.9445097601089074
42
-0.11835779964076772
10
30.74264624434911
20
-22.335839919943936
42
-0.99999999999999989
10
29.124612231488651
20
-21.160269397841638
42
0.11835779964076751
10
35.55678079126227
20
-5.631640825366329
42
-0.99999999999999989
0
ARC
5
185
100
AcDbEntity
8
0
100
AcDbCircle
10
20.429572792703951
20
-40.095294185943018
30
-8.5528470722950261e-47
40
1.0000000149011687
210
-6.0271632054416619e-33
220
2.7142418486834414e-32
230
1
100
AcDbArc
50
117.00000000000013
51
297.00000000000011
0
ARC
5
186
100
AcDbEntity
8
0
100
AcDbCircle
10
4.7824692379023848e-30
20
-2.1538326677728037e-14
30
0
40
44.000000655651093
210
6.4721817070404418e-33
220
2.6110728496652244e-33
230
1
100
AcDbArc
50
296.99999999999994
51
332.99999999999994
0
ARC
5
187
100
AcDbEntity
8
0
100
AcDbCircle
10
40.095294185942983
20
-20.429572792703979
30
-6.1580498920524188e-47
40
1.0000000149011599
210
5.3737932494965225e-33
220
2.2383459786641867e-32
230
1
100
AcDbArc
50
-27.000000000001016
51
153.00000000000117
0
ARC
5
188
100
AcDbEntity
8
0
100
AcDbCircle
10
4.7824692379023848e-30
20
-2.1538326677728037e-14
30
0
40
46.000000685453429
210
-1.6029945896049117e-32
220
-7.5108520939631114e-33
230
1
100
AcDbArc
50
297
51
332.99999999999994
0
LWPOLYLINE
5
189
100
AcDbEntity
8
0
100
AcDbPolyline
90
4
70
1
43
0.0
10
22.335839919943901
20
-30.742646244349167
42
-0.11835779964076749
10
5.9445097601088692
20
-37.532157501887966
42
-0.99999999999999989
10
5.6316408253662962
20
-35.556780791262305
42
0.11835779964076774
10
21.160269397841631
20
-29.124612231488666
42
-0.99999999999999989
0
LWPOLYLINE
5
190
100
AcDbEntity
8
0
100
AcDbPolyline
90
4
70
1
43
0.0
10
-14.214781953064353
20
-43.748600401482051
42
-0.99999999999999989
10
-13.596747955105013
20
-41.846487340548023
42
0.15838444032453616
10
13.596747955105023
20
-41.84648734054803
42
-0.99999999999999989
10
14.214781953064348
20
-43.748600401482065
42
-0.15838444032453627
0
LWPOLYLINE
5
191
100
AcDbEntity
8
0
100
AcDbPolyline
90
4
70
1
43
0.0
10
-5.9445097601088959
20
-37.532157501887973
42
-0.11835779964076772
10
-22.335839919943933
20
-30.742646244349139
42
-0.99999999999999989
10
-21.160269397841628
20
-29.124612231488669
42
0.11835779964076763
10
-5.6316408253663086
20
-35.556780791262298
42
-0.99999999999999989
0
LWPOLYLINE
5
192
100
AcDbEntity
8
0
100
AcDbPolyline
90
4
70
1
43
0.0
10
-40.986300723408377
20
-20.883563299208507
42
-0.99999999999999989
10
-39.204287648477589
20
-19.975582286199437
42
0.15838444032453627
10
-19.975582286199426
20
-39.204287648477624
42
-0.99999999999999989
10
-20.883563299208497
20
-40.986300723408391
42
-0.15838444032453616
0
ARC
5
193
100
AcDbEntity
8
0
100
AcDbCircle
10
-28.642962304072391
20
-4.5365995537673216
30
1.8388621205434306e-47
40
1.000000014901159
210
6.0701183646618549e-34
220
-7.7128156324208023e-33
230
1
100
AcDbArc
50
8.9999999999998224
51
189.00000085377349
0
ARC
5
194
100
AcDbEntity
8
0
100
AcDbCircle
10
4.7824692379023848e-30
20
-2.1538326677728037e-14
30
0
40
28.000000417232517
210
1.2279621109111537e-33
220
-7.6144657187821796e-33
230
1
100
AcDbArc
50
188.99999999999997
51
215.99999999999994
0
ARC
5
195
100
AcDbEntity
8
0
100
AcDbCircle
10
-23.461493186476968
20
-17.04577257048355
30
3.934309653255712e-47
40
1.0000000149011599
210
-1.95638609888773e-32
220
1.090756847145266e-32
230
1
100
AcDbArc
50
-144.00000000000011
51
36.000000000001407
0
ARC
5
196
100
AcDbEntity
8
0
100
AcDbCircle
10
4.7824692379023848e-30
20
-2.1538326677728037e-14
30
0
40
30.000000447034839
210
-3.9348304558634614e-33
220
2.4714198522397714e-32
230
1
100
AcDbArc
50
189.00000002845908
51
216
0
CIRCLE
5
197
100
AcDbEntity
8
0
100
AcDbCircle
10
-24.748737341529164
20
24.748737341529143
30
0
40
1.4999999999999991
210
0
220
5.3976053469340249e-79
230
1
0
ARC
5
198
100
AcDbEntity
8
0
100
AcDbCircle
10
4.7824692379023848e-30
20
-2.1538326677728037e-14
30
0
40
38.000000566244125
210
-2.5017644728824626e-32
220
-2.3526266877350013e-32
230
1
100
AcDbArc
50
189.00000003177414
51
216
0
ARC
5
199
100
AcDbEntity
8
0
100
AcDbCircle
10
-36.544469146575125
20
-5.7880752927376147
30
-3.8487811825327617e-48
40
1.0000000149011505
210
6.0701183646619105e-34
220
-7.7128156324208406e-33
230
1
100
AcDbArc
50
9.0000000000000657
51
189.00000120741817
0
ARC
5
200
100
AcDbEntity
8
0
100
AcDbCircle
10
4.7824692379023848e-30
20
-2.1538326677728037e-14
30
0
40
36.000000536441824
210
1.2232038700147513e-33
220
-7.6152193501034824e-33
230
1
100
AcDbArc
50
188.99999999999997
51
215.99999999999994
0
ARC
5
201
100
AcDbEntity
8
0
100
AcDbCircle
10
-29.933629237918886
20
-21.748054658892791
30
7.0133345992819214e-47
40
1.000000014901153
210
-1.0592893031733161e-30
220
-7.4449718400901571e-31
230
1
100
AcDbArc
50
-143.99999999999912
51
36.000000000001712
0
CIRCLE
5
202
100
AcDbEntity
8
0
100
AcDbCircle
10
4.7824692379023827e-30
20
34.999999999999986
30
0
40
1.5
210
0
220
5.3976053469340249e-79
230
1
0
CIRCLE
5
203
100
AcDbEntity
8
0
100
AcDbCircle
10
-35.000000000000007
20
-2.9309887850104133e-14
30
0
40
1.4999999999999991
210
0
220
5.3976053469340249e-79
230
1
0
CIRCLE
5
204
100
AcDbEntity
8
0
100
AcDbCircle
10
-24.748737341529168
20
-24.748737341529178
30
0
40
1.4999999999999991
210
0
220
5.3976053469340249e-79
230
1
0
CIRCLE
5
205
100
AcDbEntity
8
0
100
AcDbCircle
10
-4.286263797015731e-15
20
-35.000000000000014
30
0
40
1.5
210
0
220
5.3976053469340249e-79
230
1
0
CIRCLE
5
206
100
AcDbEntity
8
0
100
AcDbCircle
10
24.748737341529157
20
-24.748737341529178
30
0
40
1.4999999999999991
210
0
220
5.3976053469340249e-79
230
1
0
CIRCLE
5
207
100
AcDbEntity
8
0
100
AcDbCircle
10
35
20
-2.9309887850104133e-14
30
0
40
1.4999999999999991
210
0
220
5.3976053469340249e-79
230
1
0
CIRCLE
5
208
100
AcDbEntity
8
0
100
AcDbCircle
10
24.748737341529168
20
24.748737341529143
30
0
40
1.4999999999999991
210
0
220
5.3976053469340249e-79
230
1
0
LWPOLYLINE
5
209
100
AcDbEntity
8
0
100
AcDbPolyline
90
4
70
1
43
0.0
10
-1.8275712127870822
20
40.959248449646807
42
-0.022298535354269528
10
1.8275712127870283
20
40.959248449646815
42
-0.99999999999999989
10
1.6715590354214795
20
37.462727225644265
42
0.022298535354268633
10
-1.6715590354214878
20
37.462727225644265
42
-0.99999999999999989
0
ARC
5
210
100
AcDbEntity
8
0
100
AcDbCircle
10
4.7824692379023848e-30
20
-2.1538326677728037e-14
30
0
40
41.000000610947609
210
-2.0353000733255888e-32
220
-3.1080349525971924e-33
230
1
100
AcDbArc
50
132.44519945025172
51
137.55480054974828
0
ARC
5
211
100
AcDbEntity
8
0
100
AcDbCircle
10
-26.489226033640811
20
28.963484760403993
30
-3.4211388289180104e-48
40
1.7500000335276078
210
-3.7158076440129731e-33
220
-1.508317561294436e-32
230
1
100
AcDbArc
50
-47.554800549748236
51
132.4451994502522
0
ARC
5
212
100
AcDbEntity
8
0
100
AcDbCircle
10
4.7824692379023848e-30
20
-2.1538326677728037e-14
30
0
40
37.500000543892384
210
-9.806551509090958e-33
220
-8.4235183284440052e-33
230
1
100
AcDbArc
50
132.44519945025172
51
137.55480054974828
0
ARC
5
213
100
AcDbEntity
8
0
100
AcDbCircle
10
-28.963484760404011
20
26.48922603364079
30
3.4211388289180104e-47
40
1.7500000335276202
210
-2.3420919663170553e-31
220
1.9247910427214498e-31
230
1
100
AcDbArc
50
137.55480054974799
51
317.55480054974845
0
ARC
5
214
100
AcDbEntity
8
0
100
AcDbCircle
10
4.7824692379023848e-30
20
-2.1538326677728037e-14
30
0
40
41.000000610947609
210
4.900577191219175e-35
220
-2.1977125911464668e-33
230
1
100
AcDbArc
50
177.44519945025175
51
182.55480054974825
0
ARC
5
215
100
AcDbEntity
8
0
100
AcDbCircle
10
-39.210987837645561
20
1.7495651241042298
30
-5.9869929506065182e-48
40
1.750000033527608
210
1.5882182970497312e-33
220
2.1290340726730831e-33
230
1
100
AcDbArc
50
-2.5548005497483852
51
177.44519945025249
0
ARC
5
216
100
AcDbEntity
8
0
100
AcDbCircle
10
4.7824692379023848e-30
20
-2.1538326677728037e-14
30
0
40
37.500000543892391
210
2.8417579032859123e-35
220
2.1986312210054322e-33
230
1
100
AcDbArc
50
177.44519945025192
51
182.55480054974839
0
ARC
5
217
100
AcDbEntity
8
0
100
AcDbCircle
10
-39.210987837645568
20
-1.7495651241042853
30
4.276423536147513e-49
40
1.7500000335276074
210
-1.0490311935791645e-33
220
-2.246706184158199e-33
230
1
100
AcDbArc
50
-177.44519945025235
51
2.5548005497463855
0
LWPOLYLINE
5
218
100
AcDbEntity
8
0
100
AcDbPolyline
90
4
70
1
43
0.0
10
-27.67027433338686
20
-30.254850328712873
42
-0.022298535354268973
10
-30.254850328712884
20
-27.670274333386836
42
-0.99999999999999989
10
-27.672119192095156
20
-25.308177733894812
42
0.022298535354268945
10
-25.308177733894837
20
-27.672119192095124
42
-0.99999999999999989
0
LWPOLYLINE
5
219
100
AcDbEntity
8
0
100
AcDbPolyline
90
4
70
1
43
0.0
10
1.8275712127870767
20
-40.95924844964685
42
-0.022298535354269528
10
-1.8275712127870332
20
-40.95924844964685
42
-0.99999999999999989
10
-1.6715590354214847
20
-37.462727225644308
42
0.022298535354268633
10
1.6715590354214931
20
-37.462727225644301
42
-0.99999999999999989
0
LWPOLYLINE
5
220
100
AcDbEntity
8
0
100
AcDbPolyline
90
4
70
1
43
0.0
10
30.254850328713005
20
-27.670274333386725
42
-0.022298535354270194
10
27.670274333386825
20
-30.254850328712894
42
-0.99999999999999989
10
25.308177733894794
20
-27.67211919209516
42
0.022298535354268321
10
27.672119192095078
20
-25.308177733894848
42
-0.99999999999999989
0
LWPOLYLINE
5
221
100
AcDbEntity
8
0
100
AcDbPolyline
90
4
70
1
43
0.0
10
40.959248449646843
20
1.8275712127870511
42
-0.022298535354269528
10
40.959248449646836
20
-1.8275712127870589
42
-0.99999999999999989
10
37.462727225644286
20
-1.67155903542151
42
0.022298535354268633
10
37.462727225644279
20
1.6715590354214678
42
-0.99999999999999989
0
LWPOLYLINE
5
222
100
AcDbEntity
8
0
100
AcDbPolyline
90
4
70
1
43
0.0
10
27.67027433338686
20
30.254850328712838
42
-0.022298535354268973
10
30.25485032871288
20
27.670274333386811
42
-0.99999999999999989
10
27.672119192095156
20
25.308177733894766
42
0.022298535354268945
10
25.308177733894787
20
27.672119192095117
42
-0.99999999999999989
0
ENDSEC
0
SECTION
2
OBJECTS
0
DICTIONARY
5
C
100
AcDbDictionary
3
ACAD_GROUP
350
D
3
ACAD_MLINESTYLE
350
17
0
DICTIONARY
5
D
100
AcDbDictionary
0
DICTIONARY
5
1A
330
C
100
AcDbDictionary
0
DICTIONARY
5
17
100
AcDbDictionary
0
ENDSEC
0
EOF
