0
SECTION
2
HEADER
9
$INSUNITS
70
4
9
$ACADVER
1
AC1014
9
$HANDSEED
5
FFFF
0
ENDSEC
0
SECTION
2
TABLES
0
TABLE
2
VPORT
5
8
100
AcDbSymbolTable
0
ENDTAB
0
TABLE
2
LTYPE
5
5
100
AcDbSymbolTable
0
LTYPE
5
14
100
AcDbSymbolTableRecord
100
AcDbLinetypeTableRecord
2
BYBLOCK
70
0
0
LTYPE
5
15
100
AcDbSymbolTableRecord
100
AcDbLinetypeTableRecord
2
BYLAYER
70
0
0
ENDTAB
0
TABLE
2
LAYER
5
2
100
AcDbSymbolTable
70
2
0
LAYER
5
50
100
AcDbSymbolTableRecord
100
AcDbLayerTableRecord
2
0
70
0
6
CONTINUOUS
0
ENDTAB
0
TABLE
2
STYLE
5
3
100
AcDbSymbolTable
70
1
0
STYLE
5
11
100
AcDbSymbolTableRecord
100
AcDbTextStyleTableRecord
2
STANDARD
70
0
0
ENDTAB
0
TABLE
2
VIEW
5
6
100
AcDbSymbolTable
70
0
0
ENDTAB
0
TABLE
2
UCS
5
7
100
AcDbSymbolTable
70
0
0
ENDTAB
0
TABLE
2
APPID
5
9
100
AcDbSymbolTable
70
2
0
APPID
5
12
100
AcDbSymbolTableRecord
100
AcDbRegAppTableRecord
2
ACAD
70
0
0
ENDTAB
0
TABLE
2
DIMSTYLE
5
A
100
AcDbSymbolTable
70
1
0
ENDTAB
0
TABLE
2
BLOCK_RECORD
5
1
100
AcDbSymbolTable
70
1
0
BLOCK_RECORD
5
1F
100
AcDbSymbolTableRecord
100
AcDbBlockTableRecord
2
*MODEL_SPACE
0
BLOCK_RECORD
5
1B
100
AcDbSymbolTableRecord
100
AcDbBlockTableRecord
2
*PAPER_SPACE
0
ENDTAB
0
ENDSEC
0
SECTION
2
BLOCKS
0
BLOCK
5
20
100
AcDbEntity
100
AcDbBlockBegin
2
*MODEL_SPACE
0
ENDBLK
5
21
100
AcDbEntity
100
AcDbBlockEnd
0
BLOCK
5
1C
100
AcDbEntity
100
AcDbBlockBegin
2
*PAPER_SPACE
0
ENDBLK
5
1D
100
AcDbEntity
100
AcDbBlockEnd
0
ENDSEC
0
SECTION
2
ENTITIES
0
CIRCLE
5
100
100
AcDbEntity
8
0
100
AcDbCircle
10
6.902532920683855e-31
20
-3.3861802251067282e-15
30
0
40
49
210
5.4738221262688167e-48
220
-2.4651903288156619e-32
230
1
0
LWPOLYLINE
5
101
100
AcDbEntity
8
0
100
AcDbPolyline
90
4
70
1
43
0.0
10
-10.997871307288815
20
-24.658605530490036
42
-0.32456150906759818
10
-26.853914464948225
20
2.8048668255809779
42
-0.99999998946328783
10
-24.864735613503615
20
2.597098933534379
42
0.32456150930053129
10
-10.18321417341558
20
-22.832042157861146
42
-0.99999999999999989
0
ARC
5
102
100
AcDbEntity
8
0
100
AcDbCircle
10
10.590542740352157
20
-23.745323844175594
30
1.6303864731562393e-48
40
1.0000000000000004
210
-5.7658814740484201e-33
220
2.4312829286186659e-33
230
1
100
AcDbArc
50
114.03712966269853
51
294.03712880892482
0
ARC
5
103
100
AcDbEntity
8
0
100
AcDbCircle
10
6.902532920683855e-31
20
-3.3861802251067282e-15
30
0
40
24.999999999999993
210
-3.830330833180378e-33
220
-1.9084641373271641e-33
230
1
100
AcDbArc
50
-65.962870337302121
51
5.9628703373020047
0
ARC
5
104
100
AcDbEntity
8
0
100
AcDbCircle
10
25.859325040320513
20
2.7009828690779258
30
-5.1317082433770156e-48
40
0.99999999999999989
210
-2.3711607789345742e-34
220
-2.9960513961264389e-32
230
1
100
AcDbArc
50
5.962870337301883
51
185.96287033730141
0
ARC
5
105
100
AcDbEntity
8
0
100
AcDbCircle
10
6.902532920683855e-31
20
-3.3861802251067282e-15
30
0
40
26.999999999999993
210
-4.4271918304535209e-33
220
-1.7892589883538803e-33
230
1
100
AcDbArc
50
-65.962870368923291
51
5.9628703373019434
0
ARC
5
106
100
AcDbEntity
8
0
100
AcDbCircle
10
15.268782299968358
20
21.044340975097633
30
-1.5395124730131047e-47
40
0.99999999999999967
210
-1.9556778275058732e-32
220
-1.0952193376489427e-32
230
1
100
AcDbArc
50
-125.96287033730205
51
54.037129662697936
0
ARC
5
107
100
AcDbEntity
8
0
100
AcDbCircle
10
6.902532920683855e-31
20
-3.3861802251067282e-15
30
0
40
25.000000000000007
210
1.2824967393419015e-32
220
-8.299525277059446e-33
230
1
100
AcDbArc
50
54.037129662697922
51
125.96287033730199
0
ARC
5
108
100
AcDbEntity
8
0
100
AcDbCircle
10
-15.268782299968326
20
21.044340975097654
30
4.1053665947016125e-47
40
1.0000000000000044
210
-5.0796804063381223e-33
220
-9.0010011804759179e-33
230
1
100
AcDbArc
50
125.96287033730204
51
305.96287033730175
0
ARC
5
109
100
AcDbEntity
8
0
100
AcDbCircle
10
6.902532920683855e-31
20
-3.3861802251067282e-15
30
0
40
27.000000000000007
210
6.6984541303637459e-33
220
-5.791255689860148e-33
230
1
100
AcDbArc
50
54.037129662697922
51
125.96287033730199
0
CIRCLE
5
110
100
AcDbEntity
8
0
100
AcDbCircle
10
21.542382203043143
20
12.437500163912743
30
0
40
8.0000000000000036
210
-6.5604258862959815e-142
220
5.3976053469340249e-79
230
1
0
CIRCLE
5
111
100
AcDbEntity
8
0
100
AcDbCircle
10
24.748737341529164
20
24.748737341529157
30
0
40
1.4999999999999991
210
5.4738221262688167e-48
220
-2.4651903288156619e-32
230
1
0
CIRCLE
5
112
100
AcDbEntity
8
0
100
AcDbCircle
10
24.748737341529157
20
-24.748737341529164
30
0
40
1.4999999999999991
210
5.4738221262688167e-48
220
-2.4651903288156619e-32
230
1
0
CIRCLE
5
113
100
AcDbEntity
8
0
100
AcDbCircle
10
-24.748737341529157
20
-24.748737341529171
30
0
40
1.4999999999999991
210
5.4738221262688167e-48
220
-2.4651903288156619e-32
230
1
0
CIRCLE
5
114
100
AcDbEntity
8
0
100
AcDbCircle
10
34.999999999999993
20
1.9984014443252826e-15
30
0
40
1.4999999999999991
210
5.4738221262688167e-48
220
-2.4651903288156619e-32
230
1
0
CIRCLE
5
115
100
AcDbEntity
8
0
100
AcDbCircle
10
-2.2204460492503131e-15
20
-35
30
0
40
1.4999999999999991
210
5.4738221262688167e-48
220
-2.4651903288156619e-32
230
1
0
CIRCLE
5
116
100
AcDbEntity
8
0
100
AcDbCircle
10
4.4408920985006262e-15
20
35
30
0
40
1.4999999999999991
210
5.4738221262688167e-48
220
-2.4651903288156619e-32
230
1
0
CIRCLE
5
117
100
AcDbEntity
8
0
100
AcDbCircle
10
-21.542382203043125
20
12.437500163912773
30
0
40
8
210
-6.5604258862959829e-142
220
5.3976053469340261e-79
230
1
0
CIRCLE
5
118
100
AcDbEntity
8
0
100
AcDbCircle
10
-2.2204460492503131e-14
20
-24.875000327825511
30
0
40
8
210
-6.5604258862959829e-142
220
5.3976053469340261e-79
230
1
0
LWPOLYLINE
5
119
100
AcDbEntity
8
0
100
AcDbPolyline
90
6
70
1
43
0.0
10
6.2065155830586205
20
22.000000327825539
10
-6.2065155830586072
20
22.000000327825546
10
-22.155816958692203
20
-5.625000000000016
10
-15.949301375633604
20
-16.375000327825514
10
15.949301375633578
20
-16.375000327825525
10
22.155816958692199
20
-5.62500000000004
0
CIRCLE
5
120
100
AcDbEntity
8
0
100
AcDbCircle
10
-24.748737341529164
20
24.748737341529157
30
0
40
1.4999999999999991
210
5.4738221262688167e-48
220
-2.4651903288156619e-32
230
1
0
CIRCLE
5
121
100
AcDbEntity
8
0
100
AcDbCircle
10
-34.999999999999993
20
-6.8833827526759698e-15
30
0
40
1.4999999999999991
210
5.4738221262688167e-48
220
-2.4651903288156619e-32
230
1
0
ENDSEC
0
SECTION
2
OBJECTS
0
DICTIONARY
5
C
100
AcDbDictionary
3
ACAD_GROUP
350
D
3
ACAD_MLINESTYLE
350
17
0
DICTIONARY
5
D
100
AcDbDictionary
0
DICTIONARY
5
1A
330
C
100
AcDbDictionary
0
DICTIONARY
5
17
100
AcDbDictionary
0
ENDSEC
0
EOF
