0
SECTION
2
HEADER
9
$INSUNITS
70
4
9
$ACADVER
1
AC1014
9
$HANDSEED
5
FFFF
0
ENDSEC
0
SECTION
2
TABLES
0
TABLE
2
VPORT
5
8
100
AcDbSymbolTable
0
ENDTAB
0
TABLE
2
LTYPE
5
5
100
AcDbSymbolTable
0
LTYPE
5
14
100
AcDbSymbolTableRecord
100
AcDbLinetypeTableRecord
2
BYBLOCK
70
0
0
LTYPE
5
15
100
AcDbSymbolTableRecord
100
AcDbLinetypeTableRecord
2
BYLAYER
70
0
0
ENDTAB
0
TABLE
2
LAYER
5
2
100
AcDbSymbolTable
70
2
0
LAYER
5
50
100
AcDbSymbolTableRecord
100
AcDbLayerTableRecord
2
0
70
0
6
CONTINUOUS
0
ENDTAB
0
TABLE
2
STYLE
5
3
100
AcDbSymbolTable
70
1
0
STYLE
5
11
100
AcDbSymbolTableRecord
100
AcDbTextStyleTableRecord
2
STANDARD
70
0
0
ENDTAB
0
TABLE
2
VIEW
5
6
100
AcDbSymbolTable
70
0
0
ENDTAB
0
TABLE
2
UCS
5
7
100
AcDbSymbolTable
70
0
0
ENDTAB
0
TABLE
2
APPID
5
9
100
AcDbSymbolTable
70
2
0
APPID
5
12
100
AcDbSymbolTableRecord
100
AcDbRegAppTableRecord
2
ACAD
70
0
0
ENDTAB
0
TABLE
2
DIMSTYLE
5
A
100
AcDbSymbolTable
70
1
0
ENDTAB
0
TABLE
2
BLOCK_RECORD
5
1
100
AcDbSymbolTable
70
1
0
BLOCK_RECORD
5
1F
100
AcDbSymbolTableRecord
100
AcDbBlockTableRecord
2
*MODEL_SPACE
0
BLOCK_RECORD
5
1B
100
AcDbSymbolTableRecord
100
AcDbBlockTableRecord
2
*PAPER_SPACE
0
ENDTAB
0
ENDSEC
0
SECTION
2
BLOCKS
0
BLOCK
5
20
100
AcDbEntity
100
AcDbBlockBegin
2
*MODEL_SPACE
0
ENDBLK
5
21
100
AcDbEntity
100
AcDbBlockEnd
0
BLOCK
5
1C
100
AcDbEntity
100
AcDbBlockBegin
2
*PAPER_SPACE
0
ENDBLK
5
1D
100
AcDbEntity
100
AcDbBlockEnd
0
ENDSEC
0
SECTION
2
ENTITIES
0
CIRCLE
5
100
100
AcDbEntity
8
0
100
AcDbCircle
10
-2.8416405635853965e-14
20
-6.3894976914249705e-16
30
0
40
49
210
3.4076214817591619e-79
220
4.803683662353068e-48
230
1
0
LWPOLYLINE
5
101
100
AcDbEntity
8
0
100
AcDbPolyline
90
4
70
1
43
0.0
10
-33.71701027164864
20
-29.802067350127576
42
-0.046702957469813254
10
-38.662309825777236
20
-23.02663238373361
10
-30.070685420048996
20
-17.909602965126137
42
0.04670295746981299
10
-26.224341322393457
20
-23.179385716765857
0
LWPOLYLINE
5
102
100
AcDbEntity
8
0
100
AcDbPolyline
90
4
70
1
43
0.0
10
-38.762579525859955
20
22.857437050145943
42
-0.04670295746981281
10
-33.846939554837554
20
29.654420965029374
10
-26.325397431540335
20
23.064549639467309
42
0.04670295746981299
10
-30.148672964557747
20
17.778006594557965
0
LWPOLYLINE
5
103
100
AcDbEntity
8
0
100
AcDbPolyline
90
4
70
1
43
0.0
10
9.7604186330463865
20
43.928740342828867
42
-0.046702957469813032
10
17.743750765724357
20
41.354072456819225
10
13.800695040007845
20
32.164278577526069
42
0.04670295746981299
10
7.5914367145916737
20
34.16679804442245
0
LWPOLYLINE
5
104
100
AcDbEntity
8
0
100
AcDbPolyline
90
4
70
1
43
0.0
10
44.794849985510403
20
4.2920175646910561
42
-0.046702957469813032
10
44.813180615962153
20
-4.0961986134892072
10
34.854696034637236
20
-3.1859322549360671
42
0.046702957469813434
10
34.840438877619199
20
3.3382358836486197
0
LWPOLYLINE
5
105
100
AcDbEntity
8
0
100
AcDbPolyline
90
4
70
1
43
0.0
10
17.924321178951637
20
-41.276127607538271
42
-0.046702957469812588
10
9.952317998928141
20
-43.88566242462575
10
7.7406917769441144
20
-34.133292996931161
42
0.046702957469812838
10
13.9411386947402
20
-32.103654805863108
0
LWPOLYLINE
5
106
100
AcDbEntity
8
0
100
AcDbPolyline
90
4
70
1
43
0.0
10
4.2920175646910739
20
-44.794849985510425
42
-0.046702957469813476
10
-4.0961986134892694
20
-44.813180615962168
10
-3.1859322549361018
20
-34.854696034637257
42
0.046702957469812838
10
3.3382358836485224
20
-34.840438877619235
0
LWPOLYLINE
5
107
100
AcDbEntity
8
0
100
AcDbPolyline
90
4
70
1
43
0.0
10
43.928740342828824
20
-9.7604186330464522
42
-0.04670295746981281
10
41.354072456819196
20
-17.743750765724382
10
32.164278577526048
20
-13.80069504000787
42
0.04670295746981299
10
34.166798044422421
20
-7.5914367145917039
0
LWPOLYLINE
5
108
100
AcDbEntity
8
0
100
AcDbPolyline
90
4
70
1
43
0.0
10
22.857437050145933
20
38.762579525859891
42
-0.046702957469812588
10
29.654420965029338
20
33.846939554837526
10
23.06454963946728
20
26.325397431540306
42
0.04670295746981299
10
17.778006594557933
20
30.148672964557729
0
LWPOLYLINE
5
109
100
AcDbEntity
8
0
100
AcDbPolyline
90
4
70
1
43
0.0
10
-29.802067350127565
20
33.717010271648668
42
-0.046702957469813032
10
-23.026632383733624
20
38.662309825777228
10
-17.909602965126169
20
30.070685420048967
42
0.04670295746981299
10
-23.179385716765882
20
26.224341322393432
0
LWPOLYLINE
5
110
100
AcDbEntity
8
0
100
AcDbPolyline
90
4
70
1
43
0.0
10
-41.276127607538299
20
-17.924321178951711
42
-0.04670295746981281
10
-43.885662424625792
20
-9.9523179989281783
10
-34.133292996931189
20
-7.7406917769441295
42
0.04670295746981299
10
-32.103654805863144
20
-13.941138694740218
0
LINE
5
111
100
AcDbEntity
8
0
100
AcDbLine
10
-10.959680004488469
20
-30.724945056636383
30
0
11
-7.3901139407720624
21
-19.656709183950579
31
-2.3419308123748788e-30
0
ARC
5
112
100
AcDbEntity
8
0
100
AcDbCircle
10
-2.8416405635853965e-14
20
-6.3894976914249705e-16
30
0
40
21
210
8.6752559122080563e-33
220
2.3075013988865255e-32
230
1
100
AcDbArc
50
236.85460995935557
51
249.39580468579811
0
LINE
5
113
100
AcDbEntity
8
0
100
AcDbLine
10
-11.482074136830693
20
-17.583002403353202
30
5.0533795796357797e-31
11
-18.297206184484576
21
-27.006463677730352
31
2.7117093616972281e-30
0
ARC
5
114
100
AcDbEntity
8
0
100
AcDbCircle
10
-19.1075057215001
20
-26.420447756178362
30
1.7763568394002505e-14
40
1.0000000000000004
210
0
220
0
230
1
100
AcDbArc
50
144.12520732257667
51
324.12520732257667
0
LINE
5
115
100
AcDbEntity
8
0
100
AcDbLine
10
-19.917805258515624
20
-25.834431834626372
30
1.7763568394002505e-14
11
-13.102673210861758
21
-16.410970560249218
31
1.7763568394002505e-14
0
ARC
5
116
100
AcDbEntity
8
0
100
AcDbCircle
10
-2.8416405635853965e-14
20
-6.3894976914249705e-16
30
0
40
21.000000000000007
210
-3.8836107764555736e-33
220
3.464607104412073e-32
230
1
100
AcDbArc
50
218.85460995935554
51
231.39580468579814
0
LINE
5
117
100
AcDbEntity
8
0
100
AcDbLine
10
-16.35354798318857
20
-13.174272972788678
30
3.9292598218908183e-31
11
-25.747133406138467
21
-20.030525602205714
31
1.2325951644078309e-30
0
ARC
5
118
100
AcDbEntity
8
0
100
AcDbCircle
10
-26.336685182234163
20
-19.222795013889034
30
1.7763568394002505e-14
40
1.0000000000000018
210
0
220
0
230
1
100
AcDbArc
50
126.12520732257694
51
306.1252073225765
0
LINE
5
119
100
AcDbEntity
8
0
100
AcDbLine
10
-26.926236958329866
20
-18.415064425572357
30
1.7763568394002505e-14
11
-17.532651535379983
21
-11.558811796155315
31
1.7763568394002505e-14
0
ARC
5
120
100
AcDbEntity
8
0
100
AcDbCircle
10
-2.8416405635853965e-14
20
-6.3894976914249705e-16
30
0
40
21.000000000000007
210
1.3568890977372604e-32
220
-2.0581582382625589e-32
230
1
100
AcDbArc
50
200.85460995935549
51
213.39580468579811
0
LINE
5
121
100
AcDbEntity
8
0
100
AcDbLine
10
-19.624222611083226
20
-7.4759539130903718
30
1.1241197577449662e-31
11
-30.676751819172665
21
-11.093860119858936
31
0
0
ARC
5
122
100
AcDbEntity
8
0
100
AcDbCircle
10
-30.987846398855538
20
-10.143481162551936
30
1.7763568394002505e-14
40
0.99999999999999667
210
0
220
0
230
1
100
AcDbArc
50
108.12520732257663
51
288.12520732257695
0
LINE
5
123
100
AcDbEntity
8
0
100
AcDbLine
10
-31.298940978538404
20
-9.1931022052449389
30
1.7763568394002505e-14
11
-20.246411770448965
21
-5.5751959984763735
31
1.7763568394002505e-14
0
ARC
5
124
100
AcDbEntity
8
0
100
AcDbCircle
10
-2.8416405635853965e-14
20
-6.3894976914249705e-16
30
0
40
21.000000000000007
210
-2.376726594749061e-32
220
-6.5447234555694596e-33
230
1
100
AcDbArc
50
182.85460995935549
51
195.39580468579811
0
LINE
5
125
100
AcDbEntity
8
0
100
AcDbLine
10
-20.973941599806206
20
-1.0458363963450479
30
-5.0533795796357779e-31
11
-32.603516026648272
21
-1.0712503135118516
31
0
0
ARC
5
126
100
AcDbEntity
8
0
100
AcDbCircle
10
-32.605701304935565
20
-0.071252701235299046
30
4.7895943604852146e-47
40
1
210
-2.4592501856475795e-32
220
-2.7209418644763946e-32
230
1
100
AcDbArc
50
90.125207322576543
51
270.12520732257695
0
LINE
5
127
100
AcDbEntity
8
0
100
AcDbLine
10
-32.60788658322285
20
0.92874491104125401
30
2.7155612215860026e-32
11
-20.978312156380792
21
0.95415882820806608
31
0
0
ARC
5
128
100
AcDbEntity
8
0
100
AcDbCircle
10
-2.8416405635853965e-14
20
-6.3894976914249705e-16
30
0
40
21.000000000000007
210
-2.511648207418877e-32
220
-9.6539820194125264e-33
230
1
100
AcDbArc
50
164.85460995935557
51
177.39580468579823
0
LINE
5
129
100
AcDbEntity
8
0
100
AcDbLine
10
-20.270585050696166
20
5.4866548736451781
30
-4.5615771856223578e-31
11
-31.338820923381959
21
9.056220937361589
31
0
0
ARC
5
130
100
AcDbEntity
8
0
100
AcDbCircle
10
-31.031882990009187
20
10.007950470925008
30
-1.3684555315672042e-46
40
1.0000000000000009
210
-1.5133208497944645e-32
220
-4.6923888835775839e-32
230
1
100
AcDbArc
50
72.125207322577012
51
252.12520732257713
0
LINE
5
131
100
AcDbEntity
8
0
100
AcDbLine
10
-30.724945056636411
20
10.959680004488433
30
4.9303806576313178e-32
11
-19.656709183950611
21
7.3901139407720295
31
0
0
ARC
5
132
100
AcDbEntity
8
0
100
AcDbCircle
10
-2.8416405635853965e-14
20
-6.3894976914249705e-16
30
0
40
21.000000000000007
210
-4.1812400021626274e-32
220
2.888801881884898e-32
230
1
100
AcDbArc
50
146.85460995935554
51
159.39580468579814
0
LINE
5
133
100
AcDbEntity
8
0
100
AcDbLine
10
-17.583002403353227
20
11.482074136830672
30
-1.0668819038144039e-30
11
-27.006463660654596
21
18.297206172135187
31
0
0
ARC
5
134
100
AcDbEntity
8
0
100
AcDbCircle
10
-26.42044775617839
20
19.107505721500075
30
-4.4474793458609199e-48
40
1.0000000000000022
210
-1.1058037445822109e-32
220
6.8843667055698093e-32
230
1
100
AcDbArc
50
54.125207322576813
51
234.12520852999495
0
LINE
5
135
100
AcDbEntity
8
0
100
AcDbLine
10
-25.8344318346264
20
19.917805258515603
30
-4.930380553731337e-32
11
-16.410970560249247
21
13.102673210861735
31
0
0
ARC
5
136
100
AcDbEntity
8
0
100
AcDbCircle
10
-2.8416405635853965e-14
20
-6.3894976914249705e-16
30
0
40
21
210
1.9264840910288064e-32
220
-1.5381230133832564e-32
230
1
100
AcDbArc
50
128.85460995935557
51
141.39580468579814
0
LINE
5
137
100
AcDbEntity
8
0
100
AcDbLine
10
-13.174272972788701
20
16.353547983188541
30
5.0533795796357779e-31
11
-20.030525602205742
21
25.747133406138431
31
0
0
ARC
5
138
100
AcDbEntity
8
0
100
AcDbCircle
10
-19.222795013889062
20
26.336685182234142
30
6.0297571859680021e-47
40
1.0000000000000007
210
-5.3785229783965689e-33
220
-3.4445669713740712e-32
230
1
100
AcDbArc
50
36.125207322576486
51
216.12520732257715
0
LINE
5
139
100
AcDbEntity
8
0
100
AcDbLine
10
-18.415064425572382
20
26.926236958329838
30
2.4651903288156739e-32
11
-11.558811796155336
21
17.532651535379959
31
0
0
ARC
5
140
100
AcDbEntity
8
0
100
AcDbCircle
10
-2.8416405635853965e-14
20
-6.3894976914249705e-16
30
0
40
21.000000000000007
210
-2.0581582382625526e-32
220
-1.3568890977372563e-32
230
1
100
AcDbArc
50
110.85460995935553
51
123.39580468579813
0
LINE
5
141
100
AcDbEntity
8
0
100
AcDbLine
10
-7.4759539130904056
20
19.624222611083194
30
1.1241197577449612e-31
11
-11.093860119858974
21
30.676751819172637
31
1.2325951644078309e-31
0
ARC
5
142
100
AcDbEntity
8
0
100
AcDbCircle
10
-10.143481162551977
20
30.987846398855506
30
1.7763568394002505e-14
40
1.000000000000002
210
0
220
-0
230
1
100
AcDbArc
50
18.125207322576532
51
198.12520732257681
0
LINE
5
143
100
AcDbEntity
8
0
100
AcDbLine
10
-9.1931022052449745
20
31.298940978538372
30
1.7763568394002505e-14
11
-5.5751959984764081
21
20.246411770448937
31
1.7763568394002505e-14
0
ARC
5
144
100
AcDbEntity
8
0
100
AcDbCircle
10
-2.8416405635853965e-14
20
-6.3894976914249705e-16
30
0
40
21.000000000000007
210
3.0311989403059994e-32
220
-1.7222542491921215e-32
230
1
100
AcDbArc
50
92.8546099593555
51
105.39580468579815
0
LINE
5
145
100
AcDbEntity
8
0
100
AcDbLine
10
-1.0458363963450652
20
20.973941599806182
30
3.9292598218908113e-31
11
-1.0712503135118829
21
32.603516026648244
31
-1.8585223963336826e-31
0
ARC
5
146
100
AcDbEntity
8
0
100
AcDbCircle
10
-0.071252701235327634
20
32.605701304935536
30
-3.4211388289180104e-48
40
0.99999999999999756
210
5.9132135108864888e-35
220
-2.705925110847799e-32
230
1
100
AcDbArc
50
0.12520732257415884
51
180.12520732257414
0
LINE
5
147
100
AcDbEntity
8
0
100
AcDbLine
10
0.92874491104122292
20
32.607886583222822
30
1.6569052190975476e-48
11
0.95415882820803621
21
20.97831215638076
31
2.1666711874356403e-31
0
ARC
5
148
100
AcDbEntity
8
0
100
AcDbCircle
10
-2.8416405635853965e-14
20
-6.3894976914249705e-16
30
0
40
21.000000000000007
210
7.0005449864668567e-35
220
1.5391527453210065e-33
230
1
100
AcDbArc
50
74.854609959355571
51
87.39580468579814
0
LINE
5
149
100
AcDbEntity
8
0
100
AcDbLine
10
5.4866548736451488
20
20.270585050696141
30
-3.1583622372723623e-32
11
9.0562209373615659
21
31.338820923381938
31
-1.2325951644078309e-31
0
ARC
5
150
100
AcDbEntity
8
0
100
AcDbCircle
10
10.007950470924989
20
31.031882990009162
30
-1.8132035793265455e-46
40
0.99999999999999656
210
4.3140586711289579e-32
220
-2.6864180706888585e-32
230
1
100
AcDbArc
50
-17.874792677423059
51
162.12520732257698
0
LINE
5
151
100
AcDbEntity
8
0
100
AcDbLine
10
10.959680004488408
20
30.724945056636386
30
-4.93038065763132e-32
11
7.3901139407720038
21
19.656709183950582
31
1.2325951644078309e-31
0
ARC
5
152
100
AcDbEntity
8
0
100
AcDbCircle
10
-2.8416405635853965e-14
20
-6.3894976914249705e-16
30
0
40
21.000000000000007
210
3.1750269901073425e-32
220
1.4399758076657042e-32
230
1
100
AcDbArc
50
56.85460995935555
51
69.395804685798126
0
LINE
5
153
100
AcDbEntity
8
0
100
AcDbLine
10
11.482074136830642
20
17.583002403353198
30
-6.1774993373807393e-31
11
18.297206184484516
21
27.006463677730341
31
2.4651903288156619e-31
0
ARC
5
154
100
AcDbEntity
8
0
100
AcDbCircle
10
19.10750572150004
20
26.420447756178355
30
-1.7763568394002505e-14
40
1.0000000000000004
210
0
220
0
230
1
100
AcDbArc
50
-35.874792677423315
51
144.12520732257687
0
LINE
5
155
100
AcDbEntity
8
0
100
AcDbLine
10
19.917805258515564
20
25.834431834626365
30
-1.7763568394002505e-14
11
13.102673210861703
21
16.410970560249222
31
-1.7763568394002505e-14
0
ARC
5
156
100
AcDbEntity
8
0
100
AcDbCircle
10
-2.8416405635853965e-14
20
-6.3894976914249705e-16
30
0
40
21.000000000000007
210
-3.8836107764554826e-33
220
3.464607104412062e-32
230
1
100
AcDbArc
50
38.854609959355571
51
51.39580468579814
0
LINE
5
157
100
AcDbEntity
8
0
100
AcDbLine
10
16.353547983188513
20
13.174272972788676
30
-3.9292598218908183e-31
11
25.747133389116748
21
20.030525589781831
31
2.4651903288156619e-31
0
ARC
5
158
100
AcDbEntity
8
0
100
AcDbCircle
10
26.336685182234099
20
19.22279501388903
30
-1.7763568394002505e-14
40
0.99999999999999889
210
-0
220
0
230
1
100
AcDbArc
50
-53.874792677423208
51
126.12520852999519
0
LINE
5
159
100
AcDbEntity
8
0
100
AcDbLine
10
26.926236958329799
20
18.415064425572353
30
-1.7763568394002505e-14
11
17.532651535379923
21
11.558811796155311
31
-1.7763568394002505e-14
0
ARC
5
160
100
AcDbEntity
8
0
100
AcDbCircle
10
-2.8416405635853965e-14
20
-6.3894976914249705e-16
30
0
40
21.000000000000007
210
6.8300946719996303e-32
220
-1.4025382810505855e-32
230
1
100
AcDbArc
50
20.854609959355553
51
33.395804685798119
0
LINE
5
161
100
AcDbEntity
8
0
100
AcDbLine
10
19.624222611083162
20
7.4759539130903825
30
-1.2354998674761479e-30
11
30.676751819172612
21
11.093860119858947
31
0
0
ARC
5
162
100
AcDbEntity
8
0
100
AcDbCircle
10
30.987846398855474
20
10.143481162551947
30
-1.7763568394002505e-14
40
0.99999999999999667
210
-0
220
0
230
1
100
AcDbArc
50
-71.874792677423414
51
108.12520732257637
0
LINE
5
163
100
AcDbEntity
8
0
100
AcDbLine
10
31.29894097853834
20
9.1931022052449496
30
-1.7763568394002505e-14
11
20.246411770448912
21
5.5751959984763788
31
-1.7763568394002505e-14
0
ARC
5
164
100
AcDbEntity
8
0
100
AcDbCircle
10
-2.8416405635853965e-14
20
-6.3894976914249705e-16
30
0
40
21.000000000000007
210
-1.7222542491921212e-32
220
-3.031198940306e-32
230
1
100
AcDbArc
50
2.8546099593554941
51
15.395804685798133
0
LINE
5
165
100
AcDbEntity
8
0
100
AcDbLine
10
20.973941599806153
20
1.0458363963450545
30
3.929259821890817e-31
11
32.603516026648222
21
1.0712503135118654
31
0
0
ARC
5
166
100
AcDbEntity
8
0
100
AcDbCircle
10
32.605701304935508
20
0.07125270123531445
30
5.6448790677147172e-47
40
1.0000000000000027
210
5.934256975337937e-35
220
-2.7155547375768008e-32
230
1
100
AcDbArc
50
-89.874792677423073
51
90.125207322576543
0
LINE
5
167
100
AcDbEntity
8
0
100
AcDbLine
10
32.6078865832228
20
-0.92874491104124102
30
-2.7155612215860036e-32
11
20.978312156380731
21
-0.95415882820805809
31
0
0
ARC
5
168
100
AcDbEntity
8
0
100
AcDbCircle
10
-2.8416405635853965e-14
20
-6.3894976914249705e-16
30
0
40
20.999999999999996
210
2.6446585621617295e-32
220
3.8897884180511631e-32
230
1
100
AcDbArc
50
344.85460995935551
51
357.39580468579817
0
LINE
5
169
100
AcDbEntity
8
0
100
AcDbLine
10
20.270585050696106
20
-5.4866548736451843
30
-3.2266849733002072e-31
11
31.338820923381906
21
-9.0562209373615907
31
0
0
ARC
5
170
100
AcDbEntity
8
0
100
AcDbCircle
10
31.03188299000913
20
-10.007950470925008
30
-3.1645534167491596e-47
40
1.0000000000000009
210
1.9678642293401758e-32
220
-1.9297576457916205e-32
230
1
100
AcDbArc
50
-107.8747926774228
51
72.125207322576884
0
LINE
5
171
100
AcDbEntity
8
0
100
AcDbLine
10
30.724945056636358
20
-10.959680004488433
30
-1.23259516440783e-32
11
19.65670918395055
21
-7.390113940772034
31
0
0
ARC
5
172
100
AcDbEntity
8
0
100
AcDbCircle
10
-2.8416405635853965e-14
20
-6.3894976914249705e-16
30
0
40
21.000000000000007
210
8.6752559122081233e-33
220
2.3075013988865258e-32
230
1
100
AcDbArc
50
326.85460995935551
51
339.39580468579811
0
LINE
5
173
100
AcDbEntity
8
0
100
AcDbLine
10
17.583002403353163
20
-11.482074136830684
30
1.1241197577449662e-31
11
27.006463677730316
21
-18.297206184484544
31
0
0
ARC
5
174
100
AcDbEntity
8
0
100
AcDbCircle
10
26.420447756178326
20
-19.107505721500068
30
-3.4211388289180104e-48
40
1.0000000000000004
210
-3.4421833644364414e-32
220
-5.5290179975251426e-33
230
1
100
AcDbArc
50
-125.8747926774233
51
54.125207322576692
0
LINE
5
175
100
AcDbEntity
8
0
100
AcDbLine
10
25.834431834626336
20
-19.917805258515592
30
-2.465190328815663e-32
11
16.41097056024919
21
-13.102673210861731
31
0
0
ARC
5
176
100
AcDbEntity
8
0
100
AcDbCircle
10
-2.8416405635853965e-14
20
-6.3894976914249705e-16
30
0
40
21.000000000000007
210
-3.0762460267665096e-32
220
-3.8529681820576074e-32
230
1
100
AcDbArc
50
308.85460995935551
51
321.39580468579811
0
LINE
5
177
100
AcDbEntity
8
0
100
AcDbLine
10
13.174272972788634
20
-16.353547983188552
30
-2.2482395154899316e-31
11
20.030525602205678
21
-25.747133406138438
31
0
0
ARC
5
178
100
AcDbEntity
8
0
100
AcDbCircle
10
19.222795013889005
20
-26.336685182234127
30
-1.3684555315672042e-47
40
1.0000000000000018
210
-5.435776605980932e-32
220
-9.1550503892756811e-33
230
1
100
AcDbArc
50
-143.87479267742307
51
36.125207322576408
0
LINE
5
179
100
AcDbEntity
8
0
100
AcDbLine
10
18.415064425572329
20
-26.926236958329831
30
-4.9303806576313238e-32
11
11.558811796155286
21
-17.532651535379948
31
0
0
ARC
5
180
100
AcDbEntity
8
0
100
AcDbCircle
10
-2.8416405635853965e-14
20
-6.3894976914249705e-16
30
0
40
21.000000000000007
210
1.3568890977372612e-32
220
-2.0581582382625578e-32
230
1
100
AcDbArc
50
290.85460995935557
51
303.39580468579817
0
LINE
5
181
100
AcDbEntity
8
0
100
AcDbLine
10
7.4759539130903612
20
-19.624222611083191
30
-5.0533795796357797e-31
11
11.093860119858917
21
-30.676751819172637
31
1.2325951644078309e-31
0
ARC
5
182
100
AcDbEntity
8
0
100
AcDbCircle
10
10.143481162551918
20
-30.987846398855506
30
-1.7763568394002505e-14
40
0.99999999999999423
210
0
220
0
230
1
100
AcDbArc
50
-161.87479267742356
51
18.125207322576756
0
LINE
5
183
100
AcDbEntity
8
0
100
AcDbLine
10
9.1931022052449212
20
-31.298940978538369
30
-1.7763568394002505e-14
11
5.5751959984763522
21
-20.246411770448933
31
-1.7763568394002505e-14
0
ARC
5
184
100
AcDbEntity
8
0
100
AcDbCircle
10
-2.8416405635853965e-14
20
-6.3894976914249705e-16
30
0
40
21.000000000000011
210
-6.544723455569517e-33
220
2.3767265947490613e-32
230
1
100
AcDbArc
50
272.85460995935551
51
285.39580468579811
0
LINE
5
185
100
AcDbEntity
8
0
100
AcDbLine
10
1.045836396345015
20
-20.973941599806185
30
5.0533795796357797e-31
11
1.0712503135118303
21
-32.603516026648244
31
1.4800771622615908e-30
0
ARC
5
186
100
AcDbEntity
8
0
100
AcDbCircle
10
0.071252701235274829
20
-32.605701304935536
30
3.4211388289180104e-48
40
0.99999999999999767
210
5.9132135108864877e-35
220
-2.705925110847799e-32
230
1
100
AcDbArc
50
-179.87479267742293
51
0.12520732257415884
0
LINE
5
187
100
AcDbEntity
8
0
100
AcDbLine
10
-0.92874491104127588
20
-32.607886583222822
30
-1.6569052190975476e-48
11
-0.95415882820809039
21
-20.97831215638076
31
9.5429828744387537e-31
0
ARC
5
188
100
AcDbEntity
8
0
100
AcDbCircle
10
-2.8416405635853965e-14
20
-6.3894976914249705e-16
30
0
40
21
210
-9.1007084824066393e-34
220
-2.000898568917309e-32
230
1
100
AcDbArc
50
254.85460995935554
51
267.39580468579811
0
LINE
5
189
100
AcDbEntity
8
0
100
AcDbLine
10
-5.4866548736452039
20
-20.270585050696141
30
-4.1058709084540701e-31
11
-9.0562209373616263
21
-31.338820923381935
31
-1.2325951644078309e-31
0
ARC
5
190
100
AcDbEntity
8
0
100
AcDbCircle
10
-10.007950470925044
20
-31.031882990009159
30
-1.6763580261698251e-46
40
1.0000000000000009
210
-3.7833021244860065e-33
220
-1.1730972208944044e-32
230
1
100
AcDbArc
50
162.12520732257704
51
342.1252073225769
0
LWPOLYLINE
5
191
100
AcDbEntity
8
0
100
AcDbPolyline
90
4
70
1
43
0.0
10
-22.857437050145993
20
-38.762579525859913
42
-0.04670295746981281
10
-29.654420965029423
20
-33.846939554837512
10
-23.064549639467337
20
-26.325397431540299
42
0.046702957469812838
10
-17.77800659455799
20
-30.148672964557729
0
LWPOLYLINE
5
192
100
AcDbEntity
8
0
100
AcDbPolyline
90
4
70
1
43
0.0
10
-43.928740342828874
20
9.7604186330464575
42
-0.04670295746981281
10
-41.354072456819246
20
17.743750765724382
10
-32.16427857752609
20
13.800695040007868
42
0.046702957469812838
10
-34.166798044422471
20
7.5914367145916959
0
LWPOLYLINE
5
193
100
AcDbEntity
8
0
100
AcDbPolyline
90
4
70
1
43
0.0
10
-4.2920175646910872
20
44.794849985510425
42
-0.046702957469813254
10
4.0961986134892161
20
44.813180615962168
10
3.1859322549360498
20
34.854696034637257
42
0.046702957469812838
10
-3.3382358836485757
20
34.840438877619235
0
LWPOLYLINE
5
194
100
AcDbEntity
8
0
100
AcDbPolyline
90
4
70
1
43
0.0
10
41.276127607538257
20
17.924321178951629
42
-0.046702957469812366
10
43.885662424625721
20
9.9523179989281694
10
34.133292996931132
20
7.7406917769441392
42
0.046702957469812838
10
32.103654805863073
20
13.941138694740227
0
LWPOLYLINE
5
195
100
AcDbEntity
8
0
100
AcDbPolyline
90
4
70
1
43
0.0
10
29.802067350127508
20
-33.717010271648689
42
-0.04670295746981281
10
23.026632383733595
20
-38.662309825777221
10
17.909602965126108
20
-30.070685420048953
42
0.046702957469812838
10
23.179385716765822
20
-26.224341322393421
0
LWPOLYLINE
5
196
100
AcDbEntity
8
0
100
AcDbPolyline
90
4
70
1
43
0.0
10
38.762579525859891
20
-22.857437050145933
42
-0.04670295746981281
10
33.846939554837498
20
-29.654420965029367
10
26.325397431540264
20
-23.064549639467305
42
0.046702957469812692
10
30.14867296455769
20
-17.778006594557965
0
LWPOLYLINE
5
197
100
AcDbEntity
8
0
100
AcDbPolyline
90
4
70
1
43
0.0
10
33.717010271648661
20
29.802067350127484
42
-0.046702957469812588
10
38.662309825777179
20
23.02663238373361
10
30.070685420048925
20
17.909602965126133
42
0.046702957469812838
10
26.224341322393393
20
23.179385716765847
0
LWPOLYLINE
5
198
100
AcDbEntity
8
0
100
AcDbPolyline
90
4
70
1
43
0.0
10
-17.92432117895164
20
41.276127607538271
42
-0.046702957469812366
10
-9.9523179989281907
20
43.885662424625743
10
-7.7406917769441632
20
34.133292996931161
42
0.046702957469812692
10
-13.94113869474025
20
32.103654805863101
0
LWPOLYLINE
5
199
100
AcDbEntity
8
0
100
AcDbPolyline
90
4
70
1
43
0.0
10
-44.794849985510446
20
-4.2920175646910943
42
-0.046702957469813476
10
-44.813180615962196
20
4.096198613489249
10
-34.854696034637286
20
3.1859322549360809
42
0.046702957469812692
10
-34.840438877619263
20
-3.3382358836485446
0
LWPOLYLINE
5
200
100
AcDbEntity
8
0
100
AcDbPolyline
90
4
70
1
43
0.0
10
-9.7604186330465215
20
-43.928740342828831
42
-0.046702957469812588
10
-17.743750765724414
20
-41.354072456819225
10
-13.800695040007902
20
-32.164278577526069
42
0.046702957469812838
10
-7.5914367145917314
20
-34.16679804442245
0
ENDSEC
0
SECTION
2
OBJECTS
0
DICTIONARY
5
C
100
AcDbDictionary
3
ACAD_GROUP
350
D
3
ACAD_MLINESTYLE
350
17
0
DICTIONARY
5
D
100
AcDbDictionary
0
DICTIONARY
5
1A
330
C
100
AcDbDictionary
0
DICTIONARY
5
17
100
AcDbDictionary
0
ENDSEC
0
EOF
